<svg width="260" height="195" viewBox="0 0 260 195" fill="none" xmlns="http://www.w3.org/2000/svg">
<g clip-path="url(#clip0_352_7273)">
<path d="M260 170.848H0V170.978H260V170.848Z" fill="#E6E6E6"/>
<path d="M64.907 178.716H47.6846V178.846H64.907V178.716Z" fill="#E6E6E6"/>
<path d="M42.2347 178.716H32.2559V178.846H42.2347V178.716Z" fill="#E6E6E6"/>
<path d="M109.486 180.629H99.5073V180.759H109.486V180.629Z" fill="#E6E6E6"/>
<path d="M161.517 183.531H139.059V183.661H161.517V183.531Z" fill="#E6E6E6"/>
<path d="M134.43 183.531H131.139V183.661H134.43V183.531Z" fill="#E6E6E6"/>
<path d="M235.742 180.629H187.028V180.759H235.742V180.629Z" fill="#E6E6E6"/>
<path d="M123.24 147.656H22.8331C22.0466 147.655 21.2927 147.341 20.737 146.784C20.1813 146.228 19.8691 145.473 19.8691 144.687V3.54318C19.876 2.76111 20.1911 2.01332 20.7461 1.46225C21.3011 0.911174 22.051 0.601315 22.8331 0.599976H123.24C124.027 0.599976 124.783 0.912801 125.339 1.46963C125.896 2.02647 126.209 2.78169 126.209 3.56918V144.687C126.209 145.474 125.896 146.229 125.339 146.786C124.783 147.343 124.027 147.656 123.24 147.656ZM22.8331 0.703976C22.081 0.705353 21.3602 1.00509 20.8289 1.53739C20.2976 2.0697 19.9991 2.79107 19.9991 3.54318V144.687C19.9991 145.439 20.2976 146.16 20.8289 146.693C21.3602 147.225 22.081 147.525 22.8331 147.526H123.24C123.993 147.525 124.714 147.225 125.246 146.693C125.778 146.161 126.078 145.439 126.079 144.687V3.54318C126.078 2.7906 125.778 2.06923 125.246 1.53708C124.714 1.00492 123.993 0.705351 123.24 0.703976H22.8331Z" fill="#E6E6E6"/>
<path d="M235.722 147.656H135.31C134.522 147.655 133.768 147.341 133.212 146.785C132.655 146.228 132.342 145.474 132.34 144.687V3.54318C132.349 2.76063 132.665 2.01286 133.221 1.46192C133.776 0.910992 134.527 0.601301 135.31 0.599976H235.722C236.503 0.602682 237.251 0.913145 237.805 1.46407C238.359 2.015 238.673 2.76201 238.68 3.54318V144.687C238.68 145.472 238.369 146.226 237.814 146.783C237.26 147.339 236.507 147.653 235.722 147.656ZM135.31 0.703976C134.557 0.705351 133.836 1.00492 133.303 1.53708C132.771 2.06923 132.472 2.7906 132.47 3.54318V144.687C132.472 145.439 132.771 146.161 133.303 146.693C133.836 147.225 134.557 147.525 135.31 147.526H235.722C236.474 147.525 237.195 147.225 237.728 146.693C238.26 146.161 238.559 145.439 238.561 144.687V3.54318C238.559 2.7906 238.26 2.06923 237.728 1.53708C237.195 1.00492 236.474 0.705351 235.722 0.703976H135.31Z" fill="#E6E6E6"/>
<path d="M139.048 126.43H127.613V171.789H139.048V126.43Z" fill="#E0E0E0"/>
<path d="M136.874 171.789H139.048V165.612H134.597L136.874 171.789Z" fill="#FAFAFA"/>
<path d="M88.9407 126.43H77.5059V171.789H88.9407V126.43Z" fill="#E0E0E0"/>
<path d="M139.048 126.43H87.0479V167.998H139.048V126.43Z" fill="#FAFAFA"/>
<path d="M137.161 128.473V139.471H88.9201V128.473H137.145M137.348 128.27H88.7329V139.669H137.363V128.27H137.348Z" fill="#E0E0E0"/>
<path d="M89.2163 171.789H87.0479V165.612H91.4939L89.2163 171.789Z" fill="#FAFAFA"/>
<path d="M111.898 133.97C111.898 134.197 111.966 134.419 112.092 134.608C112.218 134.797 112.398 134.944 112.608 135.031C112.818 135.118 113.049 135.141 113.272 135.097C113.495 135.052 113.7 134.943 113.86 134.782C114.021 134.622 114.13 134.417 114.175 134.194C114.219 133.971 114.196 133.74 114.109 133.53C114.022 133.32 113.875 133.14 113.686 133.014C113.497 132.888 113.275 132.82 113.048 132.82C112.743 132.82 112.451 132.942 112.235 133.157C112.02 133.373 111.898 133.665 111.898 133.97Z" fill="#E6E6E6"/>
<path d="M137.161 141.712V152.71H88.9201V141.712H137.145M137.348 141.515H88.7329V152.913H137.363V141.52L137.348 141.515Z" fill="#E0E0E0"/>
<path d="M111.898 147.24C111.898 147.467 111.966 147.689 112.092 147.878C112.218 148.067 112.398 148.215 112.608 148.302C112.818 148.389 113.049 148.411 113.272 148.367C113.495 148.323 113.7 148.213 113.86 148.053C114.021 147.892 114.13 147.687 114.175 147.464C114.219 147.241 114.196 147.01 114.109 146.8C114.022 146.59 113.875 146.411 113.686 146.284C113.497 146.158 113.275 146.091 113.048 146.091C112.743 146.091 112.451 146.212 112.235 146.427C112.02 146.643 111.898 146.935 111.898 147.24Z" fill="#E6E6E6"/>
<path d="M137.161 154.957V165.96H88.9201V154.957H137.145M137.348 154.754H88.7329V166.158H137.363V154.754H137.348Z" fill="#E0E0E0"/>
<path d="M111.898 160.458C111.899 160.685 111.968 160.907 112.095 161.095C112.222 161.284 112.401 161.43 112.611 161.516C112.822 161.603 113.052 161.625 113.275 161.58C113.498 161.535 113.702 161.425 113.862 161.264C114.022 161.103 114.131 160.898 114.175 160.676C114.219 160.453 114.196 160.222 114.109 160.012C114.022 159.803 113.874 159.623 113.686 159.497C113.497 159.371 113.275 159.304 113.048 159.304C112.896 159.304 112.746 159.334 112.607 159.392C112.467 159.45 112.34 159.535 112.233 159.642C112.126 159.75 112.042 159.877 111.984 160.017C111.927 160.157 111.898 160.307 111.898 160.458Z" fill="#E6E6E6"/>
<path d="M81.9573 100.086H70.5225V171.794H81.9573V100.086Z" fill="#E0E0E0"/>
<path d="M79.7836 171.789H81.9572V165.612H77.5112L79.7836 171.789Z" fill="#FAFAFA"/>
<path d="M39.2234 100.086H27.7886V171.794H39.2234V100.086Z" fill="#E0E0E0"/>
<path d="M81.9568 100.086H37.3252V168.004H81.9568V100.086Z" fill="#FAFAFA"/>
<path d="M80.0332 102V117.376H39.2496V102H80.0332ZM80.2724 101.766H39V117.6H80.262V101.771L80.2724 101.766Z" fill="#E0E0E0"/>
<path d="M80.0333 119.254V160.037H60.6061V119.254H80.0333ZM80.2725 119.014H60.3721V160.276H80.2725V119.014Z" fill="#E0E0E0"/>
<path d="M58.6768 119.254V160.037H39.2496V119.254H58.6768ZM58.9108 119.014H39V160.276H58.9004V119.014H58.9108Z" fill="#E0E0E0"/>
<path d="M39.4988 171.789H37.3252V165.612H41.7764L39.4988 171.789Z" fill="#FAFAFA"/>
<path d="M58.4893 109.696C58.4882 109.925 58.5551 110.148 58.6813 110.339C58.8075 110.529 58.9874 110.678 59.1983 110.766C59.4091 110.854 59.6414 110.878 59.8657 110.834C60.0899 110.79 60.2961 110.681 60.4581 110.519C60.6201 110.358 60.7305 110.152 60.7755 109.928C60.8205 109.704 60.7979 109.472 60.7107 109.261C60.6235 109.049 60.4755 108.869 60.2856 108.742C60.0956 108.615 59.8722 108.547 59.6437 108.547C59.3384 108.547 59.0456 108.668 58.8292 108.883C58.6129 109.098 58.4906 109.391 58.4893 109.696Z" fill="#E6E6E6"/>
<path d="M62.6079 138.676C62.6079 138.904 62.6758 139.128 62.8028 139.317C62.9299 139.507 63.1105 139.655 63.3218 139.743C63.533 139.83 63.7654 139.852 63.9895 139.807C64.2135 139.762 64.4192 139.652 64.5804 139.49C64.7417 139.328 64.8512 139.122 64.8952 138.898C64.9391 138.673 64.9155 138.441 64.8273 138.23C64.7392 138.019 64.5904 137.839 64.3999 137.713C64.2094 137.587 63.9857 137.52 63.7571 137.521C63.6058 137.521 63.4559 137.551 63.3161 137.609C63.1764 137.667 63.0495 137.752 62.9427 137.86C62.8359 137.967 62.7513 138.094 62.6939 138.234C62.6365 138.374 62.6072 138.524 62.6079 138.676Z" fill="#E6E6E6"/>
<path d="M54.3765 138.676C54.3775 138.903 54.4458 139.124 54.5727 139.313C54.6996 139.501 54.8794 139.647 55.0895 139.734C55.2996 139.82 55.5305 139.842 55.753 139.797C55.9756 139.752 56.1799 139.642 56.3401 139.481C56.5003 139.32 56.6092 139.115 56.6532 138.893C56.6971 138.67 56.674 138.439 56.5869 138.229C56.4998 138.02 56.3525 137.841 56.1636 137.714C55.9747 137.588 55.7527 137.521 55.5257 137.521C55.3743 137.521 55.2245 137.551 55.0847 137.609C54.9449 137.667 54.818 137.752 54.7112 137.86C54.6044 137.967 54.5199 138.094 54.4625 138.234C54.405 138.374 54.3758 138.524 54.3765 138.676Z" fill="#E6E6E6"/>
<path d="M53.0764 80.0923H48.256C48.7002 82.4307 48.98 84.7973 49.0932 87.1748C49.0932 89.7748 45.422 100.086 50.6532 100.086C55.8844 100.086 52.2132 89.8008 52.2132 87.1748C52.335 84.7967 52.6234 82.4301 53.0764 80.0923Z" fill="#E0E0E0"/>
<path d="M34.7358 90.638V93.758C34.7413 95.4306 35.4082 97.0331 36.5909 98.2158C37.7736 99.3985 39.3761 100.065 41.0486 100.071H44.1686C45.8412 100.065 47.4437 99.3985 48.6264 98.2158C49.8091 97.0331 50.476 95.4306 50.4814 93.758V90.638H34.7358Z" fill="#F5F5F5"/>
<path d="M101.749 119.815C101.749 123.455 105.82 126.43 110.797 126.43H115.289C120.266 126.43 124.337 123.455 124.337 119.815H101.749Z" fill="#E0E0E0"/>
<path d="M220.797 114.48C218.073 116.706 214.308 120.777 210.865 126.508C208.567 130.324 207.184 134.308 206.575 139.601C206.575 133.621 206.612 127.199 206.633 121.136C207.324 119.576 208.905 115.978 210.039 113.138C213.819 103.659 215.239 101.324 218.634 93.1496C223.174 82.2296 227.823 69.3024 226.491 70.3372C223.777 72.4432 213.377 91.9172 212.254 94.7044C209.192 102.143 207.3 110.01 206.643 118.026C206.643 112.306 206.685 107.106 206.705 103.071C206.778 89.91 207.002 85.6616 207.111 84.3512C207.532 83.6856 208.026 82.9108 208.317 82.4948C210.761 78.9588 211.703 75.9532 214.001 70.6804C217.267 63.2184 220.075 49.9636 219.253 50.6292C215.831 53.4164 213.138 59.3964 209.591 67.0248C206.045 74.6532 207.059 79.0368 206.357 85.5472C206.211 86.8264 206.097 91.652 206.014 98.334C205.099 91.21 203.372 86.5196 200.226 82.2556C196.357 77.0088 192.613 73.4676 189.868 71.6164C187.122 69.7652 194.61 82.6508 198.188 88.2564C201.375 93.2692 204.313 97.684 205.988 102.036C205.899 111.1 205.858 122.571 205.858 133.236C205.036 128.38 203.695 123.143 201.906 119.092C199.753 114.225 196.446 106.758 193.809 104.226C193.18 103.617 196.565 118.141 198.739 121.999C200.913 125.858 202.509 129.503 203.877 131.692C204.194 132.212 205.255 134.172 205.858 135.306C205.858 148.342 205.931 159.845 206.045 163.76H206.607C206.57 162.752 206.56 156.116 206.575 147.339C207.933 142.576 211.032 137.136 213.59 132.176C216.377 126.804 223.522 112.27 220.797 114.48Z" fill="#E0E0E0"/>
<path d="M214.469 171.789H198.172L196.939 155.815H215.701L214.469 171.789Z" fill="#F0F0F0"/>
<path d="M216.913 157.676H195.723L195.12 152.284H217.521L216.913 157.676Z" fill="#F5F5F5"/>
<path d="M64.6152 11.2599H35.4692V43.2659H64.6152V11.2599Z" fill="#E0E0E0"/>
<path d="M67.7716 11.2599H37.6636V43.2659H67.7716V11.2599Z" fill="#F5F5F5"/>
<path d="M65.2495 40.744V13.782L40.1855 13.782V40.744H65.2495Z" fill="white"/>
<path d="M59.1709 34.2024V20.3132H46.2593V34.2024H59.1709Z" fill="#F5F5F5"/>
<path d="M213.226 14.9884H186.15V44.722H213.226V14.9884Z" fill="#E0E0E0"/>
<path d="M216.159 14.9884H188.193V44.722H216.159V14.9884Z" fill="#F5F5F5"/>
<path d="M213.819 42.3768V17.3336H190.538V42.3768H213.819Z" fill="white"/>
<path d="M202.176 37.1196C206.188 37.1196 209.44 33.8672 209.44 29.8552C209.44 25.8432 206.188 22.5908 202.176 22.5908C198.164 22.5908 194.912 25.8432 194.912 29.8552C194.912 33.8672 198.164 37.1196 202.176 37.1196Z" fill="#F5F5F5"/>
<path d="M94.895 30.344H73.2734V54.0872H94.895V30.344Z" fill="#E0E0E0"/>
<path d="M97.2349 30.344H74.9009V54.0872H97.2349V30.344Z" fill="#F5F5F5"/>
<path d="M95.3633 52.2152V32.216H76.7733V52.2152H95.3633Z" fill="white"/>
<path d="M86.0705 37.156L80.9849 45.9648H91.1561L86.0705 37.156Z" fill="#F5F5F5"/>
<path d="M69.9192 95.6248C100.36 127.012 140.364 148.8 177.445 113.632C196.56 95.5156 221.822 46.5888 196.893 24.1924C162.536 -6.66441 142.813 43.8224 117.14 50.6656C99.5332 55.3456 84.7288 28.3056 63.6532 46.3704C46.9924 60.6444 57.2624 82.578 69.9192 95.6248Z" fill="#01664A"/>
<path opacity="0.9" d="M69.9192 95.6248C100.36 127.012 140.364 148.8 177.445 113.632C196.56 95.5156 221.822 46.5888 196.893 24.1924C162.536 -6.66441 142.813 43.8224 117.14 50.6656C99.5332 55.3456 84.7288 28.3056 63.6532 46.3704C46.9924 60.6444 57.2624 82.578 69.9192 95.6248Z" fill="white"/>
<path d="M130 194.331C185.683 194.331 230.823 191.696 230.823 188.445C230.823 185.194 185.683 182.558 130 182.558C74.3172 182.558 29.1772 185.194 29.1772 188.445C29.1772 191.696 74.3172 194.331 130 194.331Z" fill="#F5F5F5"/>
<path d="M181.61 56.9836L176.451 54.9036C176.451 54.9036 169.644 67.316 167.694 67.9452C165.042 68.798 159.551 71.1692 156.296 71.5852C155.854 72.1052 155.131 73.7224 155.199 74.31C159.572 75.7712 169.182 73.8316 171.241 72.3028C175.926 68.8344 181.61 56.9836 181.61 56.9836Z" fill="#E58A7B"/>
<path d="M183.196 54.16C184.158 57.7116 178.947 64.8564 178.947 64.8564L172.12 61.0292C172.12 61.0292 173.399 58.0912 174.959 55.1012C177.46 50.2704 182.098 50.1092 183.196 54.16Z" fill="#01664A"/>
<path opacity="0.2" d="M183.196 54.16C184.158 57.7116 178.947 64.8564 178.947 64.8564L172.12 61.0292C172.12 61.0292 173.399 58.0912 174.959 55.1012C177.46 50.2704 182.098 50.1092 183.196 54.16Z" fill="black"/>
<path opacity="0.2" d="M174.829 62.558L177.518 64.066L177.991 55.8136C176.426 57.0148 175.323 60.634 174.829 62.558Z" fill="black"/>
<path d="M178.703 51.4872C178.703 51.4872 173.389 63.312 176.488 85.3288H197.429C197.761 82.1152 196.659 66.432 200.647 51.2896C198.35 50.8407 196.026 50.5436 193.69 50.4004C190.726 50.2287 187.756 50.2287 184.793 50.4004C182.738 50.609 180.703 50.9723 178.703 51.4872Z" fill="#01664A"/>
<path opacity="0.2" d="M178.703 51.4872C178.703 51.4872 173.389 63.312 176.488 85.3288H197.429C197.761 82.1152 196.659 66.432 200.647 51.2896C198.35 50.8407 196.026 50.5436 193.69 50.4004C190.726 50.2287 187.756 50.2287 184.793 50.4004C182.738 50.609 180.703 50.9723 178.703 51.4872Z" fill="black"/>
<g style="mix-blend-mode:multiply">
<path d="M173.847 188.913C173.816 189.474 181.756 189.927 191.579 189.927C201.402 189.927 209.399 189.474 209.43 188.913C209.462 188.351 201.526 187.904 191.698 187.904C181.87 187.904 173.883 188.356 173.847 188.913Z" fill="#E8ECF1"/>
</g>
<path d="M187.824 174.157L184.11 175.594L187.31 183.859L191.024 182.421L187.824 174.157Z" fill="#E58A7B"/>
<path d="M204.386 184.914H200.47L199.035 175.85H202.951L204.386 184.914Z" fill="#E58A7B"/>
<path d="M200.2 184.462H204.599C204.676 184.462 204.75 184.489 204.808 184.539C204.866 184.588 204.904 184.657 204.917 184.732L205.483 188.211C205.495 188.298 205.488 188.387 205.463 188.471C205.438 188.556 205.394 188.633 205.336 188.699C205.278 188.766 205.206 188.818 205.126 188.854C205.045 188.89 204.958 188.908 204.87 188.908C203.336 188.882 202.597 188.788 200.663 188.788C199.472 188.788 197.023 188.913 195.369 188.913C193.716 188.913 193.607 187.29 194.288 187.14C197.345 186.479 198.531 185.58 199.55 184.706C199.73 184.548 199.961 184.461 200.2 184.462Z" fill="#263238"/>
<path d="M187.2 183.12L191.36 181.903C191.434 181.882 191.513 181.887 191.584 181.918C191.655 181.948 191.714 182.001 191.75 182.07L193.31 185.19C193.346 185.269 193.365 185.355 193.364 185.442C193.364 185.529 193.344 185.615 193.307 185.694C193.27 185.772 193.216 185.842 193.149 185.898C193.082 185.953 193.004 185.994 192.92 186.016C191.407 186.432 190.393 186.687 188.5 187.238C187.195 187.618 185.864 188.237 184.574 188.648C183.68 188.934 181.579 188.944 180.492 188.944C178.885 188.944 178.526 187.249 179.218 187.171C180.96 186.978 181.194 187.067 182.156 186.583C183.73 185.895 185.157 184.91 186.358 183.682C186.584 183.423 186.875 183.23 187.2 183.12Z" fill="#263238"/>
<path d="M156.952 71.5643L152.646 69.7599L150.873 74.5335C152.638 74.8024 154.433 74.8024 156.198 74.5335L156.952 71.5643Z" fill="#E58A7B"/>
<path d="M149.443 69.6352L149.328 72.8072L150.873 74.5232L152.646 69.7496L149.443 69.6352Z" fill="#E58A7B"/>
<path d="M188.334 174.858L184.608 176.297L186.258 180.571L189.984 179.132L188.334 174.858Z" fill="#CF6F64"/>
<path d="M202.951 175.85H199.035L199.779 180.525H203.694L202.951 175.85Z" fill="#CF6F64"/>
<path opacity="0.2" d="M175.822 79.3747C175.9 80.3159 175.989 81.2779 176.103 82.2659L191.672 77.2115C194.103 76.491 196.216 74.9631 197.662 72.8799C197.725 71.4915 197.803 70.0303 197.922 68.5067C197.974 67.7683 198.037 67.0091 198.104 66.2395C198.172 65.4699 198.265 64.6171 198.364 63.7955L175.822 79.3747Z" fill="black"/>
<path d="M180.908 62.3187L180.388 62.2563C180.695 59.6563 182.635 57.6075 184.678 57.6595V58.1795C182.889 58.1431 181.184 59.9891 180.908 62.3187Z" fill="white"/>
<path d="M183.68 67.1183H183.591V66.5983C185.38 66.6659 187.06 64.7991 187.335 62.4747L187.855 62.5371C187.58 65.0799 185.703 67.1183 183.68 67.1183Z" fill="white"/>
<path d="M193.399 40.38C192.666 43.2452 191.802 48.492 193.69 50.4004C193.69 50.4004 192.369 53.3072 187.05 53.3072C182.188 53.3072 184.793 50.4004 184.793 50.4004C188.027 49.6412 188.084 47.2804 187.658 45.0444L193.399 40.38Z" fill="#E58A7B"/>
<path d="M191.059 42.2831L187.663 45.0443C187.768 45.5582 187.829 46.0801 187.845 46.6043C188.838 47.5923 190.83 45.0911 191.033 43.8119C191.136 43.3083 191.145 42.79 191.059 42.2831Z" fill="#CF6F64"/>
<path d="M181.823 40.3435C182.06 40.753 182.378 41.1094 182.758 41.3904C183.138 41.6713 183.572 41.8708 184.033 41.9763C185.281 42.2519 185.905 41.1027 185.562 39.9483C185.255 38.9083 184.231 37.5095 182.962 37.7487C182.69 37.8047 182.436 37.925 182.22 38.0995C182.004 38.274 181.834 38.4977 181.722 38.7518C181.611 39.0059 181.562 39.283 181.579 39.56C181.597 39.8369 181.68 40.1056 181.823 40.3435Z" fill="#CF6F64"/>
<path d="M183.888 31.176C181.943 32.0652 181.257 39.7924 183.701 40.9364C186.145 42.0804 187.569 29.486 183.888 31.176Z" fill="#263238"/>
<path d="M193.991 36.0692C193.523 39.9484 193.471 42.2312 191.391 44.2176C190.746 44.8767 189.932 45.345 189.038 45.5706C188.144 45.7962 187.206 45.7704 186.325 45.496C185.445 45.2216 184.658 44.7094 184.051 44.0158C183.443 43.3222 183.04 42.4742 182.884 41.5656C182.255 38.0816 183.123 32.3252 187.013 30.7808C187.83 30.4203 188.729 30.285 189.616 30.3888C190.503 30.4927 191.346 30.8319 192.058 31.3714C192.77 31.9109 193.324 32.631 193.664 33.457C194.004 34.283 194.117 35.1849 193.991 36.0692Z" fill="#E58A7B"/>
<path d="M187.6 33.1831C190.481 32.45 192.598 31.9507 191.838 34.3479C190.835 37.5511 189.628 40.6503 191.246 40.7907C192.234 40.8791 196.602 39.0279 196.045 37.1507C195.562 35.5179 197.605 35.0707 197.969 34.2439C199.316 31.2487 195.463 31.6439 196.149 29.8239C196.836 28.0039 193.029 25.0711 190.949 26.5323C187.564 28.8931 181.756 28.8567 184.808 24.9723C186.997 22.2007 183.092 22.7675 183.092 22.7675C183.092 22.7675 185.453 24.1664 181.48 26.3295C177.278 28.6383 181.132 34.8419 187.6 33.1831Z" fill="#263238"/>
<path d="M195.52 40.3435C194.952 41.1664 194.097 41.7484 193.123 41.9763C191.839 42.2519 191.345 41.1027 191.828 39.9483C192.26 38.9083 193.446 37.5095 194.673 37.7487C195.9 37.9879 196.181 39.3243 195.52 40.3435Z" fill="#E58A7B"/>
<path d="M176.488 85.3287C176.488 85.3287 172.973 116.789 172.697 128.728C172.416 141.146 184.61 179.891 184.61 179.891L190.85 177.291C190.85 177.291 183.57 141.889 184.61 129.695C185.713 116.399 190.268 85.3495 190.268 85.3495L176.488 85.3287Z" fill="#01664A"/>
<path opacity="0.2" d="M185.224 93.9659C182.421 99.7795 184.309 111.277 185.827 118.089C186.404 113.279 187.091 108.058 187.741 103.227C187.678 95.8015 187.101 90.0659 185.224 93.9659Z" fill="black"/>
<path d="M190.575 175.232C190.606 175.232 191.313 177.218 191.313 177.218L184.117 180.244L182.983 178.133L190.575 175.232Z" fill="#01664A"/>
<path d="M183.918 85.3287C183.918 85.3287 186.607 115.25 188.385 126.456C190.34 138.733 198.005 179.62 198.005 179.62H205.176C205.176 179.62 200.881 139.726 200.07 127.568C199.186 114.381 197.428 85.3287 197.428 85.3287H183.918Z" fill="#01664A"/>
<path d="M205.286 177.754C205.317 177.754 205.525 179.756 205.525 179.756H197.642L197.08 177.457L205.286 177.754Z" fill="#01664A"/>
<path opacity="0.2" d="M202.54 175.382C202.524 175.383 202.508 175.377 202.496 175.366C202.483 175.356 202.475 175.341 202.473 175.325C202.431 174.961 198.557 138.925 197.829 128.005C197.039 116.16 195.447 89.884 195.432 89.6188C195.431 89.6101 195.432 89.6015 195.435 89.5933C195.438 89.5851 195.442 89.5776 195.448 89.5712C195.454 89.5649 195.461 89.5598 195.469 89.5563C195.477 89.5529 195.486 89.5511 195.494 89.5511C195.511 89.5511 195.528 89.5575 195.54 89.5691C195.553 89.5807 195.561 89.5965 195.562 89.6135C195.562 89.8787 197.169 116.134 197.959 128C198.687 138.92 202.561 174.93 202.597 175.32C202.599 175.329 202.599 175.337 202.596 175.346C202.594 175.354 202.59 175.362 202.585 175.369C202.58 175.376 202.573 175.382 202.565 175.386C202.557 175.39 202.549 175.392 202.54 175.393V175.382Z" fill="black"/>
<path d="M188.042 37.1507C188.042 37.4679 187.845 37.7227 187.637 37.7227C187.429 37.7227 187.278 37.4679 187.299 37.1507C187.32 36.8335 187.496 36.5787 187.704 36.5787C187.912 36.5787 188.063 36.8387 188.042 37.1507Z" fill="#263238"/>
<path d="M184.475 37.1507C184.475 37.4679 184.272 37.7227 184.069 37.7227C183.867 37.7227 183.711 37.4679 183.726 37.1507C183.742 36.8335 183.929 36.5787 184.137 36.5787C184.345 36.5787 184.496 36.8387 184.475 37.1507Z" fill="#263238"/>
<path d="M185.598 37.312C185.164 38.2806 184.605 39.1879 183.934 40.0107C184.454 40.5307 185.426 40.2916 185.426 40.2916L185.598 37.312Z" fill="#DF5753"/>
<path d="M185.692 41.6175C185.68 41.6176 185.668 41.6151 185.657 41.6103C185.645 41.6056 185.635 41.5986 185.627 41.5898C185.619 41.5811 185.612 41.5707 185.608 41.5594C185.604 41.548 185.602 41.536 185.603 41.5239C185.605 41.4986 185.616 41.4748 185.634 41.4574C185.652 41.44 185.677 41.4303 185.702 41.4303C186.1 41.4331 186.493 41.3467 186.853 41.1775C187.213 41.0084 187.53 40.7607 187.782 40.4527C187.8 40.437 187.823 40.4283 187.847 40.4283C187.871 40.4283 187.894 40.437 187.912 40.4527C187.929 40.4702 187.938 40.4935 187.938 40.5177C187.938 40.542 187.929 40.5653 187.912 40.5827C187.643 40.91 187.303 41.1729 186.919 41.3519C186.535 41.531 186.115 41.6218 185.692 41.6175Z" fill="#263238"/>
<path d="M188.677 36.194C188.652 36.2067 188.624 36.2134 188.596 36.2134C188.568 36.2134 188.541 36.2067 188.516 36.194C188.321 36.0682 188.1 35.99 187.869 35.9656C187.639 35.9412 187.406 35.9713 187.19 36.0536C187.168 36.0641 187.145 36.0703 187.122 36.0719C187.098 36.0734 187.075 36.0702 187.052 36.0624C187.03 36.0547 187.01 36.0425 186.992 36.0267C186.975 36.0109 186.96 35.9917 186.95 35.9704C186.931 35.9241 186.931 35.8721 186.949 35.8255C186.968 35.7789 187.003 35.7413 187.049 35.7208C187.321 35.6097 187.616 35.5659 187.908 35.5931C188.2 35.6202 188.482 35.7176 188.729 35.8768C188.749 35.8903 188.766 35.9077 188.779 35.9279C188.792 35.9481 188.801 35.9707 188.805 35.9944C188.81 36.0181 188.809 36.0424 188.804 36.066C188.799 36.0895 188.789 36.1118 188.776 36.1316C188.749 36.1614 188.715 36.183 188.677 36.194Z" fill="#263238"/>
<path d="M183.097 35.154C183.069 35.1473 183.044 35.1328 183.024 35.1124C183.007 35.0954 182.993 35.0752 182.984 35.0529C182.975 35.0306 182.97 35.0066 182.97 34.9824C182.97 34.9582 182.975 34.9342 182.984 34.9119C182.993 34.8895 183.007 34.8693 183.024 34.8524C183.224 34.6288 183.472 34.4543 183.75 34.3425C184.027 34.2307 184.327 34.1845 184.626 34.2076C184.65 34.2113 184.673 34.2198 184.693 34.2327C184.714 34.2456 184.731 34.2626 184.745 34.2826C184.759 34.3026 184.768 34.3252 184.773 34.3489C184.777 34.3727 184.777 34.3972 184.772 34.4208C184.76 34.4689 184.732 34.5113 184.692 34.5401C184.652 34.5688 184.602 34.5818 184.553 34.5768C184.317 34.5619 184.08 34.601 183.861 34.6911C183.642 34.7812 183.447 34.9199 183.29 35.0968C183.266 35.1231 183.235 35.1424 183.201 35.1525C183.167 35.1625 183.131 35.1631 183.097 35.154Z" fill="#263238"/>
<path d="M202.66 56.4063L197.252 54.9659C197.252 54.9659 191.948 68.0231 190.071 68.8707C187.523 70.0355 181.069 74.0707 178.324 75.9791C178.173 76.6291 178.293 78.3503 178.636 78.8235C183.316 77.9707 192.275 74.5231 194.147 72.7707C198.417 68.7719 202.66 56.4063 202.66 56.4063Z" fill="#E58A7B"/>
<path d="M198.884 185.148C198.62 185.169 198.357 185.097 198.141 184.945C198.074 184.885 198.024 184.808 197.995 184.722C197.967 184.636 197.962 184.545 197.98 184.456C197.983 184.401 198.001 184.348 198.032 184.302C198.063 184.256 198.106 184.22 198.156 184.196C198.593 183.973 199.815 184.748 199.956 184.836C199.971 184.845 199.983 184.86 199.989 184.877C199.996 184.894 199.997 184.912 199.992 184.93C199.987 184.948 199.978 184.964 199.966 184.978C199.953 184.992 199.937 185.002 199.919 185.008C199.58 185.091 199.233 185.138 198.884 185.148ZM198.364 184.337C198.325 184.328 198.284 184.328 198.245 184.337C198.225 184.347 198.208 184.363 198.197 184.382C198.186 184.401 198.181 184.424 198.182 184.446C198.168 184.506 198.171 184.57 198.189 184.629C198.207 184.688 198.241 184.742 198.286 184.784C198.489 184.966 198.999 184.987 199.67 184.857C199.27 184.594 198.82 184.417 198.349 184.337H198.364Z" fill="#01664A"/>
<path d="M199.893 185.008C199.88 185.012 199.865 185.012 199.852 185.008C199.462 184.789 198.728 183.931 198.838 183.494C198.854 183.425 198.893 183.363 198.949 183.319C199.004 183.275 199.073 183.25 199.144 183.25C199.214 183.241 199.285 183.247 199.352 183.267C199.42 183.288 199.482 183.323 199.534 183.37C199.966 183.739 199.992 184.872 199.992 184.93C199.995 184.947 199.991 184.964 199.983 184.979C199.974 184.994 199.961 185.006 199.945 185.013C199.928 185.016 199.91 185.015 199.893 185.008ZM199.196 183.422H199.16C199.04 183.422 199.025 183.489 199.02 183.515C198.957 183.77 199.42 184.42 199.805 184.727C199.803 184.287 199.667 183.859 199.415 183.5C199.354 183.447 199.276 183.419 199.196 183.422Z" fill="#01664A"/>
<path d="M185.078 184.498C184.76 184.609 184.414 184.609 184.096 184.498C184.023 184.459 183.962 184.402 183.918 184.333C183.873 184.264 183.847 184.185 183.841 184.103C183.834 184.051 183.841 183.999 183.86 183.951C183.879 183.903 183.91 183.86 183.95 183.827C184.366 183.453 186.066 183.827 186.259 183.9C186.277 183.905 186.293 183.915 186.305 183.931C186.316 183.946 186.322 183.964 186.321 183.983C186.322 184.003 186.317 184.022 186.307 184.039C186.297 184.055 186.282 184.069 186.264 184.077C185.881 184.25 185.485 184.391 185.078 184.498ZM184.231 183.879C184.171 183.891 184.116 183.918 184.07 183.957C184.053 183.97 184.04 183.986 184.033 184.006C184.026 184.025 184.024 184.046 184.028 184.066C184.031 184.121 184.048 184.174 184.078 184.22C184.107 184.266 184.147 184.305 184.194 184.332C184.47 184.477 185.11 184.363 185.936 184.014C185.38 183.874 184.803 183.828 184.231 183.879Z" fill="#01664A"/>
<path d="M186.249 184.077H186.207C185.687 183.983 184.647 183.385 184.616 182.938C184.616 182.834 184.663 182.688 184.912 182.605C184.996 182.575 185.086 182.562 185.175 182.568C185.265 182.573 185.352 182.596 185.432 182.636C185.994 182.912 186.29 183.91 186.306 183.957C186.309 183.973 186.309 183.989 186.304 184.005C186.3 184.02 186.291 184.034 186.28 184.046C186.272 184.058 186.261 184.069 186.249 184.077ZM185.016 182.761H184.964C184.803 182.818 184.803 182.886 184.803 182.907C184.803 183.177 185.557 183.671 186.082 183.838C185.961 183.42 185.705 183.054 185.354 182.798C185.25 182.744 185.129 182.732 185.016 182.761Z" fill="#01664A"/>
<path d="M178.766 75.6724L173.342 78.1684L172.713 79.7284L174.715 81.0752C174.715 81.0752 178.459 80.6696 179.525 78.262L178.766 75.6724Z" fill="#E58A7B"/>
<path d="M178.994 78.912C178.873 77.8699 178.529 76.8661 177.985 75.9688L178.843 75.324C179.489 76.3579 179.901 77.5203 180.05 78.73L178.994 78.912Z" fill="#263238"/>
<path d="M179.92 76.4107C180.035 76.5911 180.091 76.8024 180.081 77.0158C180.072 77.2293 179.997 77.4346 179.866 77.6039C179.735 77.7731 179.556 77.898 179.352 77.9616C179.148 78.0252 178.929 78.0245 178.726 77.9594C178.522 77.8943 178.344 77.7681 178.214 77.598C178.085 77.4278 178.011 77.2219 178.003 77.0084C177.995 76.7948 178.053 76.584 178.169 76.4045C178.285 76.2249 178.453 76.0855 178.651 76.0051C178.874 75.8919 179.131 75.871 179.369 75.9469C179.607 76.0229 179.805 76.1896 179.92 76.4107Z" fill="#263238"/>
<path d="M169.676 80.1859L170.399 80.9139L175.266 78.8339L173.342 78.1683L169.676 80.1859Z" fill="#E58A7B"/>
<path opacity="0.2" d="M190.575 175.232C190.606 175.232 191.313 177.218 191.313 177.218L184.117 180.244L182.983 178.133L190.575 175.232Z" fill="black"/>
<path opacity="0.2" d="M205.286 177.754C205.317 177.754 205.525 179.756 205.525 179.756H197.642L197.08 177.457L205.286 177.754Z" fill="black"/>
<path d="M204.069 54.9087C205.499 59.5211 199.909 65.8287 199.909 65.8287L192.187 62.6775C193.102 60.0116 194.158 57.3958 195.349 54.8411C197.72 49.7295 202.623 50.2547 204.069 54.9087Z" fill="#01664A"/>
<path opacity="0.2" d="M204.069 54.9087C205.499 59.5211 199.909 65.8287 199.909 65.8287L192.187 62.6775C193.102 60.0116 194.158 57.3958 195.349 54.8411C197.72 49.7295 202.623 50.2547 204.069 54.9087Z" fill="black"/>
<path d="M127.337 8.69641H124.015V9.23201H127.337V8.69641Z" fill="#01664A"/>
<path d="M170.351 29.895L169.949 38.8195L170.484 38.8436L170.886 29.9191L170.351 29.895Z" fill="#01664A"/>
<path d="M169.317 11.0988H107.957L102.247 138.873H163.607L169.317 11.0988Z" fill="#01664A"/>
<path opacity="0.56" d="M167.487 12.8564H106.127L100.417 140.631H161.777L167.487 12.8564Z" fill="#FAFAFA"/>
<path opacity="0.07" d="M165.657 14.6088H104.297L98.582 142.383H159.942L165.657 14.6088Z" fill="#01664A"/>
<path d="M158.673 70.3372H106.298L105.861 80.1132H158.236L158.673 70.3372Z" fill="white"/>
<path d="M135.101 63.2028H106.616L106.423 67.576H134.909L135.101 63.2028Z" fill="#01664A"/>
<path d="M157.492 96.722H105.118L104.681 106.498H157.056L157.492 96.722Z" fill="white"/>
<path opacity="0.47" d="M147.888 119.701H112.669L112.144 131.416H147.363L147.888 119.701Z" fill="#01664A"/>
<path d="M145.532 133.236H110.313C110.298 133.24 110.281 133.24 110.266 133.236C110.261 133.221 110.261 133.205 110.266 133.19L110.786 121.469C110.786 121.461 110.788 121.453 110.791 121.446C110.794 121.438 110.799 121.432 110.805 121.426C110.81 121.421 110.817 121.417 110.825 121.414C110.833 121.412 110.841 121.411 110.848 121.412H146.068C146.075 121.408 146.082 121.407 146.089 121.407C146.096 121.407 146.103 121.408 146.11 121.412C146.113 121.418 146.115 121.425 146.115 121.432C146.115 121.44 146.113 121.447 146.11 121.453L145.6 133.2C145.594 133.212 145.584 133.222 145.572 133.229C145.56 133.235 145.546 133.238 145.532 133.236ZM110.375 133.112H145.47L145.99 121.516H110.895L110.375 133.112Z" fill="white"/>
<path d="M128.95 89.5876H105.436L105.243 93.966H128.752L128.95 89.5876Z" fill="#01664A"/>
<path d="M147.218 38.7576C147.083 41.6028 146.071 44.3365 144.321 46.5836C143.026 48.281 141.358 49.6589 139.447 50.6117C137.536 51.5645 135.432 52.0668 133.297 52.08C131.572 52.0932 129.862 51.7529 128.273 51.0802C126.684 50.4075 125.249 49.4166 124.057 48.1685C122.866 46.9204 121.942 45.4416 121.344 43.8231C120.746 42.2046 120.485 40.4807 120.578 38.7576C120.761 35.1821 122.303 31.8115 124.888 29.3352C127.474 26.8588 130.908 25.4637 134.488 25.4352C136.215 25.4191 137.927 25.7573 139.518 26.4289C141.109 27.1004 142.545 28.0911 143.738 29.3397C144.931 30.5882 145.855 32.0682 146.454 33.688C147.052 35.3079 147.312 37.0333 147.218 38.7576Z" fill="white"/>
<path d="M148.47 28.2224C148.436 28.9789 148.167 29.706 147.701 30.3024C147.356 30.7532 146.912 31.1192 146.404 31.3725C145.895 31.6257 145.336 31.7595 144.768 31.7636C144.218 31.767 143.675 31.6355 143.188 31.3808C142.7 31.1261 142.282 30.7559 141.97 30.3024C141.558 29.6897 141.354 28.9603 141.388 28.2224C141.438 27.2731 141.849 26.3787 142.536 25.7217C143.223 25.0646 144.135 24.6944 145.085 24.6864C145.544 24.6822 145.998 24.772 146.421 24.9502C146.844 25.1284 147.225 25.3912 147.542 25.7225C147.86 26.0538 148.105 26.4465 148.265 26.8764C148.425 27.3064 148.495 27.7644 148.47 28.2224Z" fill="#01664A"/>
<path d="M111.94 75.2252C111.915 75.6442 111.733 76.0382 111.429 76.3277C111.125 76.6172 110.722 76.7807 110.302 76.7852C110.1 76.7876 109.899 76.7484 109.712 76.6701C109.525 76.5917 109.356 76.4759 109.216 76.3296C109.075 76.1834 108.966 76.01 108.896 75.82C108.825 75.6301 108.794 75.4276 108.805 75.2252C108.827 74.8053 109.009 74.4099 109.314 74.1199C109.618 73.8299 110.022 73.6673 110.443 73.6652C110.645 73.6636 110.846 73.7033 111.032 73.7819C111.219 73.8605 111.388 73.9764 111.528 74.1224C111.668 74.2685 111.777 74.4416 111.848 74.6313C111.919 74.8209 111.95 75.023 111.94 75.2252Z" fill="#263238"/>
<path d="M118.95 75.2252C118.927 75.6447 118.744 76.0393 118.44 76.3291C118.136 76.6188 117.732 76.7819 117.312 76.7852C117.11 76.7869 116.91 76.7472 116.723 76.6685C116.537 76.5898 116.369 76.4739 116.229 76.3277C116.089 76.1816 115.981 76.0084 115.91 75.8188C115.84 75.6292 115.809 75.4272 115.82 75.2252C115.842 74.8062 116.024 74.4116 116.327 74.1217C116.631 73.8318 117.033 73.6686 117.453 73.6652C117.655 73.6628 117.856 73.702 118.043 73.7803C118.23 73.8587 118.399 73.9746 118.539 74.1208C118.68 74.267 118.789 74.4404 118.859 74.6304C118.93 74.8204 118.961 75.0228 118.95 75.2252Z" fill="#263238"/>
<path d="M125.965 75.2252C125.941 75.6447 125.758 76.0393 125.454 76.3291C125.15 76.6188 124.747 76.7819 124.327 76.7852C124.124 76.7869 123.923 76.7472 123.737 76.6686C123.55 76.5899 123.382 76.474 123.241 76.328C123.101 76.1819 122.992 76.0088 122.921 75.8192C122.85 75.6295 122.819 75.4274 122.829 75.2252C122.853 74.8057 123.035 74.4111 123.339 74.1213C123.644 73.8316 124.047 73.6685 124.467 73.6652C124.67 73.6628 124.871 73.702 125.058 73.7803C125.244 73.8587 125.413 73.9746 125.554 74.1208C125.694 74.267 125.803 74.4404 125.874 74.6304C125.944 74.8204 125.975 75.0228 125.965 75.2252Z" fill="#263238"/>
<path d="M110.76 101.61C110.735 102.029 110.552 102.423 110.248 102.712C109.944 103.002 109.542 103.165 109.122 103.17C108.919 103.172 108.719 103.132 108.532 103.053C108.346 102.975 108.177 102.859 108.037 102.713C107.897 102.567 107.788 102.394 107.717 102.204C107.646 102.014 107.614 101.812 107.624 101.61C107.648 101.191 107.831 100.796 108.135 100.506C108.439 100.216 108.842 100.053 109.262 100.05C109.465 100.048 109.665 100.088 109.852 100.167C110.039 100.245 110.207 100.361 110.347 100.507C110.488 100.653 110.597 100.826 110.667 101.016C110.738 101.206 110.77 101.408 110.76 101.61Z" fill="#263238"/>
<path d="M117.77 101.61C117.746 102.029 117.564 102.422 117.261 102.712C116.958 103.002 116.556 103.165 116.137 103.17C115.934 103.172 115.733 103.133 115.546 103.055C115.359 102.976 115.19 102.861 115.05 102.714C114.91 102.568 114.801 102.395 114.73 102.205C114.66 102.015 114.629 101.812 114.639 101.61C114.663 101.191 114.846 100.796 115.15 100.506C115.454 100.216 115.857 100.053 116.277 100.05C116.479 100.048 116.68 100.088 116.866 100.167C117.053 100.245 117.221 100.361 117.361 100.507C117.5 100.654 117.609 100.827 117.679 101.016C117.75 101.206 117.78 101.408 117.77 101.61Z" fill="#263238"/>
<path d="M124.8 101.61C124.776 102.029 124.594 102.424 124.29 102.714C123.985 103.004 123.582 103.167 123.162 103.17C122.96 103.171 122.76 103.131 122.573 103.052C122.387 102.973 122.219 102.857 122.079 102.711C121.939 102.565 121.83 102.392 121.759 102.203C121.687 102.014 121.655 101.812 121.665 101.61C121.69 101.191 121.873 100.797 122.176 100.508C122.48 100.218 122.883 100.055 123.303 100.05C123.505 100.048 123.706 100.087 123.893 100.165C124.08 100.244 124.249 100.359 124.389 100.506C124.53 100.652 124.639 100.825 124.709 101.015C124.78 101.205 124.811 101.408 124.8 101.61Z" fill="#263238"/>
<path d="M131.799 101.61C131.774 102.029 131.591 102.423 131.287 102.712C130.983 103.002 130.581 103.165 130.161 103.17C129.959 103.171 129.759 103.131 129.572 103.052C129.386 102.973 129.218 102.857 129.078 102.711C128.938 102.565 128.829 102.392 128.758 102.203C128.686 102.014 128.654 101.812 128.664 101.61C128.689 101.191 128.872 100.797 129.176 100.507C129.479 100.218 129.882 100.054 130.302 100.05C130.504 100.048 130.705 100.088 130.891 100.167C131.078 100.245 131.246 100.361 131.387 100.507C131.527 100.653 131.636 100.826 131.707 101.016C131.778 101.206 131.809 101.408 131.799 101.61Z" fill="#263238"/>
<path d="M138.84 101.61C138.815 102.029 138.632 102.423 138.328 102.712C138.024 103.002 137.622 103.165 137.202 103.17C136.999 103.172 136.798 103.133 136.611 103.055C136.424 102.976 136.255 102.861 136.115 102.714C135.975 102.568 135.866 102.395 135.795 102.205C135.724 102.015 135.694 101.812 135.704 101.61C135.728 101.191 135.911 100.796 136.215 100.506C136.519 100.216 136.922 100.053 137.342 100.05C137.545 100.048 137.745 100.088 137.932 100.167C138.118 100.245 138.287 100.361 138.427 100.507C138.567 100.653 138.676 100.826 138.747 101.016C138.818 101.206 138.85 101.408 138.84 101.61Z" fill="#263238"/>
<path d="M137.775 38.0637C139.952 35.9353 140.067 32.5238 138.033 30.4438C135.999 28.3638 132.586 28.4031 130.41 30.5315C128.233 32.6599 128.118 36.0714 130.152 38.1514C132.186 40.2314 135.599 40.1921 137.775 38.0637Z" fill="#01664A"/>
<path d="M144.321 46.5836C143.025 48.2809 141.358 49.6589 139.447 50.6117C137.536 51.5645 135.432 52.0667 133.297 52.08C131.226 52.0976 129.183 51.6054 127.348 50.6468C125.512 49.6883 123.941 48.2929 122.772 46.5836C125.299 44.0668 129.298 42.4236 133.728 42.4236C138.159 42.4236 142.017 44.0668 144.321 46.5836Z" fill="#01664A"/>
<path opacity="0.1" d="M137.775 38.0637C139.952 35.9353 140.067 32.5238 138.033 30.4438C135.999 28.3638 132.586 28.4031 130.41 30.5315C128.233 32.6599 128.118 36.0714 130.152 38.1514C132.186 40.2314 135.599 40.1921 137.775 38.0637Z" fill="white"/>
<path opacity="0.1" d="M144.321 46.5836C143.025 48.2809 141.358 49.6589 139.447 50.6117C137.536 51.5645 135.432 52.0667 133.297 52.08C131.226 52.0976 129.183 51.6054 127.348 50.6468C125.512 49.6883 123.941 48.2929 122.772 46.5836C125.299 44.0668 129.298 42.4236 133.728 42.4236C138.159 42.4236 142.017 44.0668 144.321 46.5836Z" fill="white"/>
<path d="M67.8133 82.4688C67.3193 83.5504 66.7993 84.7412 66.3469 85.8956C65.8945 87.05 65.4317 88.2408 65.0313 89.4264C64.2137 91.7629 63.5911 94.1631 63.1697 96.6024L63.0553 97.3668C63.0443 97.4979 63.0567 97.6299 63.0917 97.7568C63.2144 98.1878 63.4077 98.5954 63.6637 98.9632C64.3314 99.9152 65.1061 100.788 65.9725 101.563C66.8859 102.413 67.844 103.213 68.8429 103.96C69.8413 104.73 70.8917 105.479 71.9265 106.186L70.9541 108.011C68.4831 106.935 66.1378 105.59 63.9601 104.002C62.7982 103.155 61.7497 102.162 60.8401 101.048C60.3009 100.385 59.8804 99.6342 59.5973 98.828C59.4326 98.3243 59.3484 97.7979 59.3477 97.268C59.3477 97.1432 59.3477 96.9612 59.3477 96.8728V96.618L59.3997 96.098C59.6978 93.3888 60.2674 90.7164 61.1001 88.1212C61.5057 86.842 61.9373 85.568 62.4313 84.3252C62.9253 83.0824 63.4349 81.8656 64.0641 80.602L67.8133 82.4688Z" fill="#E58A7B"/>
<path d="M71.1933 105.864L74.8697 104.002L73.9181 108.037C73.9181 108.037 71.3961 108.744 70.2261 107.517L71.1933 105.864Z" fill="#E58A7B"/>
<path d="M78.234 104.662L77.2564 108.001L73.918 108.037L74.8696 104.002L78.234 104.662Z" fill="#E58A7B"/>
<path d="M83.4235 63C83.6201 63.7206 83.8938 64.418 84.2399 65.08C84.1388 65.1946 84.0086 65.2798 83.863 65.3265C83.7175 65.3732 83.562 65.3797 83.4131 65.3452L83.4235 63Z" fill="#DF5753"/>
<path d="M83.3138 63.0312C83.5292 63.0312 83.7038 62.7635 83.7038 62.4332C83.7038 62.1029 83.5292 61.8352 83.3138 61.8352C83.0984 61.8352 82.9238 62.1029 82.9238 62.4332C82.9238 62.7635 83.0984 63.0312 83.3138 63.0312Z" fill="#263238"/>
<path d="M83.1997 61.8561L83.9901 61.6324C83.9901 61.6324 83.6053 62.2461 83.1997 61.8561Z" fill="#263238"/>
<path d="M73.2683 66.8168C73.7415 69.2348 74.2147 73.6704 72.5195 75.2876C72.5195 75.2876 73.1851 77.742 77.6831 77.742C82.6283 77.742 80.0439 75.2876 80.0439 75.2876C77.3451 74.6428 77.4127 72.6408 77.8859 70.7584L73.2683 66.8168Z" fill="#E58A7B"/>
<path d="M71.952 61.3048C72.2016 65.3452 72.2225 67.0612 74.2609 69.136C77.3341 72.256 82.2428 71.0704 83.2048 67.056C84.0732 63.416 83.522 57.4256 79.5648 55.8188C78.6962 55.461 77.7507 55.3307 76.8176 55.4402C75.8846 55.5497 74.9949 55.8954 74.2328 56.4446C73.4706 56.9939 72.8611 57.7285 72.462 58.5789C72.063 59.4294 71.8874 60.3676 71.952 61.3048Z" fill="#E58A7B"/>
<path d="M72.3525 56.76C70.3245 57.4984 67.6205 56.9472 68.6813 63.2028C69.8045 69.8276 68.0781 72.0064 68.0781 72.0064C68.0781 72.0064 75.7689 73.6444 83.6209 71.9076C83.6209 71.9076 81.2237 67.7164 81.8945 64.6276C82.7525 60.7276 82.0765 59.2872 82.0765 59.2872C82.0765 59.2872 75.2021 55.72 72.3525 56.76Z" fill="#263238"/>
<path d="M80.9326 63.4108C80.9347 64.1791 81.1547 64.931 81.567 65.5792C82.1182 66.4216 82.7682 66.0992 82.9294 65.2048C83.075 64.4196 82.9658 63.0312 82.2638 62.4904C81.5618 61.9496 80.943 62.48 80.9326 63.4108Z" fill="#E58A7B"/>
<path d="M70.5901 57.4412C70.0077 55.8032 72.7845 53.2812 78.6605 54.3212C84.5365 55.3612 84.7913 60.2544 84.7913 60.2544L83.6057 58.84L83.6577 60.3272L77.6205 61.4868L70.5901 57.4412Z" fill="#263238"/>
<path d="M71.0893 75.5632C71.0546 75.3258 71.114 75.0842 71.2548 74.8899C71.3957 74.6957 71.6068 74.5641 71.8433 74.5232C73.6737 74.2216 77.8337 73.608 79.9241 73.8992C81.4841 74.1176 81.8897 75.0224 81.9573 75.766C81.9678 75.8962 81.9504 76.0272 81.9062 76.1501C81.862 76.273 81.7919 76.3851 81.7008 76.4786C81.6096 76.5722 81.4995 76.6452 81.3778 76.6927C81.2562 76.7402 81.1257 76.7611 80.9953 76.754L71.9577 76.3484C71.7446 76.3377 71.5418 76.2537 71.3835 76.1106C71.2253 75.9675 71.1213 75.7741 71.0893 75.5632Z" fill="#01664A"/>
<path opacity="0.6" d="M71.0893 75.5632C71.0546 75.3258 71.114 75.0842 71.2548 74.8899C71.3957 74.6957 71.6068 74.5641 71.8433 74.5232C73.6737 74.2216 77.8337 73.608 79.9241 73.8992C81.4841 74.1176 81.8897 75.0224 81.9573 75.766C81.9678 75.8962 81.9504 76.0272 81.9062 76.1501C81.862 76.273 81.7919 76.3851 81.7008 76.4786C81.6096 76.5722 81.4995 76.6452 81.3778 76.6927C81.2562 76.7402 81.1257 76.7611 80.9953 76.754L71.9577 76.3484C71.7446 76.3377 71.5418 76.2537 71.3835 76.1106C71.2253 75.9675 71.1213 75.7741 71.0893 75.5632Z" fill="black"/>
<path d="M76.3149 166.407L79.6689 168.737L85.2797 161.129L81.9257 158.805L76.3149 166.407Z" fill="#E58A7B"/>
<path d="M68.4941 166.256L72.0353 168.274L77.0013 160.23L73.4601 158.212L68.4941 166.256Z" fill="#E58A7B"/>
<path d="M85.2745 161.129L82.3833 165.05L79.0293 162.726L81.9205 158.805L85.2745 161.129Z" fill="#CF6F64"/>
<path d="M73.4549 158.212L77.0013 160.235L74.4429 164.379L70.8965 162.356L73.4549 158.212Z" fill="#CF6F64"/>
<path d="M79.1435 100.96C79.1435 100.96 92.2371 117.46 89.7775 133.242C87.7963 145.987 76.3043 163.246 76.3043 163.246L70.9015 160.562C74.7097 152.932 77.9596 145.035 80.6255 136.934C81.4476 134.419 81.6876 131.75 81.3272 129.128C80.9669 126.507 80.0157 124.002 78.5455 121.802C71.9103 112.114 61.2815 117.881 68.4315 100.96H79.1435Z" fill="#01664A"/>
<path opacity="0.6" d="M79.1435 100.96C79.1435 100.96 92.2371 117.46 89.7775 133.242C87.7963 145.987 76.3043 163.246 76.3043 163.246L70.9015 160.562C74.7097 152.932 77.9596 145.035 80.6255 136.934C81.4476 134.419 81.6876 131.75 81.3272 129.128C80.9669 126.507 80.0157 124.002 78.5455 121.802C71.9103 112.114 61.2815 117.881 68.4315 100.96H79.1435Z" fill="black"/>
<path opacity="0.4" d="M85.5658 111.558L83.6626 109.665C83.6626 109.816 87.3494 132.576 88.3842 138.972C88.9949 137.104 89.4625 135.191 89.783 133.252C90.9998 125.509 88.457 117.6 85.5658 111.558Z" fill="black"/>
<path d="M84.9885 100.96C84.9885 100.96 100.755 121.698 101.202 134.131C101.571 144.531 84.0421 164.681 84.0421 164.681L78.9461 161.384C78.9461 161.384 89.2057 147.074 91.7901 135.384C90.7917 123.798 69.6797 100.96 69.6797 100.96H84.9885Z" fill="#01664A"/>
<path opacity="0.6" d="M84.9885 100.96C84.9885 100.96 100.755 121.698 101.202 134.131C101.571 144.531 84.0421 164.681 84.0421 164.681L78.9461 161.384C78.9461 161.384 89.2057 147.074 91.7901 135.384C90.7917 123.798 69.6797 100.96 69.6797 100.96H84.9885Z" fill="black"/>
<path d="M65.4832 76.2132C63.7984 76.6136 62.1812 82.7392 62.1812 82.7392L68.7696 87.1384C68.7696 87.1384 70.964 82.292 70.1944 80.1704C69.3988 77.9604 67.5996 75.7088 65.4832 76.2132Z" fill="#01664A"/>
<path opacity="0.2" d="M66.773 80.16L66.3154 85.5004L68.7646 87.1436C69.4409 85.6211 69.9416 84.0265 70.257 82.3908L66.773 80.16Z" fill="black"/>
<path d="M86.9391 76.3327C86.9391 76.3327 88.8839 77.0139 84.9891 100.955H68.4219C68.7027 94.1947 68.7079 90.0347 65.4839 76.2131C67.8037 75.7351 70.155 75.4257 72.5195 75.2875C75.0244 75.1079 77.539 75.1079 80.0439 75.2875C83.2783 75.5839 86.9391 76.3327 86.9391 76.3327Z" fill="#01664A"/>
<path d="M88.6232 80.16C88.9976 81.2 89.3928 82.318 89.8088 83.3944C90.2248 84.4708 90.62 85.5784 91.0412 86.6704L92.3152 89.936L92.6376 90.7524L92.804 91.158L92.882 91.3608C92.882 91.3972 92.882 91.3972 92.882 91.392C92.787 91.2581 92.6625 91.1477 92.518 91.0696C92.3123 90.9486 92.0804 90.879 91.842 90.8668C91.644 90.8606 91.447 90.8979 91.2648 90.976C91.0256 91.0852 91.0256 91.132 91.0308 91.1268C91.0741 91.0921 91.1125 91.0519 91.1452 91.0072C91.4331 90.6293 91.6822 90.2234 91.8888 89.7956C92.1332 89.3172 92.3672 88.8076 92.6012 88.2928C93.0588 87.2528 93.48 86.1764 93.9012 85.0896C94.3224 84.0028 94.7228 82.9056 95.1128 81.798L96.2984 78.4804L98.3004 79.0004C97.9052 81.3716 97.3956 83.6804 96.782 86.0308C96.4856 87.2008 96.1372 88.3604 95.742 89.5304C95.5444 90.118 95.326 90.7004 95.0764 91.2984C94.8163 91.9474 94.496 92.5707 94.1196 93.16C93.9813 93.3584 93.8284 93.5461 93.662 93.7216C93.3965 94.0084 93.0742 94.2368 92.7156 94.3924C92.3975 94.529 92.0528 94.5929 91.7068 94.5796C91.3192 94.5652 90.9417 94.4524 90.6096 94.252C90.2179 94.0075 89.8928 93.6699 89.6632 93.2692C89.5852 93.134 89.5176 92.9988 89.4708 92.9L89.372 92.7024L89.1744 92.2968L88.7792 91.4908C88.2592 90.4092 87.7392 89.3172 87.2868 88.22C86.8344 87.1228 86.356 86.01 85.9088 84.892C85.4616 83.774 85.0612 82.656 84.6816 81.4496L88.6232 80.16Z" fill="#E58A7B"/>
<path d="M86.9384 76.3328C88.93 76.806 91.1712 82.6924 91.1712 82.6924L85.2484 87.7312C85.2484 87.7312 81.416 81.3144 82.1908 79.198C82.9968 76.9932 84.3384 75.714 86.9384 76.3328Z" fill="#01664A"/>
<path d="M97.2402 76.6188L99.3202 74.882L100.766 77.1336L99.6998 79.0108C99.6998 79.0108 98.0046 80.5708 96.507 79.7752C96.2693 79.2409 96.2123 78.6437 96.3446 78.0741C96.4769 77.5045 96.7914 76.9935 97.2402 76.6188Z" fill="#E58A7B"/>
<path d="M103.074 74.8872L102.918 75.454L99.6266 76.0052L99.3042 74.882L103.074 74.8872Z" fill="#E58A7B"/>
<path d="M84.4482 164.946L78.5098 161.108L79.5758 159.257L86.2474 163.36L84.4482 164.946Z" fill="#01664A"/>
<path d="M74.3598 168.004C73.8388 167.94 73.3381 167.762 72.8934 167.484C72.875 167.477 72.8591 167.465 72.8479 167.449C72.8366 167.434 72.8306 167.415 72.8306 167.395C72.8306 167.376 72.8366 167.357 72.8479 167.341C72.8591 167.325 72.875 167.313 72.8934 167.307C73.0546 167.255 74.4534 166.823 74.859 167.156C74.9046 167.194 74.9392 167.243 74.9593 167.299C74.9795 167.355 74.9843 167.415 74.9734 167.473C74.9662 167.567 74.9352 167.657 74.8833 167.735C74.8314 167.814 74.7604 167.877 74.677 167.92C74.5796 167.973 74.4707 168.002 74.3598 168.004ZM73.1898 167.432C73.8398 167.764 74.3598 167.884 74.6094 167.759C74.6638 167.729 74.7095 167.686 74.7423 167.633C74.775 167.58 74.7937 167.52 74.7966 167.458C74.7966 167.374 74.7966 167.338 74.7498 167.317C74.5314 167.14 73.7514 167.276 73.1794 167.432H73.1898Z" fill="#263238"/>
<path d="M72.9298 167.52C72.9024 167.52 72.8762 167.508 72.857 167.489C72.8493 167.474 72.8452 167.458 72.8452 167.442C72.8452 167.426 72.8493 167.41 72.857 167.395C72.857 167.348 73.195 166.22 73.7254 165.965C73.7932 165.934 73.8667 165.918 73.9412 165.918C74.0157 165.918 74.0893 165.934 74.157 165.965C74.23 165.988 74.2932 166.035 74.3366 166.098C74.3799 166.161 74.4009 166.237 74.3962 166.314C74.3598 166.782 73.4082 167.426 72.9714 167.536L72.9298 167.52ZM73.9386 166.1C73.888 166.102 73.8384 166.114 73.793 166.137C73.4706 166.293 73.2054 166.901 73.0754 167.27C73.533 167.078 74.1622 166.568 74.183 166.282C74.183 166.236 74.183 166.178 74.0634 166.126C74.0245 166.105 73.9823 166.091 73.9386 166.085V166.1Z" fill="#263238"/>
<path d="M81.7799 170.25C81.1923 170.25 80.3759 169.496 79.9287 169.033C79.9173 169.017 79.9111 168.998 79.9111 168.979C79.9111 168.959 79.9173 168.94 79.9287 168.924C79.939 168.907 79.9536 168.894 79.971 168.884C79.9883 168.875 80.0079 168.871 80.0275 168.872C80.2355 168.872 82.0399 169.142 82.2947 169.652C82.3217 169.698 82.3359 169.75 82.3359 169.803C82.3359 169.856 82.3217 169.908 82.2947 169.954C82.2565 170.033 82.1988 170.101 82.1269 170.152C82.055 170.203 81.9714 170.235 81.8839 170.245L81.7799 170.25ZM80.2719 169.106C80.9271 169.74 81.5043 170.094 81.8319 170.052C81.8893 170.045 81.9439 170.023 81.9911 169.99C82.0382 169.956 82.0764 169.912 82.1023 169.86C82.1139 169.842 82.1201 169.821 82.1201 169.8C82.1201 169.779 82.1139 169.758 82.1023 169.74C81.9671 169.46 81.0051 169.22 80.2719 169.106Z" fill="#263238"/>
<path d="M80.329 169.08C80.2123 169.083 80.0955 169.075 79.9806 169.054C79.9646 169.052 79.9494 169.045 79.9366 169.035C79.9239 169.025 79.9139 169.012 79.9078 168.997C79.9 168.981 79.896 168.965 79.896 168.947C79.896 168.93 79.9 168.913 79.9078 168.898C79.939 168.862 80.641 168.014 81.3066 167.957C81.495 167.942 81.6817 168.002 81.8266 168.123C82.0294 168.3 82.019 168.456 81.967 168.555C81.837 168.908 80.9374 169.08 80.329 169.08ZM80.1938 168.888C80.7762 168.919 81.707 168.726 81.8266 168.472C81.8266 168.472 81.8682 168.388 81.733 168.274C81.6792 168.227 81.6164 168.192 81.5484 168.17C81.4804 168.149 81.4087 168.142 81.3378 168.149C80.8894 168.274 80.4902 168.534 80.1938 168.893V168.888Z" fill="#263238"/>
<path d="M73.0707 166.958L68.6611 165.71C68.5851 165.687 68.5032 165.693 68.4313 165.727C68.3593 165.76 68.3022 165.819 68.2711 165.892L66.7839 169.236C66.7489 169.322 66.7325 169.414 66.7357 169.506C66.7389 169.599 66.7617 169.689 66.8025 169.772C66.8432 169.855 66.9011 169.929 66.9723 169.988C67.0435 170.047 67.1263 170.09 67.2155 170.115C68.7755 170.52 69.5243 170.635 71.4639 171.191C72.6599 171.524 74.3655 172.143 76.0139 172.611C77.6623 173.079 78.2135 171.472 77.5739 171.129C74.6827 169.6 74.4539 168.529 73.6635 167.385C73.5219 167.178 73.3121 167.027 73.0707 166.958Z" fill="#01664A"/>
<path d="M80.0487 168.425L76.2839 165.825C76.2201 165.778 76.1414 165.757 76.0628 165.765C75.9842 165.772 75.9112 165.808 75.8575 165.866L73.3615 168.55C73.3007 168.619 73.2553 168.7 73.2284 168.789C73.2015 168.877 73.1937 168.97 73.2055 169.061C73.2173 169.153 73.2485 169.241 73.2969 169.319C73.3453 169.398 73.4099 169.465 73.4863 169.517C74.8123 170.406 75.4987 170.765 77.1575 171.914C78.1975 172.621 80.2099 174.192 81.6139 175.169C83.0179 176.147 84.0631 174.805 83.5639 174.275C81.3279 171.888 80.8391 170.39 80.4699 169.033C80.4058 168.787 80.2566 168.571 80.0487 168.425Z" fill="#01664A"/>
<path d="M76.996 163.589L70.21 160.214L70.912 158.373L78.1608 161.93L76.996 163.589Z" fill="#01664A"/>
<path d="M68.1722 99.9824L67.6002 101.48C67.543 101.594 67.6782 101.714 67.8706 101.714H85.0722C85.223 101.714 85.3477 101.641 85.3581 101.548L85.5037 100.06C85.5037 99.9616 85.3842 99.8732 85.223 99.8732H68.4425C68.392 99.8684 68.3411 99.8758 68.2941 99.8948C68.247 99.9138 68.2052 99.9439 68.1722 99.9824Z" fill="#01664A"/>
<path opacity="0.4" d="M68.1722 99.9824L67.6002 101.48C67.543 101.594 67.6782 101.714 67.8706 101.714H85.0722C85.223 101.714 85.3477 101.641 85.3581 101.548L85.5037 100.06C85.5037 99.9616 85.3842 99.8732 85.223 99.8732H68.4425C68.392 99.8684 68.3411 99.8758 68.2941 99.8948C68.247 99.9138 68.2052 99.9439 68.1722 99.9824Z" fill="white"/>
<path d="M70.8808 101.86H70.4284C70.34 101.86 70.2724 101.813 70.2776 101.756L70.4908 99.8264C70.4908 99.7744 70.574 99.7276 70.6624 99.7276H71.1148C71.2032 99.7276 71.2708 99.7744 71.2656 99.8264L71.0524 101.756C71.0472 101.813 70.9692 101.86 70.8808 101.86Z" fill="#01664A"/>
<path d="M81.4889 101.86H81.0417C80.9533 101.86 80.8857 101.813 80.8909 101.756L81.0989 99.8264C81.0989 99.7744 81.1873 99.7276 81.2757 99.7276H81.7229C81.8113 99.7276 81.8841 99.7744 81.8737 99.8264L81.6657 101.756C81.6397 101.813 81.5825 101.86 81.4889 101.86Z" fill="#01664A"/>
<g style="mix-blend-mode:multiply">
<path d="M70.4855 189.922C78.1793 189.922 84.4163 189.47 84.4163 188.913C84.4163 188.356 78.1793 187.904 70.4855 187.904C62.7917 187.904 56.5547 188.356 56.5547 188.913C56.5547 189.47 62.7917 189.922 70.4855 189.922Z" fill="#F5F5F5"/>
</g>
<path d="M78.9722 187.488C76.5074 186.77 73.7722 185.85 72.1186 184.888C72.0718 184.857 72.0198 184.841 71.973 184.815V173.656H76.9598C77.3384 173.633 77.694 173.467 77.9541 173.191C78.2142 172.915 78.3591 172.551 78.3591 172.171C78.3591 171.792 78.2142 171.427 77.9541 171.151C77.694 170.875 77.3384 170.709 76.9598 170.687H71.999V119.82H69.0038V170.687H64.0482C63.8459 170.675 63.6432 170.704 63.4527 170.773C63.2621 170.843 63.0878 170.95 62.9402 171.089C62.7927 171.228 62.6752 171.396 62.5949 171.582C62.5145 171.768 62.4731 171.969 62.4731 172.171C62.4731 172.374 62.5145 172.575 62.5949 172.761C62.6752 172.947 62.7927 173.115 62.9402 173.254C63.0878 173.393 63.2621 173.5 63.4527 173.569C63.6432 173.638 63.8459 173.668 64.0482 173.656H69.0038V184.8C68.957 184.8 68.9102 184.841 68.8634 184.872C67.1838 185.85 64.4694 186.77 62.0046 187.472C61.8381 187.523 61.6951 187.631 61.6016 187.778C61.508 187.924 61.4701 188.1 61.4946 188.272C61.5191 188.444 61.6044 188.602 61.7352 188.716C61.866 188.831 62.0335 188.895 62.2074 188.897H78.7694C78.9356 188.886 79.0929 188.818 79.215 188.704C79.3372 188.591 79.4168 188.439 79.4405 188.274C79.4642 188.11 79.4307 187.942 79.3454 187.798C79.2602 187.655 79.1285 187.546 78.9722 187.488Z" fill="#E0E0E0"/>
<path d="M79.7366 114.641H61.2454C59.7577 114.641 58.5518 115.847 58.5518 117.335V122.831C58.5518 124.319 59.7577 125.525 61.2454 125.525H79.7366C81.2242 125.525 82.4302 124.319 82.4302 122.831V117.335C82.4302 115.847 81.2242 114.641 79.7366 114.641Z" fill="#01664A"/>
<path d="M61.0742 125.53V126.476C61.0742 127.256 61.9218 127.891 62.9618 127.891H78.0418C79.0818 127.891 79.9294 127.256 79.9294 126.476V125.53H61.0742Z" fill="#01664A"/>
<path opacity="0.3" d="M61.0742 125.53V126.476C61.0742 127.256 61.9218 127.891 62.9618 127.891H78.0418C79.0818 127.891 79.9294 127.256 79.9294 126.476V125.53H61.0742Z" fill="white"/>
</g>
<defs>
<clipPath id="clip0_352_7273">
<rect width="260" height="195" fill="white"/>
</clipPath>
</defs>
</svg>
