<svg width="262" height="195" viewBox="0 0 262 195" fill="none" xmlns="http://www.w3.org/2000/svg">
<g clip-path="url(#clip0_352_7453)">
<path d="M261.697 171.359H0.302734V171.49H261.697V171.359Z" fill="#EBEBEB"/>
<path d="M165.331 174.919H152.021V175.05H165.331V174.919Z" fill="#EBEBEB"/>
<path d="M238.401 177.748H206.861V177.878H238.401V177.748Z" fill="#EBEBEB"/>
<path d="M149.187 174.982H116.602V175.113H149.187V174.982Z" fill="#EBEBEB"/>
<path d="M95.471 178.893H88.6538V179.023H95.471V178.893Z" fill="#EBEBEB"/>
<path d="M133.138 178.893H102.095V179.023H133.138V178.893Z" fill="#EBEBEB"/>
<path d="M47.8292 176.686H27.728V176.817H47.8292V176.686Z" fill="#EBEBEB"/>
<path d="M124.203 148.043H23.2582C22.4674 148.041 21.7095 147.726 21.1508 147.167C20.5921 146.607 20.2783 145.848 20.2783 145.058V3.15728C20.2852 2.37102 20.602 1.61923 21.16 1.0652C21.7179 0.51117 22.4719 0.19965 23.2582 0.198303H124.203C124.995 0.198303 125.754 0.512806 126.314 1.07262C126.874 1.63244 127.189 2.39172 127.189 3.18342V145.058C127.189 145.849 126.874 146.609 126.314 147.169C125.754 147.728 124.995 148.043 124.203 148.043ZM23.2582 0.302861C22.5021 0.304246 21.7774 0.605589 21.2432 1.14075C20.709 1.67591 20.409 2.40115 20.409 3.15728V145.058C20.409 145.814 20.709 146.539 21.2432 147.074C21.7774 147.609 22.5021 147.911 23.2582 147.912H124.203C124.96 147.911 125.685 147.61 126.22 147.075C126.755 146.54 127.056 145.814 127.058 145.058V3.15728C127.056 2.40067 126.755 1.67544 126.22 1.14043C125.685 0.605419 124.96 0.304243 124.203 0.302861H23.2582Z" fill="#EBEBEB"/>
<path d="M237.288 148.043H136.338C135.546 148.041 134.788 147.727 134.228 147.167C133.669 146.608 133.354 145.849 133.353 145.058V3.15735C133.361 2.37061 133.679 1.61882 134.238 1.06493C134.796 0.511048 135.551 0.199696 136.338 0.198364H237.288C238.073 0.201085 238.826 0.513213 239.383 1.0671C239.94 1.62098 240.256 2.37199 240.263 3.15735V145.058C240.263 145.848 239.95 146.605 239.392 147.165C238.835 147.724 238.078 148.04 237.288 148.043ZM136.338 0.302922C135.581 0.304304 134.856 0.605481 134.321 1.14049C133.786 1.6755 133.485 2.40073 133.483 3.15735V145.058C133.485 145.814 133.786 146.54 134.321 147.075C134.856 147.61 135.581 147.911 136.338 147.912H237.288C238.045 147.911 238.77 147.61 239.305 147.075C239.84 146.54 240.141 145.814 240.142 145.058V3.15735C240.141 2.40073 239.84 1.6755 239.305 1.14049C238.77 0.605481 238.045 0.304304 237.288 0.302922H136.338Z" fill="#EBEBEB"/>
<path d="M102.748 126.018H68.0351L65.9282 101.708H100.641L102.748 126.018Z" fill="#E6E6E6"/>
<path d="M104.547 126.018H69.8339L67.7271 101.708H102.44L104.547 126.018Z" fill="#F0F0F0"/>
<path d="M74.5805 120.795L73.4199 106.926H97.693L98.8536 120.795H74.5805Z" fill="white"/>
<path d="M110.553 126.018H106.481V171.359H110.553V126.018Z" fill="#E6E6E6"/>
<path d="M111.84 126.018H109.011V171.359H111.84V126.018Z" fill="#F0F0F0"/>
<path d="M72.4164 131.021H111.84V126.018H72.4164V131.021Z" fill="#F0F0F0"/>
<path d="M73.8069 131.021H69.7344V171.359H73.8069V131.021Z" fill="#E6E6E6"/>
<path d="M75.0929 131.021H72.2646V171.359H75.0929V131.021Z" fill="#F0F0F0"/>
<path d="M44.8181 131.021H40.7456V171.359H44.8181V131.021Z" fill="#E6E6E6"/>
<path d="M46.1042 131.021H43.2759V171.359H46.1042V131.021Z" fill="#F0F0F0"/>
<path d="M84.78 131.021H80.7075V171.359H84.78V131.021Z" fill="#E6E6E6"/>
<path d="M86.0607 131.021H83.2324V171.359H86.0607V131.021Z" fill="#F0F0F0"/>
<path d="M72.4161 126.018H40.7456V131.021H72.4161V126.018Z" fill="#E6E6E6"/>
<path d="M190.514 12.9596H68.0088V81.1625H190.514V12.9596Z" fill="#E0E0E0"/>
<path d="M197.242 12.9596H68.626V81.1625H197.242V12.9596Z" fill="#F5F5F5"/>
<path d="M195.141 79.0609V15.0612L70.7275 15.0612V79.0609H195.141Z" fill="white"/>
<path d="M121.104 79.0609L144.592 15.0612H105.828L82.3389 79.0609H121.104Z" fill="#F5F5F5"/>
<path d="M158.415 79.0609L181.904 15.0612H152.659L129.17 79.0609H158.415Z" fill="#F5F5F5"/>
<path d="M229.342 106.22H218.928V171.359H229.342V106.22Z" fill="#E6E6E6"/>
<path d="M226.602 171.359H229.341V166.346H223.732L226.602 171.359Z" fill="#FAFAFA"/>
<path d="M133.326 106.22H122.912V171.359H133.326V106.22Z" fill="#E6E6E6"/>
<path d="M229.341 106.22H130.937V170.005H229.341V106.22Z" fill="#FAFAFA"/>
<path d="M227.481 126.802H132.804V108.787H227.481V126.802ZM133.326 126.279H226.958V109.309H133.326V126.279Z" fill="#E6E6E6"/>
<path d="M210.814 117.533H151.305C148.545 117.533 145.884 115.306 143.986 111.416L143.808 111.045H218.305L218.128 111.416C216.214 115.306 213.6 117.533 210.814 117.533ZM144.665 111.552C146.433 115.018 148.848 116.994 151.305 116.994H210.814C213.281 116.994 215.686 115.018 217.453 111.552H144.665Z" fill="#E6E6E6"/>
<path d="M133.676 171.359H130.937V166.346H136.547L133.676 171.359Z" fill="#FAFAFA"/>
<path d="M227.481 147.102H132.804V129.107H227.481V147.102ZM133.326 146.579H226.958V129.63H133.326V146.579Z" fill="#E6E6E6"/>
<path d="M210.814 137.854H151.305C148.545 137.854 145.884 135.621 143.986 131.737L143.808 131.361H218.305L218.128 131.737C216.214 135.6 213.6 137.854 210.814 137.854ZM144.665 131.883C146.433 135.35 148.848 137.331 151.305 137.331H210.814C213.281 137.331 215.686 135.35 217.453 131.883H144.665Z" fill="#E6E6E6"/>
<path d="M227.481 167.438H132.804V149.423H227.481V167.438ZM133.326 166.915H226.958V149.946H133.326V166.915Z" fill="#E6E6E6"/>
<path d="M210.814 158.169H151.305C148.545 158.169 145.884 155.942 143.986 152.058L143.808 151.681H218.305L218.128 152.058C216.214 155.942 213.6 158.169 210.814 158.169ZM144.665 152.204C146.433 155.67 148.848 157.646 151.305 157.646H210.814C213.281 157.646 215.686 155.67 217.453 152.204H144.665Z" fill="#E6E6E6"/>
<path d="M63.5498 114.835V116.1H62.7447L62.0755 126.018H52.2262L51.5623 116.1H50.752V114.835H63.5498Z" fill="#E6E6E6"/>
<path d="M60.3086 90.2277C59.5035 84.3202 51.531 82.6368 41.415 82.4172C31.7905 82.2134 28.7061 78.81 28.7061 78.81C28.7061 78.81 28.7374 92.5959 42.607 97.5938C55.776 102.33 61.1189 96.1457 60.3086 90.2277Z" fill="#E6E6E6"/>
<path d="M55.3941 103.616C55.5614 101.191 59.4405 96.726 68.7722 98.7544C75.5162 100.223 78.0256 96.726 78.0256 96.726C78.0256 96.726 77.3982 106.596 67.2562 109.56C57.6212 112.378 55.0961 107.893 55.3941 103.616Z" fill="#E6E6E6"/>
<path d="M57.5217 118.558C57.5743 118.558 57.6263 118.547 57.6741 118.525C57.722 118.504 57.7645 118.472 57.7988 118.432C58.4732 117.632 57.919 115.719 57.1558 113.068C56.1729 109.67 54.9496 105.436 55.9847 102.367C56.5585 100.746 57.2289 99.1607 57.9922 97.6199C59.456 94.525 60.7212 91.8692 59.6652 89.0566C59.6487 89.0118 59.6235 88.9708 59.5911 88.9359C59.5586 88.9009 59.5196 88.8727 59.4762 88.853C59.4328 88.8332 59.3859 88.8222 59.3383 88.8207C59.2906 88.8191 59.2431 88.8271 59.1986 88.844C59.154 88.8609 59.1132 88.8865 59.0786 88.9193C59.044 88.9521 59.0162 88.9914 58.9969 89.035C58.9776 89.0786 58.9671 89.1256 58.966 89.1733C58.965 89.221 58.9734 89.2684 58.9908 89.3128C59.937 91.8169 58.7921 94.2427 57.3388 97.3166C56.5657 98.8822 55.8849 100.492 55.2999 102.137C54.1968 105.42 55.4515 109.775 56.4605 113.267C57.0564 115.358 57.6733 117.449 57.2499 117.972C57.2163 118.008 57.1905 118.051 57.1743 118.097C57.1581 118.144 57.1518 118.193 57.1557 118.243C57.1596 118.292 57.1737 118.34 57.1972 118.383C57.2206 118.426 57.2528 118.464 57.2917 118.495C57.3585 118.542 57.44 118.565 57.5217 118.558Z" fill="#E6E6E6"/>
<path d="M210.385 62.5774C206.83 90.9229 181.997 119.221 154.687 137.446C84.1106 184.925 15.8815 104.359 33.0917 75.4223C46.0098 46.0729 86.3063 54.1343 103.449 42.5964C199.793 -22.7103 213.726 38.8532 210.385 62.5774Z" fill="#01664A"/>
<path opacity="0.9" d="M210.385 62.5774C206.83 90.9229 181.997 119.221 154.687 137.446C84.1106 184.925 15.8815 104.359 33.0917 75.4223C46.0098 46.0729 86.3063 54.1343 103.449 42.5964C199.793 -22.7103 213.726 38.8532 210.385 62.5774Z" fill="white"/>
<path d="M131 194.968C186.981 194.968 232.363 192.319 232.363 189.05C232.363 185.782 186.981 183.132 131 183.132C75.0182 183.132 29.6362 185.782 29.6362 189.05C29.6362 192.319 75.0182 194.968 131 194.968Z" fill="#F5F5F5"/>
<path d="M130.979 160.197H56.7427L52.6807 40.8083H126.917L130.979 160.197Z" fill="#01664A"/>
<path d="M134.685 156.491H60.4491L56.3818 37.1019H130.618L134.685 156.491Z" fill="#01664A"/>
<path opacity="0.3" d="M134.685 156.491H60.4491L56.3818 37.1019H130.618L134.685 156.491Z" fill="white"/>
<path d="M109.812 86.2303C117.761 78.1446 117.422 64.9231 109.057 56.6993C100.691 48.4754 87.4657 48.3635 79.5171 56.4492C71.5686 64.5348 71.9067 77.7563 80.2725 85.9802C88.6382 94.204 101.864 94.316 109.812 86.2303Z" fill="#01664A"/>
<path d="M111.902 71.3445C112.009 74.1893 111.388 77.0144 110.099 79.5523C108.707 82.2873 106.58 84.5803 103.957 86.1741C101.335 87.768 98.3201 88.5996 95.2514 88.5756C92.1105 88.5586 89.0293 87.716 86.3169 86.1322C83.6045 84.5485 81.3562 82.2793 79.7977 79.5523C78.3446 77.0534 77.5328 74.2335 77.4347 71.3445C77.3383 69.1044 77.6983 66.8681 78.4929 64.7714C79.2875 62.6747 80.5 60.7615 82.0568 59.1479C83.6137 57.5343 85.4823 56.2541 87.5493 55.385C89.6162 54.516 91.8382 54.0762 94.0803 54.0925C98.6993 54.1252 103.128 55.9359 106.447 59.1486C109.766 62.3613 111.719 66.729 111.902 71.3445Z" fill="white"/>
<path opacity="0.6" d="M110.088 79.5522C108.696 82.2872 106.569 84.5803 103.947 86.1741C101.324 87.768 98.3095 88.5995 95.2407 88.5756C92.0999 88.5586 89.0187 87.716 86.3062 86.1322C83.5938 84.5484 81.3456 82.2792 79.7871 79.5522C84.2084 76.5379 89.4401 74.9356 94.7911 74.9569C100.228 74.9687 105.544 76.5656 110.088 79.5522Z" fill="#01664A"/>
<path opacity="0.6" d="M100.036 70.9146C102.959 67.9414 102.834 63.0797 99.7582 60.0557C96.682 57.0318 91.8189 56.9906 88.8962 59.9638C85.9734 62.937 86.0977 67.7986 89.1739 70.8226C92.25 73.8466 97.1131 73.8878 100.036 70.9146Z" fill="#01664A"/>
<path d="M119.77 113.256H72.4161L72.0972 103.846H119.451L119.77 113.256Z" fill="white"/>
<path d="M120.345 130.074H72.9859L72.667 120.664H120.026L120.345 130.074Z" fill="white"/>
<path d="M102.068 121.961L90.6558 123.529C90.5469 123.542 90.4418 123.576 90.347 123.631C90.2522 123.686 90.1698 123.76 90.105 123.849C90.0402 123.937 89.9944 124.038 89.9704 124.145C89.9464 124.252 89.9449 124.363 89.9657 124.47L91.4662 132.119C91.5153 132.343 91.6466 132.541 91.8342 132.674C92.0219 132.806 92.2524 132.864 92.4804 132.835L103.893 131.266C104.001 131.253 104.106 131.217 104.2 131.161C104.295 131.105 104.376 131.031 104.44 130.942C104.505 130.853 104.55 130.752 104.574 130.645C104.597 130.538 104.599 130.428 104.578 130.32L103.083 122.672C103.033 122.448 102.902 122.25 102.714 122.119C102.526 121.987 102.296 121.931 102.068 121.961ZM98.7904 129.709L96.6993 129.986L96.4954 127.518C96.2799 127.425 96.09 127.281 95.9417 127.099C95.7934 126.917 95.691 126.702 95.6432 126.473C95.6048 126.294 95.6042 126.11 95.6414 125.932C95.6786 125.754 95.7529 125.585 95.8593 125.437C95.9657 125.29 96.102 125.166 96.2593 125.074C96.4166 124.982 96.5914 124.924 96.7725 124.904C97.1438 124.856 97.5195 124.95 97.8254 125.165C98.1313 125.381 98.3451 125.704 98.4245 126.07C98.4698 126.291 98.4559 126.52 98.3843 126.734C98.3127 126.948 98.1859 127.139 98.0167 127.288L98.7904 129.709Z" fill="#01664A"/>
<path d="M100.939 121.548C100.738 121.573 100.533 121.523 100.367 121.406C100.201 121.289 100.084 121.114 100.04 120.915L99.8937 120.168C99.6848 119.147 99.113 118.238 98.2843 117.607C97.4556 116.976 96.4263 116.668 95.3873 116.738C94.863 116.768 94.3513 116.91 93.8869 117.156C93.4225 117.401 93.0163 117.743 92.6959 118.159C92.3756 118.575 92.1485 119.055 92.0301 119.567C91.9118 120.079 91.905 120.61 92.0101 121.124L92.1774 121.987C92.1969 122.082 92.1962 122.181 92.1754 122.276C92.1545 122.372 92.114 122.462 92.0564 122.54C91.9989 122.619 91.9255 122.685 91.841 122.734C91.7565 122.782 91.6627 122.813 91.5657 122.823C91.3636 122.852 91.1583 122.802 90.9913 122.684C90.8244 122.567 90.7083 122.391 90.6665 122.191L90.5254 121.464C90.3818 120.785 90.3771 120.084 90.5114 119.403C90.6457 118.722 90.9163 118.075 91.307 117.501C91.6976 116.927 92.2003 116.438 92.7847 116.064C93.3691 115.689 94.0232 115.437 94.7077 115.321C96.1918 115.072 97.715 115.404 98.961 116.248C100.207 117.092 101.08 118.383 101.399 119.854L101.567 120.711C101.586 120.808 101.585 120.908 101.563 121.004C101.541 121.1 101.5 121.191 101.44 121.27C101.381 121.349 101.306 121.415 101.22 121.462C101.133 121.51 101.038 121.539 100.939 121.548Z" fill="#01664A"/>
<path d="M112.529 143.254H81.7005L81.4966 137.127H112.32L112.529 143.254Z" fill="#01664A"/>
<path d="M97.656 108.551C97.6653 108.775 97.629 108.998 97.5494 109.207C97.4699 109.416 97.3487 109.607 97.1933 109.767C97.0378 109.928 96.8513 110.056 96.6451 110.142C96.4389 110.229 96.2172 110.273 95.9936 110.271C95.5326 110.268 95.0906 110.087 94.7589 109.767C94.4271 109.447 94.231 109.012 94.2109 108.551C94.2017 108.328 94.2379 108.105 94.3175 107.896C94.397 107.687 94.5182 107.496 94.6736 107.335C94.8291 107.174 95.0156 107.047 95.2218 106.96C95.428 106.874 95.6497 106.83 95.8733 106.831C96.3347 106.834 96.7774 107.014 97.1094 107.334C97.4414 107.654 97.6372 108.09 97.656 108.551Z" fill="#263238"/>
<path d="M90.2221 108.551C90.2321 108.775 90.1963 108.998 90.1171 109.208C90.0378 109.417 89.9166 109.608 89.761 109.769C89.6054 109.93 89.4187 110.058 89.2121 110.144C89.0055 110.23 88.7835 110.274 88.5596 110.271C88.0992 110.268 87.6578 110.087 87.3269 109.767C86.996 109.447 86.8009 109.011 86.7822 108.551C86.773 108.328 86.8092 108.105 86.8888 107.896C86.9683 107.687 87.0895 107.496 87.2449 107.335C87.4004 107.174 87.5869 107.047 87.7931 106.96C87.9993 106.874 88.221 106.83 88.4446 106.831C88.9055 106.834 89.3476 107.014 89.6788 107.334C90.01 107.655 90.2046 108.091 90.2221 108.551Z" fill="#263238"/>
<path d="M82.8349 108.551C82.8441 108.775 82.8078 108.998 82.7283 109.207C82.6487 109.416 82.5276 109.607 82.3721 109.767C82.2167 109.928 82.0302 110.056 81.824 110.142C81.6178 110.229 81.3961 110.273 81.1724 110.271C80.7116 110.269 80.2695 110.089 79.9383 109.768C79.6071 109.448 79.4125 109.012 79.395 108.551C79.3857 108.328 79.422 108.105 79.5016 107.896C79.5811 107.687 79.7023 107.496 79.8577 107.335C80.0132 107.174 80.1997 107.047 80.4059 106.96C80.6121 106.874 80.8338 106.83 81.0574 106.831C81.5183 106.834 81.9604 107.014 82.2916 107.334C82.6227 107.655 82.8174 108.091 82.8349 108.551Z" fill="#263238"/>
<path d="M105.064 108.551C105.073 108.775 105.037 108.998 104.957 109.207C104.878 109.416 104.757 109.607 104.601 109.767C104.446 109.928 104.259 110.056 104.053 110.142C103.847 110.229 103.625 110.273 103.402 110.271C102.941 110.269 102.499 110.089 102.167 109.768C101.836 109.448 101.642 109.012 101.624 108.551C101.616 108.329 101.654 108.106 101.734 107.899C101.815 107.691 101.937 107.501 102.093 107.342C102.249 107.183 102.435 107.057 102.642 106.971C102.848 106.886 103.069 106.844 103.292 106.847C103.749 106.851 104.188 107.029 104.517 107.346C104.847 107.663 105.043 108.095 105.064 108.551Z" fill="#263238"/>
<path d="M112.472 108.551C112.482 108.775 112.446 108.998 112.367 109.208C112.287 109.417 112.166 109.608 112.011 109.769C111.855 109.93 111.668 110.058 111.462 110.144C111.255 110.23 111.033 110.274 110.809 110.271C110.349 110.268 109.907 110.087 109.576 109.767C109.246 109.447 109.05 109.011 109.032 108.551C109.022 108.328 109.059 108.105 109.138 107.896C109.218 107.687 109.339 107.496 109.494 107.335C109.65 107.174 109.836 107.047 110.043 106.96C110.249 106.874 110.47 106.83 110.694 106.831C111.155 106.834 111.597 107.014 111.928 107.334C112.259 107.655 112.454 108.091 112.472 108.551Z" fill="#263238"/>
<path d="M174.867 62.5565C175.562 63.6752 176.142 64.7417 176.738 65.8552C177.334 66.9688 177.873 68.0876 178.401 69.2325C179.478 71.5507 180.37 73.9509 181.067 76.4103C181.161 76.7188 181.229 77.0481 181.308 77.367L181.423 77.8532L181.48 78.0937L181.548 78.491C181.666 79.3924 181.611 80.3079 181.386 81.1886C181.025 82.5561 180.476 83.8668 179.755 85.0834C178.465 87.2942 176.905 89.3365 175.113 91.1634L172.912 89.501C174.016 87.4701 174.999 85.3752 175.855 83.2275C176.236 82.2812 176.505 81.2933 176.655 80.2842C176.703 79.9761 176.689 79.6614 176.613 79.3589L176.404 78.7211C176.32 78.4597 176.242 78.1983 176.142 77.9317C175.347 75.7749 174.427 73.6663 173.387 71.6164C172.342 69.5252 171.218 67.4341 170.094 65.437L174.867 62.5565Z" fill="#FF8B7B"/>
<path d="M173.471 88.7743L171.066 90.0447L173.826 93.2755C173.826 93.2755 175.551 92.1097 175.63 90.3322L173.471 88.7743Z" fill="#FF8B7B"/>
<path d="M167.84 92.0365L170.794 94.3838L173.826 93.2755L171.066 90.0447L167.84 92.0365Z" fill="#FF8B7B"/>
<path d="M157.74 45.4509C157.683 45.7436 157.479 45.9475 157.29 45.9109C157.102 45.8743 156.992 45.6025 157.05 45.3149C157.107 45.0274 157.311 44.7921 157.505 44.8549C157.698 44.9176 157.798 45.1581 157.74 45.4509Z" fill="#263238"/>
<path d="M157.505 45.9528C156.978 46.7716 156.342 47.514 155.612 48.1589C155.785 48.3374 155.993 48.4765 156.224 48.5668C156.455 48.657 156.703 48.6962 156.951 48.6817L157.505 45.9528Z" fill="#FF5652"/>
<path d="M156.564 56.2099V52.7804L161.102 53.3032C161.102 53.3032 161.029 56.2517 158.488 57.1195L156.564 56.2099Z" fill="#FF8B7B"/>
<path d="M157.871 50.3129L161.065 51.233L161.123 53.3294L156.585 52.7804L157.871 50.3129Z" fill="#FF8B7B"/>
<path opacity="0.2" d="M161.065 51.2329L157.871 50.3128L157.249 51.5048C157.282 52.444 157.576 53.3554 158.096 54.138C158.617 54.9205 159.344 55.5436 160.197 55.938C160.746 55.1714 161.067 54.2652 161.122 53.3241L161.065 51.2329Z" fill="black"/>
<path d="M159.131 44.055C159.164 44.0541 159.197 44.0437 159.225 44.0251C159.253 44.0065 159.275 43.9804 159.288 43.9498C159.302 43.9192 159.307 43.8853 159.302 43.8521C159.297 43.8189 159.283 43.7878 159.262 43.7622C159.078 43.5549 158.847 43.3945 158.589 43.2944C158.331 43.1944 158.052 43.1576 157.777 43.1872C157.732 43.1948 157.692 43.2201 157.665 43.2573C157.639 43.2946 157.628 43.3408 157.636 43.3858C157.643 43.4312 157.668 43.4718 157.705 43.4991C157.743 43.5264 157.789 43.5383 157.834 43.5322C158.052 43.5108 158.273 43.5419 158.476 43.6228C158.68 43.7037 158.861 43.8322 159.005 43.9975C159.021 44.015 159.041 44.029 159.062 44.0389C159.084 44.0488 159.107 44.0543 159.131 44.055Z" fill="#263238"/>
<path d="M165.812 50.7415C165.289 53.4338 164.965 57.1613 166.858 58.9545C166.858 58.9545 166.126 61.6834 161.107 61.6834C155.612 61.6834 158.467 59.289 158.467 59.289C160.751 58.5781 160.73 55.9798 160.208 53.8886L165.812 50.7415Z" fill="#FF8B7B"/>
<path d="M167.877 60.7529C168.368 60.0628 168.347 57.8723 167.825 57.4855C166.983 56.8633 163.371 56.717 158.514 57.8357C159.037 59.9582 157.913 61.0665 157.913 61.0665L167.877 60.7529Z" fill="#01664A"/>
<path d="M184.219 184.868C184.07 184.921 183.912 184.943 183.754 184.934C183.596 184.925 183.442 184.885 183.299 184.816C183.245 184.766 183.208 184.7 183.193 184.628C183.178 184.556 183.186 184.481 183.216 184.413C183.232 184.357 183.261 184.304 183.3 184.26C183.339 184.216 183.387 184.181 183.441 184.157C183.937 183.917 185.077 184.382 185.129 184.403C185.145 184.409 185.158 184.42 185.167 184.434C185.177 184.448 185.182 184.464 185.181 184.481C185.181 184.498 185.177 184.514 185.169 184.529C185.16 184.544 185.149 184.556 185.134 184.565C184.84 184.694 184.533 184.796 184.219 184.868ZM183.618 184.277C183.584 184.285 183.55 184.298 183.519 184.314C183.486 184.326 183.457 184.345 183.433 184.371C183.41 184.396 183.393 184.427 183.383 184.46C183.336 184.617 183.383 184.669 183.414 184.685C183.613 184.852 184.345 184.685 184.863 184.492C184.469 184.329 184.044 184.256 183.618 184.277Z" fill="#01664A"/>
<path d="M185.114 184.57H185.072C184.654 184.45 183.765 183.817 183.754 183.404C183.754 183.339 183.776 183.275 183.817 183.223C183.858 183.172 183.915 183.136 183.979 183.122C184.041 183.099 184.108 183.089 184.174 183.095C184.239 183.1 184.303 183.12 184.361 183.153C184.852 183.404 185.166 184.418 185.176 184.465C185.184 184.478 185.188 184.493 185.188 184.507C185.188 184.522 185.184 184.536 185.176 184.549C185.168 184.557 185.158 184.563 185.148 184.567C185.137 184.571 185.125 184.572 185.114 184.57ZM184.068 183.268H184.026C183.922 183.305 183.922 183.357 183.922 183.383C183.922 183.629 184.518 184.126 184.967 184.324C184.857 184.032 184.617 183.451 184.298 183.279C184.227 183.247 184.147 183.243 184.073 183.268H184.068Z" fill="#01664A"/>
<path d="M157.066 185.485C156.595 185.485 156.14 185.417 155.989 185.208C155.949 185.152 155.928 185.085 155.928 185.017C155.928 184.949 155.949 184.882 155.989 184.826C156.018 184.775 156.058 184.731 156.106 184.696C156.154 184.661 156.208 184.636 156.266 184.622C156.877 184.455 158.163 185.187 158.216 185.218C158.232 185.226 158.245 185.239 158.252 185.255C158.26 185.272 158.262 185.29 158.258 185.307C158.256 185.325 158.248 185.342 158.236 185.355C158.223 185.368 158.207 185.377 158.19 185.38C157.819 185.448 157.443 185.483 157.066 185.485ZM156.485 184.769C156.43 184.76 156.373 184.76 156.318 184.769C156.283 184.776 156.249 184.79 156.219 184.811C156.19 184.832 156.165 184.858 156.145 184.889C156.083 184.999 156.109 185.051 156.145 185.082C156.318 185.323 157.243 185.328 157.928 185.229C157.481 184.984 156.991 184.828 156.485 184.769Z" fill="#01664A"/>
<path d="M158.185 185.38H158.148C157.704 185.182 156.825 184.387 156.893 183.969C156.893 183.87 156.977 183.749 157.218 183.728C157.303 183.718 157.391 183.726 157.473 183.751C157.556 183.776 157.633 183.819 157.698 183.875C158.033 184.275 158.235 184.771 158.274 185.292C158.273 185.306 158.27 185.321 158.264 185.335C158.257 185.348 158.248 185.36 158.237 185.37C158.221 185.378 158.203 185.382 158.185 185.38ZM157.285 183.89H157.233C157.076 183.89 157.066 183.964 157.066 183.985C157.024 184.235 157.62 184.863 158.075 185.135C158.035 184.715 157.865 184.319 157.589 184C157.503 183.927 157.393 183.888 157.28 183.89H157.285Z" fill="#01664A"/>
<path d="M162.22 185.297H158.545L158.179 176.78H161.854L162.22 185.297Z" fill="#FF8B7B"/>
<path d="M189.212 183.592L185.621 184.371L182.008 176.441L185.605 175.662L189.212 183.592Z" fill="#FF8B7B"/>
<path d="M185.27 184.011L189.311 183.138C189.382 183.123 189.456 183.132 189.52 183.164C189.585 183.197 189.636 183.25 189.667 183.315L191.068 186.358C191.105 186.432 191.125 186.513 191.124 186.596C191.124 186.678 191.104 186.76 191.067 186.833C191.029 186.906 190.974 186.97 190.907 187.018C190.84 187.066 190.763 187.098 190.681 187.111C189.27 187.388 188.564 187.456 186.792 187.837C185.699 188.078 183.231 188.679 181.72 189.003C180.21 189.327 179.692 187.879 180.283 187.613C182.923 186.405 184.021 185.344 184.737 184.356C184.867 184.179 185.056 184.056 185.27 184.011Z" fill="#263238"/>
<path d="M158.572 184.868H162.587C162.66 184.869 162.73 184.894 162.787 184.939C162.844 184.985 162.884 185.048 162.9 185.119L163.627 188.386C163.648 188.465 163.651 188.548 163.634 188.628C163.618 188.708 163.583 188.784 163.532 188.848C163.481 188.912 163.416 188.963 163.341 188.997C163.267 189.032 163.186 189.048 163.104 189.045C161.656 189.019 159.565 188.935 157.746 188.935C155.613 188.935 153.778 189.05 151.279 189.05C149.768 189.05 149.35 187.524 149.982 187.383C152.858 186.755 155.21 186.687 157.693 185.156C157.954 184.981 158.258 184.881 158.572 184.868Z" fill="#263238"/>
<path d="M173.434 59.7961C176.879 60.5855 179.708 69.3841 179.708 69.3841L172.823 74.6485C171.035 72.7378 169.775 70.3961 169.163 67.8523C167.945 63.2413 169.911 58.9806 173.434 59.7961Z" fill="#01664A"/>
<path opacity="0.4" d="M173.434 59.7961C176.879 60.5855 179.708 69.3841 179.708 69.3841L172.823 74.6485C171.035 72.7378 169.775 70.3961 169.163 67.8523C167.945 63.2413 169.911 58.9806 173.434 59.7961Z" fill="black"/>
<path d="M155.309 70.2885C154.452 71.2138 153.595 72.0398 152.695 72.9024C152.251 73.3207 151.801 73.7389 151.341 74.1414L150.646 74.7531L150.473 74.9047L150.175 75.1452C149.869 75.3902 149.529 75.5908 149.167 75.7412C148.763 75.9125 148.329 76.0013 147.891 76.0026C147.516 76.0042 147.145 75.9386 146.793 75.8091C146.403 75.6607 146.048 75.4348 145.747 75.1452C145.364 74.7709 145.084 74.3047 144.932 73.7912C144.853 73.538 144.802 73.2767 144.78 73.0122C144.753 72.7026 144.753 72.3912 144.78 72.0817C144.806 71.8307 144.838 71.6112 144.88 71.4073C145.023 70.6944 145.226 69.9949 145.486 69.3161C145.721 68.6709 145.992 68.0391 146.296 67.4236C146.631 66.7597 146.95 66.2735 147.269 65.7193C148.564 63.5974 150.042 61.5928 151.686 59.7282C153.314 57.8746 155.108 56.1737 157.045 54.6467L158.969 56.628C157.62 58.4369 156.292 60.3764 155.064 62.2846C153.841 64.182 152.724 66.1454 151.718 68.166C151.493 68.6574 151.195 69.2116 151.054 69.6089C150.867 70.0704 150.704 70.5416 150.568 71.0204C150.436 71.4516 150.336 71.8919 150.27 72.3378C150.266 72.4075 150.266 72.4773 150.27 72.5469C150.27 72.5888 150.27 72.6097 150.27 72.4999C150.261 72.3825 150.238 72.2667 150.202 72.1548C150.089 71.7842 149.881 71.4492 149.6 71.1825C149.35 70.9528 149.057 70.775 148.738 70.6597C148.457 70.5533 148.16 70.4985 147.86 70.4976C147.571 70.4941 147.285 70.5493 147.018 70.6597C146.928 70.6965 146.84 70.7402 146.756 70.7904L146.955 70.6074L147.588 70.0323L148.837 68.8613C149.663 68.0823 150.494 67.2511 151.279 66.4774L155.309 70.2885Z" fill="#FF8B7B"/>
<path opacity="0.2" d="M170.481 66.2578C172.352 68.1085 172.964 71.4857 173.095 74.4133L172.791 74.6486C171.004 72.7378 169.743 70.3961 169.132 67.8523C169.064 67.5805 169.001 67.3295 168.954 67.0315L170.481 66.2578Z" fill="black"/>
<path d="M151.655 63.4557C150.902 67.4289 150.432 75.5896 152.612 91.7438H172.3C172.436 88.7273 170.538 73.9951 173.45 59.77C171.274 59.3523 169.074 59.0746 166.863 58.9388C164.077 58.779 161.284 58.779 158.498 58.9388C157.578 59.0224 156.669 59.1584 155.884 59.2995C154.842 59.4825 153.879 59.9778 153.124 60.72C152.368 61.4621 151.856 62.4161 151.655 63.4557Z" fill="#01664A"/>
<path opacity="0.4" d="M151.655 63.4557C150.902 67.4289 150.432 75.5896 152.612 91.7438H172.3C172.436 88.7273 170.538 73.9951 173.45 59.77C171.274 59.3523 169.074 59.0746 166.863 58.9388C164.077 58.779 161.284 58.779 158.498 58.9388C157.578 59.0224 156.669 59.1584 155.884 59.2995C154.842 59.4825 153.879 59.9778 153.124 60.72C152.368 61.4621 151.856 62.4161 151.655 63.4557Z" fill="black"/>
<path opacity="0.2" d="M154.666 69.3475L151.111 68.4954C151.001 70.6492 150.991 73.3155 151.148 76.6143C152.784 74.7531 154.875 71.8464 154.666 69.3475Z" fill="black"/>
<path opacity="0.2" d="M158.179 176.78L158.367 181.172H162.048L161.86 176.78H158.179Z" fill="black"/>
<path opacity="0.2" d="M185.605 175.662L182.008 176.441L183.869 180.529L187.466 179.75L185.605 175.662Z" fill="black"/>
<path d="M167.558 46.8101C166.617 50.3337 166.241 52.4458 164.066 53.9096C160.799 56.1367 156.721 53.5855 156.616 49.8632C156.501 46.5017 158.064 41.2999 161.844 40.5889C162.675 40.4331 163.531 40.4912 164.333 40.758C165.135 41.0248 165.856 41.4914 166.428 42.1138C166.999 42.7362 167.403 43.494 167.601 44.3156C167.799 45.1372 167.784 45.9957 167.558 46.8101Z" fill="#FF8B7B"/>
<path d="M159.308 46.9408C159.131 46.4703 158.32 42.8265 159.084 41.8802C159.847 40.934 168.551 41.6188 169.837 42.884C171.976 44.9751 170.491 46.8572 168.154 49.2777C166.397 51.097 166.329 53.1463 165.441 53.46C163.872 53.9828 161.478 53.4914 160.997 51.8341C160.516 50.1769 159.308 46.9408 159.308 46.9408Z" fill="#263238"/>
<path d="M168.781 38.7382C165.707 37.4313 159.941 38.8794 156.825 38.1266C156.785 39.2852 157.166 40.419 157.898 41.3184C158.629 42.2179 159.661 42.8223 160.804 43.0199C163.388 43.5125 166.014 43.7558 168.645 43.7466C172.064 43.5897 171.395 39.8518 168.781 38.7382Z" fill="#263238"/>
<path d="M169.262 42.9938C170.385 43.1043 171.516 42.8882 172.519 42.3716C173.094 43.7623 169.931 44.1439 169.262 42.9938Z" fill="#263238"/>
<path d="M160.982 47.0872C160.911 47.9938 160.543 48.8519 159.936 49.5286C159.131 50.4121 158.294 49.858 158.153 48.7862C158.028 47.8139 158.289 46.1723 159.272 45.7018C160.255 45.2313 161.049 45.9946 160.982 47.0872Z" fill="#FF8B7B"/>
<path d="M159.591 91.7594C159.591 91.7594 163.773 119.859 166.058 130.388C168.562 141.916 182.018 180.053 182.018 180.053L188.6 178.626C188.6 178.626 179.19 147.541 177.099 131.423C175.478 119.044 172.295 91.749 172.295 91.749L159.591 91.7594Z" fill="#01664A"/>
<path d="M180.44 177.863C180.414 177.863 181.668 180.247 181.668 180.247L189.071 178.642L188.449 176.415L180.44 177.863Z" fill="#263238"/>
<path opacity="0.3" d="M162.231 101.771C167.056 102.717 166.544 120.711 165.964 129.97C164.573 123.425 162.534 110.836 161.144 101.901C161.48 101.735 161.864 101.689 162.231 101.771Z" fill="black"/>
<path d="M152.612 91.7594C152.612 91.7594 152.089 119.253 152.507 130.446C152.926 142.109 156.998 180.299 156.998 180.299H163.23C163.23 180.299 163.455 142.789 163.753 131.334C164.056 118.85 165.561 91.7385 165.561 91.7385L152.612 91.7594Z" fill="#01664A"/>
<path d="M155.801 177.842C155.769 177.842 156.151 180.424 156.151 180.424H163.726L163.935 178.119L155.801 177.842Z" fill="#263238"/>
<path d="M159.361 64.6791C161.123 69.4312 150.766 75.0303 150.766 75.0303L146.281 69.2796C146.281 69.2796 149.297 63.3094 152.957 60.6222C157.479 57.3078 158.017 61.0614 159.361 64.6791Z" fill="#01664A"/>
<path opacity="0.4" d="M159.361 64.6791C161.123 69.4312 150.766 75.0303 150.766 75.0303L146.281 69.2796C146.281 69.2796 149.297 63.3094 152.957 60.6222C157.479 57.3078 158.017 61.0614 159.361 64.6791Z" fill="black"/>
<path d="M199.94 28.6014C210.36 28.6014 218.807 23.218 218.807 16.5772C218.807 9.93649 210.36 4.5531 199.94 4.5531C189.519 4.5531 181.072 9.93649 181.072 16.5772C181.072 23.218 189.519 28.6014 199.94 28.6014Z" fill="#01664A"/>
<path d="M193.133 22.6311C191.89 22.6271 190.688 22.1852 189.739 21.383C188.789 20.5809 188.153 19.4697 187.941 18.2449C187.733 16.9182 188.033 15.5619 188.78 14.4459C189.527 13.3298 190.666 12.536 191.972 12.2224C193.044 11.9755 194.166 12.0707 195.18 12.4945C196.195 12.9184 197.051 13.6496 197.629 14.5854L209.742 12.0865C210.207 11.9845 210.694 12.0619 211.105 12.3033C211.516 12.5446 211.821 12.932 211.958 13.3882C212.022 13.6281 212.036 13.8783 211.999 14.1237C211.962 14.3691 211.876 14.6044 211.745 14.8153C211.615 15.0262 211.442 15.2082 211.239 15.3503C211.036 15.4923 210.805 15.5914 210.562 15.6414L210.249 15.7042C210.202 15.7125 210.158 15.7315 210.12 15.7596C210.082 15.7877 210.051 15.8242 210.029 15.8662C210.01 15.9089 210 15.9553 210 16.0022C210 16.0491 210.01 16.0954 210.029 16.1381L210.244 16.6923C210.315 16.8719 210.322 17.0709 210.263 17.2551C210.204 17.4393 210.082 17.597 209.919 17.7012C209.791 17.7806 209.682 17.8883 209.602 18.016C209.521 18.1438 209.471 18.2882 209.454 18.4384C209.439 18.6107 209.369 18.7738 209.256 18.9043C209.142 19.0348 208.99 19.1261 208.822 19.165L208.576 19.2173C208.406 19.2488 208.23 19.2252 208.074 19.15C207.918 19.0748 207.79 18.9519 207.708 18.7991C207.6 18.6167 207.437 18.4728 207.243 18.3873C207.048 18.3019 206.832 18.2791 206.625 18.3223C206.417 18.3655 206.228 18.4724 206.084 18.6281C205.94 18.7839 205.848 18.9807 205.821 19.1912C205.806 19.3624 205.738 19.5246 205.625 19.6543C205.512 19.784 205.361 19.8744 205.193 19.9126L204.948 19.9649C204.777 19.9956 204.602 19.9716 204.446 19.8965C204.29 19.8214 204.162 19.699 204.08 19.5467C204.002 19.417 203.896 19.3059 203.771 19.2211C203.645 19.1362 203.503 19.0796 203.353 19.0553C203.152 19.0311 202.967 18.9343 202.832 18.7832C202.697 18.6321 202.622 18.437 202.621 18.2345V17.6385C202.619 17.5919 202.607 17.5463 202.586 17.5048C202.564 17.4633 202.534 17.4269 202.497 17.3981C202.461 17.3693 202.418 17.3488 202.373 17.338C202.327 17.3271 202.28 17.3262 202.234 17.3353L198.371 18.1299C198.213 19.2003 197.73 20.196 196.986 20.9818C196.243 21.7676 195.275 22.3051 194.215 22.5213C193.859 22.5942 193.496 22.6309 193.133 22.6311ZM192.087 12.6982C190.901 12.9751 189.865 13.6911 189.186 14.7019C188.507 15.7126 188.236 16.9431 188.428 18.1456C188.633 19.2643 189.232 20.2725 190.117 20.9878C191.001 21.703 192.112 22.0782 193.249 22.0453C194.386 22.0125 195.474 21.5738 196.316 20.8087C197.157 20.0435 197.697 19.0025 197.838 17.8738V17.6855L202.099 16.823C202.221 16.7934 202.348 16.7914 202.471 16.8172C202.594 16.8429 202.71 16.8957 202.81 16.9718C202.91 17.0479 202.992 17.1454 203.05 17.2571C203.108 17.3687 203.14 17.4919 203.144 17.6176V18.2136C203.145 18.2845 203.171 18.3529 203.217 18.4072C203.262 18.4615 203.325 18.4983 203.395 18.5116C203.624 18.5443 203.842 18.6286 204.033 18.7581C204.224 18.8877 204.383 19.059 204.498 19.2591C204.526 19.3156 204.57 19.362 204.626 19.3919C204.681 19.4219 204.744 19.434 204.807 19.4264L205.047 19.3742C205.108 19.3585 205.162 19.3235 205.202 19.2746C205.241 19.2256 205.264 19.1652 205.267 19.1023C205.3 18.7769 205.435 18.4703 205.654 18.227C205.872 17.9837 206.163 17.8161 206.483 17.7486C206.803 17.6811 207.136 17.7171 207.434 17.8515C207.733 17.9858 207.98 18.2115 208.142 18.4959C208.169 18.5519 208.212 18.5981 208.267 18.6281C208.321 18.6581 208.384 18.6703 208.445 18.6632L208.696 18.6109C208.756 18.5942 208.809 18.5589 208.848 18.51C208.886 18.4611 208.908 18.4012 208.91 18.339C208.936 18.1095 209.014 17.8889 209.138 17.6941C209.263 17.4993 209.43 17.3355 209.627 17.215C209.684 17.1735 209.726 17.1139 209.746 17.0457C209.766 16.9775 209.763 16.9046 209.736 16.8386L209.522 16.2845C209.478 16.1702 209.459 16.0477 209.467 15.9254C209.475 15.8031 209.509 15.6841 209.568 15.5765C209.627 15.469 209.708 15.3756 209.807 15.3028C209.906 15.23 210.019 15.1797 210.139 15.1553L210.458 15.0873C210.63 15.0505 210.794 14.9793 210.938 14.8779C211.083 14.7765 211.205 14.647 211.298 14.4971C211.392 14.3473 211.454 14.1802 211.481 14.0058C211.508 13.8315 211.5 13.6534 211.456 13.4823C211.354 13.1533 211.132 12.8751 210.833 12.7035C210.534 12.5318 210.182 12.4795 209.846 12.557L197.393 15.1448L197.299 14.9827C196.799 14.092 196.022 13.3884 195.087 12.9781C194.151 12.5679 193.107 12.4733 192.113 12.7086L192.087 12.6982ZM193.133 20.6864C192.483 20.6936 191.846 20.512 191.298 20.1636C190.649 19.738 190.169 19.1007 189.938 18.3604C189.707 17.6201 189.74 16.8226 190.031 16.1038C190.322 15.3851 190.854 14.7896 191.535 14.4189C192.216 14.0482 193.005 13.9252 193.766 14.0708C194.528 14.2165 195.216 14.6219 195.712 15.2178C196.208 15.8137 196.482 16.5633 196.488 17.3388C196.493 18.1143 196.23 18.8677 195.742 19.4705C195.254 20.0733 194.572 20.4882 193.812 20.6445C193.59 20.6848 193.364 20.7023 193.138 20.6968L193.133 20.6864ZM193.133 14.5122C192.938 14.5133 192.744 14.5326 192.552 14.5697C192.188 14.6473 191.843 14.7959 191.536 15.0069C191.229 15.218 190.967 15.4874 190.764 15.7998C190.562 16.1122 190.423 16.4614 190.355 16.8276C190.287 17.1937 190.292 17.5697 190.37 17.9339C190.447 18.2981 190.596 18.6434 190.807 18.9502C191.018 19.257 191.287 19.5193 191.6 19.7219C191.912 19.9246 192.261 20.0638 192.628 20.1315C192.994 20.1992 193.37 20.1941 193.734 20.1165C194.281 20.0027 194.781 19.7296 195.173 19.3315C195.565 18.9335 195.83 18.4284 195.935 17.8799C196.04 17.3314 195.981 16.7641 195.764 16.2494C195.547 15.7348 195.183 15.2959 194.717 14.988C194.254 14.6802 193.709 14.5181 193.154 14.5227L193.133 14.5122Z" fill="white"/>
<path opacity="0.6" d="M184.585 35.6538C188.009 35.6538 190.785 33.8843 190.785 31.7015C190.785 29.5187 188.009 27.7492 184.585 27.7492C181.161 27.7492 178.385 29.5187 178.385 31.7015C178.385 33.8843 181.161 35.6538 184.585 35.6538Z" fill="#01664A"/>
<path opacity="0.3" d="M174.72 37.2744C176.126 37.2744 177.266 36.5488 177.266 35.6537C177.266 34.7587 176.126 34.0331 174.72 34.0331C173.314 34.0331 172.174 34.7587 172.174 35.6537C172.174 36.5488 173.314 37.2744 174.72 37.2744Z" fill="#01664A"/>
</g>
<defs>
<clipPath id="clip0_352_7453">
<rect width="261.394" height="195" fill="white" transform="translate(0.302734)"/>
</clipPath>
</defs>
</svg>
