<svg width="54" height="55" viewBox="0 0 54 55" fill="none" xmlns="http://www.w3.org/2000/svg">
<rect y="0.5" width="54" height="54" rx="12" fill="#01664A" fill-opacity="0.2"/>
<path d="M30.9702 38.25H22.9702C19.5502 38.25 18.2202 36.92 18.2202 33.5V25.5C18.2202 25.09 18.5602 24.75 18.9702 24.75H34.9702C35.3802 24.75 35.7202 25.09 35.7202 25.5V33.5C35.7202 36.92 34.3902 38.25 30.9702 38.25ZM19.7202 26.25V33.5C19.7202 36.08 20.3902 36.75 22.9702 36.75H30.9702C33.5502 36.75 34.2202 36.08 34.2202 33.5V26.25H19.7202Z" fill="#01664A"/>
<path d="M34.5 26.25H19.5C17.75 26.25 16.75 25.25 16.75 23.5V22.5C16.75 20.75 17.75 19.75 19.5 19.75H34.5C36.2 19.75 37.25 20.8 37.25 22.5V23.5C37.25 25.2 36.2 26.25 34.5 26.25ZM19.5 21.25C18.59 21.25 18.25 21.59 18.25 22.5V23.5C18.25 24.41 18.59 24.75 19.5 24.75H34.5C35.38 24.75 35.75 24.38 35.75 23.5V22.5C35.75 21.62 35.38 21.25 34.5 21.25H19.5Z" fill="#01664A"/>
<path d="M26.6401 21.2499H21.1201C20.9101 21.2499 20.7101 21.1599 20.5701 21.0099C19.9601 20.3399 19.9801 19.3099 20.6201 18.6699L22.0401 17.2499C22.7001 16.5899 23.7901 16.5899 24.4501 17.2499L27.1701 19.9699C27.3801 20.1799 27.4501 20.5099 27.3301 20.7899C27.2201 21.0699 26.9501 21.2499 26.6401 21.2499ZM21.6701 19.7499H24.8401L23.3901 18.3099C23.3101 18.2299 23.1801 18.2299 23.1001 18.3099L21.6801 19.7299C21.6801 19.7399 21.6701 19.7399 21.6701 19.7499Z" fill="#01664A"/>
<path d="M32.8701 21.2499H27.3501C27.0501 21.2499 26.7701 21.0699 26.6601 20.7899C26.5401 20.5099 26.6101 20.1899 26.8201 19.9699L29.5401 17.2499C30.2001 16.5899 31.2901 16.5899 31.9501 17.2499L33.3701 18.6699C34.0101 19.3099 34.0401 20.3399 33.4201 21.0099C33.2801 21.1599 33.0801 21.2499 32.8701 21.2499ZM29.1701 19.7499H32.3401C32.3301 19.7399 32.3301 19.7399 32.3201 19.7299L30.9001 18.3099C30.8201 18.2299 30.6901 18.2299 30.6101 18.3099L29.1701 19.7499Z" fill="#01664A"/>
<path d="M24.9399 32.4C24.6599 32.4 24.3699 32.33 24.1099 32.19C23.5399 31.88 23.1899 31.29 23.1899 30.65V25.5C23.1899 25.09 23.5299 24.75 23.9399 24.75H29.9799C30.3899 24.75 30.7299 25.09 30.7299 25.5V30.63C30.7299 31.28 30.3799 31.87 29.8099 32.17C29.2399 32.48 28.5499 32.44 28.0099 32.08L27.1199 31.48C27.0399 31.42 26.9299 31.42 26.8399 31.48L25.8999 32.1C25.6099 32.3 25.2699 32.4 24.9399 32.4ZM24.6899 26.25V30.64C24.6899 30.77 24.7699 30.83 24.8199 30.86C24.8699 30.89 24.9699 30.92 25.0799 30.85L26.0199 30.23C26.6099 29.84 27.3699 29.84 27.9499 30.23L28.8399 30.83C28.9499 30.9 29.0499 30.87 29.0999 30.84C29.1499 30.81 29.2299 30.75 29.2299 30.62V26.24H24.6899V26.25Z" fill="#01664A"/>
</svg>
