<svg width="28" height="28" viewBox="0 0 28 28" fill="none" xmlns="http://www.w3.org/2000/svg">
<path d="M14.0116 26.53C13.2766 26.53 12.5532 26.285 11.9816 25.795L10.1382 24.22C9.95156 24.0566 9.48489 23.8933 9.23989 23.8933H7.19823C5.47156 23.8933 4.07156 22.4933 4.07156 20.7666V18.7716C4.07156 18.5266 3.90823 18.06 3.75656 17.885L2.16989 16.0183C1.21323 14.8866 1.21323 13.1133 2.16989 11.97L3.75656 10.1033C3.90823 9.92829 4.07156 9.46162 4.07156 9.21662V7.23329C4.07156 5.50662 5.47156 4.10662 7.19823 4.10662H9.21656C9.46156 4.10662 9.91656 3.93162 10.1149 3.76829L11.9582 2.19329C13.1016 1.22496 14.8866 1.22496 16.0299 2.19329L17.8732 3.76829C18.0599 3.93162 18.5382 4.09496 18.7832 4.09496H20.7666C22.4932 4.09496 23.8932 5.49496 23.8932 7.22162V9.20496C23.8932 9.44996 24.0682 9.90496 24.2316 10.1033L25.8066 11.9466C26.7866 13.1016 26.7749 14.8866 25.8066 16.0183L24.2316 17.8616C24.0682 18.06 23.9049 18.515 23.9049 18.76V20.7433C23.9049 22.47 22.5049 23.87 20.7782 23.87H18.7949C18.5499 23.87 18.0949 24.045 17.8849 24.2083L16.0416 25.7833C15.4699 26.285 14.7349 26.53 14.0116 26.53ZM7.19823 5.85662C6.43989 5.85662 5.82156 6.47496 5.82156 7.23329V9.21662C5.82156 9.88163 5.51823 10.7216 5.08656 11.235L3.49989 13.1016C3.10323 13.58 3.10323 14.42 3.49989 14.8866L5.07489 16.7416C5.49489 17.22 5.80989 18.095 5.80989 18.76V20.755C5.80989 21.5133 6.42823 22.1316 7.18656 22.1316H9.21656C9.86989 22.1316 10.7332 22.4466 11.2466 22.8783L13.1016 24.465C13.5799 24.8733 14.4199 24.8733 14.8982 24.465L16.7416 22.89C17.2666 22.4466 18.1182 22.1433 18.7716 22.1433H20.7549C21.5132 22.1433 22.1316 21.525 22.1316 20.7666V18.7833C22.1316 18.13 22.4466 17.2783 22.8782 16.7533L24.4649 14.8983C24.8732 14.42 24.8732 13.58 24.4649 13.1016L22.8899 11.2583C22.4466 10.7333 22.1432 9.88162 22.1432 9.22829V7.23329C22.1432 6.47496 21.5249 5.85662 20.7666 5.85662H18.7832C18.1182 5.85662 17.2549 5.54163 16.7416 5.10996L14.8866 3.52329C14.4082 3.11496 13.5799 3.11496 13.0899 3.52329L11.2582 5.10996C10.7332 5.54163 9.88156 5.85662 9.21656 5.85662H7.19823Z" fill="#01664A"/>
<path d="M13.9999 19.6817C13.3583 19.6817 12.8333 19.1567 12.8333 18.5151C12.8333 17.8734 13.3466 17.3484 13.9999 17.3484C14.6416 17.3484 15.1666 17.8734 15.1666 18.5151C15.1666 19.1567 14.6533 19.6817 13.9999 19.6817Z" fill="#01664A"/>
<path d="M14 16.0068C13.5217 16.0068 13.125 15.6101 13.125 15.1318V9.48511C13.125 9.00677 13.5217 8.61011 14 8.61011C14.4783 8.61011 14.875 9.00677 14.875 9.48511V15.1201C14.875 15.6101 14.49 16.0068 14 16.0068Z" fill="#01664A"/>
</svg>
