<svg width="54" height="55" viewBox="0 0 54 55" fill="none" xmlns="http://www.w3.org/2000/svg">
<rect y="0.5" width="54" height="54" rx="12" fill="#01664A" fill-opacity="0.2"/>
<path d="M27.1596 27.12C27.1296 27.12 27.1096 27.12 27.0796 27.12C27.0296 27.11 26.9596 27.11 26.8996 27.12C23.9996 27.03 21.8096 24.75 21.8096 21.94C21.8096 19.08 24.1396 16.75 26.9996 16.75C29.8596 16.75 32.1896 19.08 32.1896 21.94C32.1796 24.75 29.9796 27.03 27.1896 27.12C27.1796 27.12 27.1696 27.12 27.1596 27.12ZM26.9996 18.25C24.9696 18.25 23.3096 19.91 23.3096 21.94C23.3096 23.94 24.8696 25.55 26.8596 25.62C26.9096 25.61 27.0496 25.61 27.1796 25.62C29.1396 25.53 30.6796 23.92 30.6896 21.94C30.6896 19.91 29.0296 18.25 26.9996 18.25Z" fill="#01664A"/>
<path d="M27.1696 38.05C25.2096 38.05 23.2396 37.55 21.7496 36.55C20.3596 35.63 19.5996 34.37 19.5996 33C19.5996 31.63 20.3596 30.36 21.7496 29.43C24.7496 27.44 29.6096 27.44 32.5896 29.43C33.9696 30.35 34.7396 31.61 34.7396 32.98C34.7396 34.35 33.9796 35.62 32.5896 36.55C31.0896 37.55 29.1296 38.05 27.1696 38.05ZM22.5796 30.69C21.6196 31.33 21.0996 32.15 21.0996 33.01C21.0996 33.86 21.6296 34.68 22.5796 35.31C25.0696 36.98 29.2696 36.98 31.7596 35.31C32.7196 34.67 33.2396 33.85 33.2396 32.99C33.2396 32.14 32.7096 31.32 31.7596 30.69C29.2696 29.03 25.0696 29.03 22.5796 30.69Z" fill="#01664A"/>
</svg>
