<svg width="44" height="45" viewBox="0 0 44 45" fill="none" xmlns="http://www.w3.org/2000/svg">
    <rect y="0.5" width="44" height="44" rx="12" fill="#01664A" fill-opacity="0.2" />
    <path
        d="M29.9602 19.46C29.2902 18.72 28.2802 18.29 26.8802 18.14V17.38C26.8802 16.01 26.3002 14.69 25.2802 13.77C24.2502 12.83 22.9102 12.39 21.5202 12.52C19.1302 12.75 17.1202 15.06 17.1202 17.56V18.14C15.7202 18.29 14.7102 18.72 14.0402 19.46C13.0702 20.54 13.1002 21.98 13.2102 22.98L13.9102 28.55C14.1202 30.5 14.9102 32.5 19.2102 32.5H24.7902C29.0902 32.5 29.8802 30.5 30.0902 28.56L30.7902 22.97C30.9002 21.98 30.9202 20.54 29.9602 19.46ZM21.6602 13.91C22.6602 13.82 23.6102 14.13 24.3502 14.8C25.0802 15.46 25.4902 16.4 25.4902 17.38V18.08H18.5102V17.56C18.5102 15.78 19.9802 14.07 21.6602 13.91ZM18.4202 23.65H18.4102C17.8602 23.65 17.4102 23.2 17.4102 22.65C17.4102 22.1 17.8602 21.65 18.4102 21.65C18.9702 21.65 19.4202 22.1 19.4202 22.65C19.4202 23.2 18.9702 23.65 18.4202 23.65ZM25.4202 23.65H25.4102C24.8602 23.65 24.4102 23.2 24.4102 22.65C24.4102 22.1 24.8602 21.65 25.4102 21.65C25.9702 21.65 26.4202 22.1 26.4202 22.65C26.4202 23.2 25.9702 23.65 25.4202 23.65Z"
        fill="#01664A" />
</svg>
