<svg width="50" height="50" viewBox="0 0 50 50" fill="none" xmlns="http://www.w3.org/2000/svg">
<circle cx="25" cy="25" r="25" fill="#19C179" fill-opacity="0.1"/>
<path d="M25 35.75C19.07 35.75 14.25 30.93 14.25 25C14.25 19.07 19.07 14.25 25 14.25C30.93 14.25 35.75 19.07 35.75 25C35.75 30.93 30.93 35.75 25 35.75ZM25 15.75C19.9 15.75 15.75 19.9 15.75 25C15.75 30.1 19.9 34.25 25 34.25C30.1 34.25 34.25 30.1 34.25 25C34.25 19.9 30.1 15.75 25 15.75Z" fill="#01664A"/>
<path d="M28.0002 29C27.4402 29 26.9902 28.55 26.9902 28C26.9902 27.45 27.4402 27 27.9902 27C28.5402 27 28.9902 27.45 28.9902 28C28.9902 28.55 28.5502 29 28.0002 29Z" fill="#01664A"/>
<path d="M22.01 23C21.45 23 21 22.55 21 22C21 21.45 21.45 21 22 21C22.55 21 23 21.45 23 22C23 22.55 22.56 23 22.01 23Z" fill="#01664A"/>
<path d="M22 28.75C21.81 28.75 21.6199 28.68 21.4699 28.53C21.1799 28.24 21.1799 27.7599 21.4699 27.4699L27.4699 21.4699C27.7599 21.1799 28.24 21.1799 28.53 21.4699C28.82 21.7599 28.82 22.24 28.53 22.53L22.53 28.53C22.38 28.68 22.19 28.75 22 28.75Z" fill="#01664A"/>
</svg>
