<svg width="25" height="24" viewBox="0 0 25 24" fill="none" xmlns="http://www.w3.org/2000/svg">
<path d="M17.7967 22.75C16.6667 22.75 15.4767 22.48 14.2467 21.96C13.0467 21.45 11.8367 20.75 10.6567 19.9C9.48668 19.04 8.35668 18.08 7.28668 17.03C6.22668 15.96 5.26668 14.83 4.41668 13.67C3.55668 12.47 2.86668 11.27 2.37668 10.11C1.85668 8.87 1.59668 7.67 1.59668 6.54C1.59668 5.76 1.73668 5.02 2.00668 4.33C2.28668 3.62 2.73668 2.96 3.34668 2.39C4.11668 1.63 4.99668 1.25 5.93668 1.25C6.32668 1.25 6.72668 1.34 7.06668 1.5C7.45668 1.68 7.78668 1.95 8.02668 2.31L10.3467 5.58C10.5567 5.87 10.7167 6.15 10.8267 6.43C10.9567 6.73 11.0267 7.03 11.0267 7.32C11.0267 7.7 10.9167 8.07 10.7067 8.42C10.5567 8.69 10.3267 8.98 10.0367 9.27L9.35668 9.98C9.36668 10.01 9.37668 10.03 9.38668 10.05C9.50668 10.26 9.74668 10.62 10.2067 11.16C10.6967 11.72 11.1567 12.23 11.6167 12.7C12.2067 13.28 12.6967 13.74 13.1567 14.12C13.7267 14.6 14.0967 14.84 14.3167 14.95L14.2967 15L15.0267 14.28C15.3367 13.97 15.6367 13.74 15.9267 13.59C16.4767 13.25 17.1767 13.19 17.8767 13.48C18.1367 13.59 18.4167 13.74 18.7167 13.95L22.0367 16.31C22.4067 16.56 22.6767 16.88 22.8367 17.26C22.9867 17.64 23.0567 17.99 23.0567 18.34C23.0567 18.82 22.9467 19.3 22.7367 19.75C22.5267 20.2 22.2667 20.59 21.9367 20.95C21.3667 21.58 20.7467 22.03 20.0267 22.32C19.3367 22.6 18.5867 22.75 17.7967 22.75ZM5.93668 2.75C5.38668 2.75 4.87668 2.99 4.38668 3.47C3.92668 3.9 3.60668 4.37 3.40668 4.88C3.19668 5.4 3.09668 5.95 3.09668 6.54C3.09668 7.47 3.31668 8.48 3.75668 9.52C4.20668 10.58 4.83668 11.68 5.63668 12.78C6.43668 13.88 7.34668 14.95 8.34668 15.96C9.34668 16.95 10.4267 17.87 11.5367 18.68C12.6167 19.47 13.7267 20.11 14.8267 20.57C16.5367 21.3 18.1367 21.47 19.4567 20.92C19.9667 20.71 20.4167 20.39 20.8267 19.93C21.0567 19.68 21.2367 19.41 21.3867 19.09C21.5067 18.84 21.5667 18.58 21.5667 18.32C21.5667 18.16 21.5367 18 21.4567 17.82C21.4267 17.76 21.3667 17.65 21.1767 17.52L17.8567 15.16C17.6567 15.02 17.4767 14.92 17.3067 14.85C17.0867 14.76 16.9967 14.67 16.6567 14.88C16.4567 14.98 16.2767 15.13 16.0767 15.33L15.3167 16.08C14.9267 16.46 14.3267 16.55 13.8667 16.38L13.5967 16.26C13.1867 16.04 12.7067 15.7 12.1767 15.25C11.6967 14.84 11.1767 14.36 10.5467 13.74C10.0567 13.24 9.56668 12.71 9.05668 12.12C8.58668 11.57 8.24668 11.1 8.03668 10.71L7.91668 10.41C7.85668 10.18 7.83668 10.05 7.83668 9.91C7.83668 9.55 7.96668 9.23 8.21668 8.98L8.96668 8.2C9.16668 8 9.31668 7.81 9.41668 7.64C9.49668 7.51 9.52668 7.4 9.52668 7.3C9.52668 7.22 9.49668 7.1 9.44668 6.98C9.37668 6.82 9.26668 6.64 9.12668 6.45L6.80668 3.17C6.70668 3.03 6.58668 2.93 6.43668 2.86C6.27668 2.79 6.10668 2.75 5.93668 2.75ZM14.2967 15.01L14.1367 15.69L14.4067 14.99C14.3567 14.98 14.3167 14.99 14.2967 15.01Z" fill="#020202"/>
<path d="M18.8467 9.75C18.4367 9.75 18.0967 9.41 18.0967 9C18.0967 8.64 17.7367 7.89 17.1367 7.25C16.5467 6.62 15.8967 6.25 15.3467 6.25C14.9367 6.25 14.5967 5.91 14.5967 5.5C14.5967 5.09 14.9367 4.75 15.3467 4.75C16.3167 4.75 17.3367 5.27 18.2267 6.22C19.0567 7.11 19.5967 8.2 19.5967 9C19.5967 9.41 19.2567 9.75 18.8467 9.75Z" fill="#020202"/>
<path d="M22.3467 9.75C21.9367 9.75 21.5967 9.41 21.5967 9C21.5967 5.55 18.7967 2.75 15.3467 2.75C14.9367 2.75 14.5967 2.41 14.5967 2C14.5967 1.59 14.9367 1.25 15.3467 1.25C19.6167 1.25 23.0967 4.73 23.0967 9C23.0967 9.41 22.7567 9.75 22.3467 9.75Z" fill="#020202"/>
</svg>
