<svg width="25" height="24" viewBox="0 0 25 24" fill="none" xmlns="http://www.w3.org/2000/svg">
<path d="M19.6665 10.75H17.6665C15.2465 10.75 13.9165 9.42 13.9165 7V5C13.9165 2.58 15.2465 1.25 17.6665 1.25H19.6665C22.0865 1.25 23.4165 2.58 23.4165 5V7C23.4165 9.42 22.0865 10.75 19.6665 10.75ZM17.6665 2.75C16.0865 2.75 15.4165 3.42 15.4165 5V7C15.4165 8.58 16.0865 9.25 17.6665 9.25H19.6665C21.2465 9.25 21.9165 8.58 21.9165 7V5C21.9165 3.42 21.2465 2.75 19.6665 2.75H17.6665Z" fill="#020202"/>
<path d="M7.6665 22.75H5.6665C3.2465 22.75 1.9165 21.42 1.9165 19V17C1.9165 14.58 3.2465 13.25 5.6665 13.25H7.6665C10.0865 13.25 11.4165 14.58 11.4165 17V19C11.4165 21.42 10.0865 22.75 7.6665 22.75ZM5.6665 14.75C4.0865 14.75 3.4165 15.42 3.4165 17V19C3.4165 20.58 4.0865 21.25 5.6665 21.25H7.6665C9.2465 21.25 9.9165 20.58 9.9165 19V17C9.9165 15.42 9.2465 14.75 7.6665 14.75H5.6665Z" fill="#020202"/>
<path d="M6.6665 10.75C4.0465 10.75 1.9165 8.62 1.9165 6C1.9165 3.38 4.0465 1.25 6.6665 1.25C9.2865 1.25 11.4165 3.38 11.4165 6C11.4165 8.62 9.2865 10.75 6.6665 10.75ZM6.6665 2.75C4.8765 2.75 3.4165 4.21 3.4165 6C3.4165 7.79 4.8765 9.25 6.6665 9.25C8.4565 9.25 9.9165 7.79 9.9165 6C9.9165 4.21 8.4565 2.75 6.6665 2.75Z" fill="#020202"/>
<path d="M18.6665 22.75C16.0465 22.75 13.9165 20.62 13.9165 18C13.9165 15.38 16.0465 13.25 18.6665 13.25C21.2865 13.25 23.4165 15.38 23.4165 18C23.4165 20.62 21.2865 22.75 18.6665 22.75ZM18.6665 14.75C16.8765 14.75 15.4165 16.21 15.4165 18C15.4165 19.79 16.8765 21.25 18.6665 21.25C20.4565 21.25 21.9165 19.79 21.9165 18C21.9165 16.21 20.4565 14.75 18.6665 14.75Z" fill="#020202"/>
</svg>
