<svg width="34" height="34" viewBox="0 0 34 34" fill="none" xmlns="http://www.w3.org/2000/svg">
<path d="M17 0.333328C7.81666 0.333328 0.333328 7.81666 0.333328 17C0.333328 26.1833 7.81666 33.6667 17 33.6667C26.1833 33.6667 33.6667 26.1833 33.6667 17C33.6667 7.81666 26.1833 0.333328 17 0.333328ZM22.6 20.8333C23.0833 21.3167 23.0833 22.1167 22.6 22.6C22.35 22.85 22.0333 22.9667 21.7167 22.9667C21.4 22.9667 21.0833 22.85 20.8333 22.6L17 18.7667L13.1667 22.6C12.9167 22.85 12.6 22.9667 12.2833 22.9667C11.9667 22.9667 11.65 22.85 11.4 22.6C10.9167 22.1167 10.9167 21.3167 11.4 20.8333L15.2333 17L11.4 13.1667C10.9167 12.6833 10.9167 11.8833 11.4 11.4C11.8833 10.9167 12.6833 10.9167 13.1667 11.4L17 15.2333L20.8333 11.4C21.3167 10.9167 22.1167 10.9167 22.6 11.4C23.0833 11.8833 23.0833 12.6833 22.6 13.1667L18.7667 17L22.6 20.8333Z" fill="#292D32"/>
</svg>
