<svg width="55" height="54" viewBox="0 0 55 54" fill="none" xmlns="http://www.w3.org/2000/svg">
<rect x="0.5" width="54" height="54" rx="12" fill="#01664A" fill-opacity="0.2"/>
<path d="M37.5 24.25H17.5C17.09 24.25 16.75 23.91 16.75 23.5C16.75 23.09 17.09 22.75 17.5 22.75H37.5C37.91 22.75 38.25 23.09 38.25 23.5C38.25 23.91 37.91 24.25 37.5 24.25Z" fill="#01664A"/>
<path d="M23.5 32.25H21.5C21.09 32.25 20.75 31.91 20.75 31.5C20.75 31.09 21.09 30.75 21.5 30.75H23.5C23.91 30.75 24.25 31.09 24.25 31.5C24.25 31.91 23.91 32.25 23.5 32.25Z" fill="#01664A"/>
<path d="M30 32.25H26C25.59 32.25 25.25 31.91 25.25 31.5C25.25 31.09 25.59 30.75 26 30.75H30C30.41 30.75 30.75 31.09 30.75 31.5C30.75 31.91 30.41 32.25 30 32.25Z" fill="#01664A"/>
<path d="M33.06 36.25H21.94C17.96 36.25 16.75 35.05 16.75 31.11V22.89C16.75 18.95 17.96 17.75 21.94 17.75H33.05C37.03 17.75 38.24 18.95 38.24 22.89V31.1C38.25 35.05 37.04 36.25 33.06 36.25ZM21.94 19.25C18.8 19.25 18.25 19.79 18.25 22.89V31.1C18.25 34.2 18.8 34.74 21.94 34.74H33.05C36.19 34.74 36.74 34.2 36.74 31.1V22.89C36.74 19.79 36.19 19.25 33.05 19.25H21.94Z" fill="#01664A"/>
</svg>
