<svg width="50" height="50" viewBox="0 0 50 50" fill="none" xmlns="http://www.w3.org/2000/svg">
<path d="M29.572 18.8198C30.2408 17.8212 31.424 17.7466 32.5103 17.7461L33.922 17.7688C35.9119 18.0205 37.2947 19.2209 38.6015 20.6082L39.7584 21.8088C40.6865 22.757 41.6495 23.6814 42.474 24.7237C43.7036 26.2781 43.8249 27.4118 43.8245 29.2711C43.8242 30.5895 43.9473 31.8342 42.777 32.7399C42.1928 33.1921 41.4916 33.2702 40.7767 33.2602C40.7318 33.2596 40.6971 33.2381 40.6901 33.2841C39.7542 39.5127 32.5 38.6392 31.9286 33.3575L26.4791 33.3274L25.7639 33.3279L25.6104 33.2916C25.6691 33.2433 25.7707 33.223 25.8425 33.1984L26.352 33.0226C26.3874 32.9754 26.6611 32.8855 26.7327 32.8512C28.307 32.0952 29.3594 30.4223 29.5518 28.711C29.6121 28.1751 29.5762 27.605 29.5763 27.0644L29.5754 24.7177L29.572 18.8198ZM35.1791 20.5885C33.9203 20.7748 34.0842 21.7505 34.0833 22.7127C34.0821 23.957 33.9934 25.0651 35.4854 25.5223C35.7921 25.6162 36.2356 25.5648 36.5595 25.5655L38.4018 25.5774C39.0354 25.5284 39.6414 24.9764 39.4572 24.292L39.4481 24.2566C39.2842 23.671 37.8207 22.4577 37.3602 22.0116C36.7225 21.3937 36.1741 20.5382 35.1791 20.5885Z" fill="#01664A"/>
<path d="M9.41512 17.0793L10.2209 17.0707C10.5112 15.8801 11.319 14.803 12.365 14.1659C13.7741 13.3078 15.3326 13.3785 16.9188 13.3777L23.2929 13.3733C24.1855 13.3716 25.1349 13.2931 26.0078 13.509C28.1349 14.0352 29.5075 15.71 29.517 17.8899C29.5183 18.1847 29.4899 18.535 29.5725 18.8198L29.5763 24.7177L29.5764 27.0644C29.5764 27.605 29.6123 28.1751 29.552 28.711C29.3596 30.4223 28.3071 32.0952 26.7328 32.8512C26.6613 32.8855 26.3875 32.9754 26.3521 33.0226L25.8427 33.1984C25.7709 33.223 25.6693 33.2433 25.6105 33.2916L25.7641 33.3256L22.7769 33.272C22.7789 33.569 22.7785 33.8855 22.7193 34.2005C22.1229 37.3707 18.0257 38.8309 15.676 36.4389C15.0878 35.8402 14.4328 34.7584 14.3948 33.8802L14.3526 33.5767L14.337 33.4791C14.3077 33.3209 14.1011 33.4013 13.9772 33.3966C13.1061 33.3627 12.1655 33.0368 11.4485 32.5562C9.71785 31.396 9.37394 29.4839 9.37566 27.5383L9.3773 24.8307C9.37848 24.5084 9.37379 24.1641 9.43613 23.8474L9.47605 23.5931C9.48707 23.5109 9.50543 23.4738 9.56355 23.4148L9.58027 23.3984C9.39652 23.3688 9.20043 23.3902 9.01277 23.3694L8.98199 23.3657L8.19113 23.3594C8.0316 23.3577 7.8523 23.3659 7.69757 23.3278L7.66621 23.3195C6.75222 23.0826 6.87409 21.7841 7.8473 21.6265C8.35965 21.5471 8.8966 21.6609 9.39957 21.5867C9.34684 20.837 9.52066 19.6473 9.68012 18.9331C9.75988 18.9132 9.8248 18.8756 9.82988 18.7866C9.73137 18.7851 9.62754 18.7888 9.53121 18.7666L9.48316 18.7546L7.04555 18.7402C6.8842 18.7385 6.72405 18.7456 6.5754 18.6725L6.54316 18.6563C5.89505 18.3492 5.86741 17.3165 6.57574 17.0891L6.60419 17.0807C6.8234 17.0139 7.17307 17.0719 7.40602 17.073L9.41512 17.0793Z" fill="#01664A" fill-opacity="0.5"/>
<path d="M9.48316 18.7446L7.04555 18.7402C6.8842 18.7385 6.72405 18.7456 6.5754 18.6725L6.54316 18.6563C5.89505 18.3492 5.86741 17.3165 6.57574 17.0891L6.60419 17.0807C6.8234 17.0139 7.17307 17.0719 7.40602 17.073L9.41512 17.0793L12.1814 17.0838C12.3626 17.0846 12.5532 17.0804 12.7296 17.1259L12.761 17.1336C13.4427 17.3125 13.325 18.6103 12.4017 18.7241C11.735 18.8062 10.1777 18.7824 9.48316 18.7446Z" fill="#01664A"/>
<path d="M7.84723 21.6265L20.6875 21.5895C21.137 21.5895 21.8426 21.4756 22.2482 21.7198L22.2822 21.7398C22.9296 22.1333 22.8844 23.0932 22.1437 23.3171L22.105 23.3293C21.9323 23.3792 21.739 23.3632 21.5604 23.3623L18.367 23.3574L8.98192 23.3614L8.19106 23.3594C8.03153 23.3577 7.85223 23.3659 7.6975 23.3278L7.66614 23.3195C6.75215 23.0826 6.87401 21.7841 7.84723 21.6265Z" fill="url(#paint0_linear_211_3264)"/>
<path d="M17.5138 29.2926C19.9319 28.6334 22.5026 30.3823 22.7392 32.8431C22.7517 32.9733 22.7476 33.1237 22.7769 33.25C22.7789 33.569 22.7784 33.8856 22.7192 34.2005C22.1229 37.3707 18.0256 38.8309 15.6759 36.4389C15.0878 35.8402 14.4327 34.7584 14.3947 33.8802L14.3526 33.5767C14.3465 31.6916 15.6427 29.7707 17.5138 29.2926Z" fill="url(#paint1_linear_211_3264)"/>
<defs>
<linearGradient id="paint0_linear_211_3264" x1="18.7861" y1="26.6106" x2="10.9756" y2="18.3814" gradientUnits="userSpaceOnUse">
<stop stop-color="#042366"/>
<stop offset="1" stop-color="#042366"/>
</linearGradient>
<linearGradient id="paint1_linear_211_3264" x1="22.3859" y1="35.1252" x2="14.7691" y2="31.6395" gradientUnits="userSpaceOnUse">
<stop stop-color="#042366"/>
<stop offset="1" stop-color="#042366"/>
</linearGradient>
</defs>
</svg>
