<svg width="54" height="55" viewBox="0 0 54 55" fill="none" xmlns="http://www.w3.org/2000/svg">
<rect y="0.5" width="54" height="54" rx="12" fill="#01664A" fill-opacity="0.2"/>
<path d="M37 24.75H17C16.59 24.75 16.25 24.41 16.25 24C16.25 23.59 16.59 23.25 17 23.25H37C37.41 23.25 37.75 23.59 37.75 24C37.75 24.41 37.41 24.75 37 24.75Z" fill="#01664A"/>
<path d="M23 32.75H21C20.59 32.75 20.25 32.41 20.25 32C20.25 31.59 20.59 31.25 21 31.25H23C23.41 31.25 23.75 31.59 23.75 32C23.75 32.41 23.41 32.75 23 32.75Z" fill="#01664A"/>
<path d="M29.5 32.75H25.5C25.09 32.75 24.75 32.41 24.75 32C24.75 31.59 25.09 31.25 25.5 31.25H29.5C29.91 31.25 30.25 31.59 30.25 32C30.25 32.41 29.91 32.75 29.5 32.75Z" fill="#01664A"/>
<path d="M32.56 36.75H21.44C17.46 36.75 16.25 35.55 16.25 31.61V23.39C16.25 19.45 17.46 18.25 21.44 18.25H32.55C36.53 18.25 37.74 19.45 37.74 23.39V31.6C37.75 35.55 36.54 36.75 32.56 36.75ZM21.44 19.75C18.3 19.75 17.75 20.29 17.75 23.39V31.6C17.75 34.7 18.3 35.24 21.44 35.24H32.55C35.69 35.24 36.24 34.7 36.24 31.6V23.39C36.24 20.29 35.69 19.75 32.55 19.75H21.44Z" fill="#01664A"/>
</svg>
