<svg width="40" height="40" viewBox="0 0 40 40" fill="none" xmlns="http://www.w3.org/2000/svg">
<circle cx="20" cy="20" r="15" fill="#FF0000" fill-opacity="0.1"/>
<path d="M25.9999 16.4866C25.9866 16.4866 25.9666 16.4866 25.9466 16.4866C22.4199 16.1332 18.8999 15.9999 15.4133 16.3532L14.0533 16.4866C13.7733 16.5132 13.5266 16.3132 13.4999 16.0332C13.4733 15.7532 13.6733 15.5132 13.9466 15.4866L15.3066 15.3532C18.8533 14.9932 22.4466 15.1332 26.0466 15.4866C26.3199 15.5132 26.5199 15.7599 26.4933 16.0332C26.4733 16.2932 26.2533 16.4866 25.9999 16.4866Z" fill="#FF0000"/>
<path d="M17.6665 15.8133C17.6398 15.8133 17.6132 15.8133 17.5798 15.8066C17.3132 15.7599 17.1265 15.4999 17.1732 15.2333L17.3198 14.3599C17.4265 13.7199 17.5732 12.8333 19.1265 12.8333H20.8732C22.4332 12.8333 22.5798 13.7533 22.6798 14.3666L22.8265 15.2333C22.8732 15.5066 22.6865 15.7666 22.4198 15.8066C22.1465 15.8533 21.8865 15.6666 21.8465 15.3999L21.6998 14.5333C21.6065 13.9533 21.5865 13.8399 20.8798 13.8399H19.1332C18.4265 13.8399 18.4132 13.9333 18.3132 14.5266L18.1598 15.3933C18.1198 15.6399 17.9065 15.8133 17.6665 15.8133Z" fill="#FF0000"/>
<path d="M22.1401 27.1667H17.8601C15.5334 27.1667 15.4401 25.8801 15.3668 24.8401L14.9334 18.1267C14.9134 17.8534 15.1268 17.6134 15.4001 17.5934C15.6801 17.5801 15.9134 17.7867 15.9334 18.0601L16.3668 24.7734C16.4401 25.7867 16.4668 26.1667 17.8601 26.1667H22.1401C23.5401 26.1667 23.5668 25.7867 23.6334 24.7734L24.0668 18.0601C24.0868 17.7867 24.3268 17.5801 24.6001 17.5934C24.8734 17.6134 25.0868 17.8467 25.0668 18.1267L24.6334 24.8401C24.5601 25.8801 24.4668 27.1667 22.1401 27.1667Z" fill="#FF0000"/>
<path d="M21.1067 23.5H18.8867C18.6134 23.5 18.3867 23.2733 18.3867 23C18.3867 22.7267 18.6134 22.5 18.8867 22.5H21.1067C21.3801 22.5 21.6067 22.7267 21.6067 23C21.6067 23.2733 21.3801 23.5 21.1067 23.5Z" fill="#FF0000"/>
<path d="M21.6668 20.8333H18.3335C18.0602 20.8333 17.8335 20.6066 17.8335 20.3333C17.8335 20.0599 18.0602 19.8333 18.3335 19.8333H21.6668C21.9402 19.8333 22.1668 20.0599 22.1668 20.3333C22.1668 20.6066 21.9402 20.8333 21.6668 20.8333Z" fill="#FF0000"/>
</svg>
