<svg width="54" height="55" viewBox="0 0 54 55" fill="none" xmlns="http://www.w3.org/2000/svg">
<rect y="0.5" width="54" height="54" rx="12" fill="#01664A" fill-opacity="0.2"/>
<path d="M27 38.25C21.07 38.25 16.25 33.43 16.25 27.5C16.25 21.57 21.07 16.75 27 16.75C32.93 16.75 37.75 21.57 37.75 27.5C37.75 33.43 32.93 38.25 27 38.25ZM27 18.25C21.9 18.25 17.75 22.4 17.75 27.5C17.75 32.6 21.9 36.75 27 36.75C32.1 36.75 36.25 32.6 36.25 27.5C36.25 22.4 32.1 18.25 27 18.25Z" fill="#01664A"/>
<path d="M30.0002 31.5C29.4402 31.5 28.9902 31.05 28.9902 30.5C28.9902 29.95 29.4402 29.5 29.9902 29.5C30.5402 29.5 30.9902 29.95 30.9902 30.5C30.9902 31.05 30.5502 31.5 30.0002 31.5Z" fill="#01664A"/>
<path d="M24.01 25.5C23.45 25.5 23 25.05 23 24.5C23 23.95 23.45 23.5 24 23.5C24.55 23.5 25 23.95 25 24.5C25 25.05 24.56 25.5 24.01 25.5Z" fill="#01664A"/>
<path d="M24 31.25C23.81 31.25 23.6199 31.18 23.4699 31.03C23.1799 30.74 23.1799 30.2599 23.4699 29.9699L29.4699 23.9699C29.7599 23.6799 30.24 23.6799 30.53 23.9699C30.82 24.2599 30.82 24.74 30.53 25.03L24.53 31.03C24.38 31.18 24.19 31.25 24 31.25Z" fill="#01664A"/>
</svg>
