<svg width="24" height="25" viewBox="0 0 44 45" fill="none" xmlns="http://www.w3.org/2000/svg">
<path d="M27 31.9348H17C13.35 31.9348 11.25 29.8348 11.25 26.1848V19.1848C11.25 15.5348 13.35 13.4348 17 13.4348H27C30.65 13.4348 32.75 15.5348 32.75 19.1848V26.1848C32.75 29.8348 30.65 31.9348 27 31.9348ZM17 14.9348C14.14 14.9348 12.75 16.3248 12.75 19.1848V26.1848C12.75 29.0448 14.14 30.4348 17 30.4348H27C29.86 30.4348 31.25 29.0448 31.25 26.1848V19.1848C31.25 16.3248 29.86 14.9348 27 14.9348H17Z" fill="#020202"/>
<path d="M21.9998 23.5548C21.1598 23.5548 20.3098 23.2948 19.6598 22.7648L16.5298 20.2648C16.2098 20.0048 16.1498 19.5348 16.4098 19.2148C16.6698 18.8948 17.1398 18.8348 17.4598 19.0948L20.5898 21.5948C21.3498 22.2048 22.6398 22.2048 23.3998 21.5948L26.5298 19.0948C26.8498 18.8348 27.3298 18.8848 27.5798 19.2148C27.8398 19.5348 27.7898 20.0148 27.4598 20.2648L24.3298 22.7648C23.6898 23.2948 22.8398 23.5548 21.9998 23.5548Z" fill="#020202"/>
</svg>
