<svg width="54" height="55" viewBox="0 0 54 55" fill="none" xmlns="http://www.w3.org/2000/svg">
<rect y="0.5" width="54" height="54" rx="12" fill="#01664A" fill-opacity="0.2"/>
<path d="M20.54 35.0201C19.93 35.0201 19.36 34.81 18.95 34.42C18.43 33.93 18.18 33.19 18.27 32.39L18.64 29.15C18.71 28.54 19.08 27.73 19.51 27.29L27.72 18.6C29.77 16.43 31.91 16.37 34.08 18.42C36.25 20.47 36.31 22.61 34.26 24.78L26.05 33.47C25.63 33.92 24.85 34.34 24.24 34.4401L21.02 34.99C20.85 35 20.7 35.0201 20.54 35.0201ZM30.93 18.41C30.16 18.41 29.49 18.89 28.81 19.61L20.6 28.3101C20.4 28.5201 20.17 29.0201 20.13 29.3101L19.76 32.55C19.72 32.88 19.8 33.15 19.98 33.32C20.16 33.49 20.43 33.55 20.76 33.5L23.98 32.9501C24.27 32.9001 24.75 32.64 24.95 32.43L33.16 23.74C34.4 22.42 34.85 21.2 33.04 19.5C32.24 18.73 31.55 18.41 30.93 18.41Z" fill="#01664A"/>
<path d="M32.3399 26.45C32.3199 26.45 32.2899 26.45 32.2699 26.45C29.1499 26.14 26.6399 23.77 26.1599 20.67C26.0999 20.26 26.3799 19.88 26.7899 19.81C27.1999 19.75 27.5799 20.03 27.6499 20.44C28.0299 22.86 29.9899 24.72 32.4299 24.96C32.8399 25 33.1399 25.37 33.0999 25.78C33.0499 26.16 32.7199 26.45 32.3399 26.45Z" fill="#01664A"/>
<path d="M36 38.25H18C17.59 38.25 17.25 37.91 17.25 37.5C17.25 37.09 17.59 36.75 18 36.75H36C36.41 36.75 36.75 37.09 36.75 37.5C36.75 37.91 36.41 38.25 36 38.25Z" fill="#01664A"/>
</svg>
