<svg width="44" height="44" viewBox="0 0 44 44" fill="none" xmlns="http://www.w3.org/2000/svg">
<path d="M31 32H13C12.59 32 12.25 31.66 12.25 31.25C12.25 30.84 12.59 30.5 13 30.5H31C31.41 30.5 31.75 30.84 31.75 31.25C31.75 31.66 31.41 32 31 32Z" fill="#292D32"/>
<path d="M29.02 13.48C27.08 11.54 25.18 11.49 23.19 13.48L21.98 14.69C21.88 14.79 21.84 14.95 21.88 15.09C22.64 17.74 24.76 19.86 27.41 20.62C27.45 20.63 27.49 20.64 27.53 20.64C27.64 20.64 27.74 20.6 27.82 20.52L29.02 19.31C30.01 18.33 30.49 17.38 30.49 16.42C30.5 15.43 30.02 14.47 29.02 13.48Z" fill="#292D32"/>
<path d="M25.61 21.53C25.32 21.39 25.04 21.25 24.77 21.09C24.55 20.96 24.34 20.82 24.13 20.67C23.96 20.56 23.76 20.4 23.57 20.24C23.55 20.23 23.48 20.17 23.4 20.09C23.07 19.81 22.7 19.45 22.37 19.05C22.34 19.03 22.29 18.96 22.22 18.87C22.12 18.75 21.95 18.55 21.8 18.32C21.68 18.17 21.54 17.95 21.41 17.73C21.25 17.46 21.11 17.19 20.97 16.91C20.9488 16.8646 20.9283 16.8194 20.9084 16.7745C20.7609 16.4412 20.3262 16.3438 20.0685 16.6015L14.34 22.33C14.21 22.46 14.09 22.71 14.06 22.88L13.52 26.71C13.42 27.39 13.61 28.03 14.03 28.46C14.39 28.81 14.89 29 15.43 29C15.55 29 15.67 28.99 15.79 28.97L19.63 28.43C19.81 28.4 20.06 28.28 20.18 28.15L25.9013 22.4287C26.1609 22.1691 26.0629 21.7237 25.7253 21.5796C25.6873 21.5634 25.6489 21.5469 25.61 21.53Z" fill="#292D32"/>
</svg>
