<svg width="24" height="25" viewBox="0 0 24 25" fill="none" xmlns="http://www.w3.org/2000/svg">
<path d="M16.9802 13.9932C16.7902 13.9932 16.5902 13.9132 16.4502 13.7732L11.0502 8.36316C10.8002 8.11316 10.7602 7.73316 10.9502 7.43316L12.6402 4.76316C13.1102 4.02316 13.8202 3.56316 14.6502 3.47316C15.5802 3.38316 16.5402 3.74316 17.2902 4.49316L20.3202 7.52316C21.0402 8.24316 21.4002 9.21316 21.2902 10.1732C21.2002 11.0132 20.7502 11.7432 20.0502 12.1832L17.3802 13.8732C17.2602 13.9532 17.1202 13.9932 16.9802 13.9932ZM12.5302 7.73316L17.0902 12.2932L19.2602 10.9232C19.5702 10.7232 19.7702 10.4032 19.8102 10.0132C19.8702 9.51316 19.6602 8.98316 19.2702 8.59316L16.2402 5.56316C15.8102 5.13316 15.2902 4.90316 14.8202 4.97316C14.4402 5.01316 14.1302 5.22316 13.9102 5.57316L12.5302 7.73316Z" fill="#020202"/>
<path d="M5.88989 22.1332C4.99989 22.1332 4.19989 21.8132 3.59989 21.2232C2.89989 20.5232 2.58989 19.5532 2.71989 18.4732L3.69989 10.1432C3.99989 7.62324 5.10989 6.70324 7.69989 6.85324L11.6199 7.08324C12.0299 7.11324 12.3499 7.46324 12.3199 7.87324C12.2899 8.28324 11.9399 8.60324 11.5299 8.57324L7.60989 8.35324C5.82989 8.24324 5.38989 8.59324 5.18989 10.3232L4.20989 18.6432C4.13989 19.2532 4.29989 19.7932 4.65989 20.1532C5.02989 20.5132 5.56989 20.6832 6.17989 20.6032L14.4999 19.6232C16.2499 19.4132 16.6399 18.9532 16.4699 17.2332L16.2299 13.2832C16.2099 12.8732 16.5199 12.5132 16.9299 12.4932C17.3399 12.4632 17.6999 12.7832 17.7199 13.1932L17.9499 17.1132C18.1899 19.6032 17.2099 20.8032 14.6599 21.1132L6.33989 22.0932C6.19989 22.1232 6.03989 22.1332 5.88989 22.1332Z" fill="#020202"/>
<path d="M4.6098 20.9633C4.4198 20.9633 4.2298 20.8933 4.0798 20.7433C3.7898 20.4533 3.7898 19.9733 4.0798 19.6833L7.1198 16.6433C7.4098 16.3533 7.88981 16.3533 8.17981 16.6433C8.46981 16.9333 8.46981 17.4133 8.17981 17.7033L5.1398 20.7433C4.9898 20.8933 4.7998 20.9633 4.6098 20.9633Z" fill="#020202"/>
</svg>
