<svg width="44" height="45" viewBox="0 0 44 45" fill="none" xmlns="http://www.w3.org/2000/svg">
<path d="M22 23.1736C18.83 23.1736 16.25 20.5936 16.25 17.4236C16.25 14.2536 18.83 11.6736 22 11.6736C25.17 11.6736 27.75 14.2536 27.75 17.4236C27.75 20.5936 25.17 23.1736 22 23.1736ZM22 13.1736C19.66 13.1736 17.75 15.0836 17.75 17.4236C17.75 19.7636 19.66 21.6736 22 21.6736C24.34 21.6736 26.25 19.7636 26.25 17.4236C26.25 15.0836 24.34 13.1736 22 13.1736Z" fill="#020202"/>
<path d="M25.8201 33.1736C25.4401 33.1736 25.0801 33.0336 24.8201 32.7736C24.5101 32.4636 24.3701 32.0136 24.4401 31.5436L24.6301 30.1937C24.6801 29.8437 24.8901 29.4336 25.1401 29.1736L28.68 25.6337C30.1 24.2137 31.3501 25.0237 31.9601 25.6337C32.4801 26.1537 32.7501 26.7136 32.7501 27.2736C32.7501 27.8436 32.4901 28.3736 31.9601 28.9036L28.42 32.4437C28.17 32.6937 27.7501 32.9037 27.4001 32.9537L26.05 33.1436C25.97 33.1636 25.9001 33.1736 25.8201 33.1736ZM30.31 26.3436C30.13 26.3436 29.97 26.4637 29.74 26.6937L26.2001 30.2336C26.1701 30.2636 26.12 30.3636 26.12 30.4036L25.9401 31.6536L27.1901 31.4736C27.2301 31.4636 27.33 31.4137 27.36 31.3837L30.9001 27.8436C31.0601 27.6836 31.2501 27.4536 31.2501 27.2736C31.2501 27.1236 31.1301 26.9137 30.9001 26.6937C30.6601 26.4537 30.48 26.3436 30.31 26.3436Z" fill="#020202"/>
<path d="M30.9201 29.6436C30.8501 29.6436 30.7801 29.6336 30.7201 29.6136C29.4001 29.2436 28.3501 28.1937 27.9801 26.8737C27.8701 26.4737 28.1001 26.0637 28.5001 25.9537C28.9001 25.8437 29.3101 26.0736 29.4201 26.4736C29.6501 27.2936 30.3001 27.9436 31.1201 28.1736C31.5201 28.2836 31.7501 28.7036 31.6401 29.0936C31.5501 29.4236 31.2501 29.6436 30.9201 29.6436Z" fill="#020202"/>
<path d="M13.4102 33.1736C13.0002 33.1736 12.6602 32.8336 12.6602 32.4236C12.6602 28.1536 16.8502 24.6736 22.0002 24.6736C23.0902 24.6736 24.1702 24.8337 25.1802 25.1337C25.5802 25.2537 25.8002 25.6737 25.6802 26.0637C25.5602 26.4637 25.1402 26.6837 24.7502 26.5637C23.8702 26.3037 22.9502 26.1636 22.0002 26.1636C17.6802 26.1636 14.1602 28.9636 14.1602 32.4136C14.1602 32.8336 13.8202 33.1736 13.4102 33.1736Z" fill="#020202"/>
</svg>
