<svg width="44" height="45" viewBox="0 0 44 45" fill="none" xmlns="http://www.w3.org/2000/svg">
<path d="M21.9999 24.2242C19.8699 24.2242 18.1299 22.4942 18.1299 20.3542C18.1299 18.2142 19.8699 16.4942 21.9999 16.4942C24.1299 16.4942 25.8699 18.2242 25.8699 20.3642C25.8699 22.5042 24.1299 24.2242 21.9999 24.2242ZM21.9999 17.9942C20.6999 17.9942 19.6299 19.0542 19.6299 20.3642C19.6299 21.6742 20.6899 22.7342 21.9999 22.7342C23.3099 22.7342 24.3699 21.6742 24.3699 20.3642C24.3699 19.0542 23.2999 17.9942 21.9999 17.9942Z" fill="#020202"/>
<path d="M22.0002 32.8142C20.5202 32.8142 19.0302 32.2542 17.8702 31.1442C14.9202 28.3042 11.6602 23.7742 12.8902 18.3842C14.0002 13.4942 18.2702 11.3042 22.0002 11.3042C22.0002 11.3042 22.0002 11.3042 22.0102 11.3042C25.7402 11.3042 30.0102 13.4942 31.1202 18.3942C32.3402 23.7842 29.0802 28.3042 26.1302 31.1442C24.9702 32.2542 23.4802 32.8142 22.0002 32.8142ZM22.0002 12.8042C19.0902 12.8042 15.3502 14.3542 14.3602 18.7142C13.2802 23.4242 16.2402 27.4842 18.9202 30.0542C20.6502 31.7242 23.3602 31.7242 25.0902 30.0542C27.7602 27.4842 30.7202 23.4242 29.6602 18.7142C28.6602 14.3542 24.9102 12.8042 22.0002 12.8042Z" fill="#020202"/>
</svg>
