<svg width="28" height="28" viewBox="0 0 28 28" fill="none" xmlns="http://www.w3.org/2000/svg">
<path d="M17.7799 25.9819H17.6283C12.4483 25.9819 9.9516 23.9402 9.51994 19.3669C9.47327 18.8886 9.82327 18.4569 10.3133 18.4102C10.7799 18.3636 11.2233 18.7252 11.2699 19.2036C11.6083 22.8669 13.3349 24.2319 17.6399 24.2319H17.7916C22.5399 24.2319 24.2199 22.5519 24.2199 17.8036V10.1969C24.2199 5.44855 22.5399 3.76855 17.7916 3.76855H17.6399C13.3116 3.76855 11.5849 5.15689 11.2699 8.89022C11.2116 9.36856 10.8033 9.73022 10.3133 9.68356C9.82327 9.64856 9.47327 9.21689 9.50827 8.73855C9.90494 4.09522 12.4133 2.01855 17.6283 2.01855H17.7799C23.5083 2.01855 25.9583 4.46855 25.9583 10.1969V17.8036C25.9583 23.5319 23.5083 25.9819 17.7799 25.9819Z" fill="#01664A"/>
<path d="M17.5001 14.8752H4.22339C3.74506 14.8752 3.34839 14.4786 3.34839 14.0002C3.34839 13.5219 3.74506 13.1252 4.22339 13.1252H17.5001C17.9784 13.1252 18.3751 13.5219 18.3751 14.0002C18.3751 14.4786 17.9784 14.8752 17.5001 14.8752Z" fill="#01664A"/>
<path d="M6.82509 18.7835C6.60343 18.7835 6.38176 18.7018 6.20676 18.5268L2.29843 14.6185C1.96009 14.2801 1.96009 13.7201 2.29843 13.3818L6.20676 9.47348C6.54509 9.13514 7.10509 9.13514 7.44343 9.47348C7.78176 9.81181 7.78176 10.3718 7.44343 10.7101L4.15343 14.0001L7.44343 17.2901C7.78176 17.6285 7.78176 18.1885 7.44343 18.5268C7.28009 18.7018 7.04676 18.7835 6.82509 18.7835Z" fill="#01664A"/>
</svg>
