<svg width="28" height="28" viewBox="0 0 28 28" fill="none" xmlns="http://www.w3.org/2000/svg">
<path d="M13.9999 26.5533C12.7282 26.5533 11.4682 26.18 10.4766 25.445L5.45988 21.7C4.12988 20.7083 3.09155 18.6433 3.09155 16.9866V8.31831C3.09155 6.52165 4.40991 4.60831 6.10157 3.97831L11.9232 1.79665C13.0782 1.36498 14.8982 1.36498 16.0532 1.79665L21.8866 3.97831C23.5782 4.60831 24.8966 6.52165 24.8966 8.31831V16.9866C24.8966 18.6433 23.8582 20.7083 22.5282 21.7L17.5116 25.445C16.5316 26.18 15.2716 26.5533 13.9999 26.5533ZM12.5416 3.42998L6.7199 5.61164C5.71657 5.98497 4.84155 7.24498 4.84155 8.31831V16.9866C4.84155 18.095 5.62323 19.6466 6.49823 20.3L11.5149 24.045C12.8566 25.0483 15.1316 25.0483 16.4732 24.045L21.4899 20.3C22.3766 19.635 23.1466 18.0833 23.1466 16.9866V8.31831C23.1466 7.25665 22.2716 5.99664 21.2682 5.61164L15.4465 3.42998C14.6765 3.13831 13.3232 3.13831 12.5416 3.42998Z" fill="#01664A"/>
<path d="M14 13.615C13.9766 13.615 13.9533 13.615 13.9183 13.615C12.2266 13.5684 10.99 12.2734 10.99 10.6984C10.99 9.08836 12.3083 7.77002 13.9183 7.77002C15.5283 7.77002 16.8466 9.08836 16.8466 10.6984C16.835 12.285 15.5983 13.5683 14.0233 13.6267C14.0116 13.615 14.0116 13.615 14 13.615ZM13.9183 9.52002C13.265 9.52002 12.74 10.045 12.74 10.6984C12.74 11.34 13.2417 11.8533 13.8717 11.8767C13.8717 11.8767 13.93 11.8767 14 11.8767C14.6183 11.8417 15.0966 11.3284 15.0966 10.6984C15.1083 10.045 14.5716 9.52002 13.9183 9.52002Z" fill="#01664A"/>
<path d="M13.9999 20.2417C12.9965 20.2417 11.9815 19.9734 11.1999 19.4484C10.4182 18.9351 9.97485 18.1767 9.97485 17.3717C9.97485 16.5667 10.4182 15.8084 11.1999 15.2834C12.7749 14.2334 15.2365 14.245 16.7999 15.2834C17.5815 15.7967 18.0249 16.555 18.0249 17.36C18.0249 18.165 17.5815 18.9234 16.7999 19.4484C16.0182 19.9734 15.0032 20.2417 13.9999 20.2417ZM12.1682 16.73C11.8765 16.9167 11.7132 17.15 11.7249 17.36C11.7249 17.57 11.8882 17.8034 12.1682 17.9901C13.1482 18.6434 14.8515 18.6434 15.8315 17.9901C16.1232 17.8034 16.2865 17.57 16.2865 17.36C16.2865 17.15 16.1232 16.9167 15.8432 16.73C14.8632 16.0884 13.1482 16.0884 12.1682 16.73Z" fill="#01664A"/>
</svg>
