<svg width="54" height="55" viewBox="0 0 54 55" fill="none" xmlns="http://www.w3.org/2000/svg">
<rect y="0.5" width="54" height="54" rx="12" fill="#01664A" fill-opacity="0.2"/>
<path d="M31.3799 38.25H18.2399C17.2899 38.25 16.4099 37.81 15.8399 37.04C15.2599 36.26 15.0899 35.28 15.3799 34.35L19.5899 20.8199C19.9699 19.5599 21.1299 18.7 22.4499 18.7H34.7499C35.9599 18.7 37.0499 19.42 37.5099 20.54C37.7599 21.12 37.8099 21.7801 37.6599 22.4301L34.2899 35.96C33.9699 37.31 32.7699 38.25 31.3799 38.25ZM22.4599 20.21C21.8099 20.21 21.2199 20.64 21.0299 21.27L16.8199 34.8C16.6799 35.27 16.7599 35.76 17.0599 36.16C17.3399 36.54 17.7799 36.76 18.2499 36.76H31.3899C32.08 36.76 32.6799 36.29 32.8399 35.62L36.2099 22.08C36.2899 21.75 36.2699 21.42 36.1399 21.13C35.9 20.56 35.3699 20.2 34.7599 20.2H22.4599V20.21Z" fill="#01664A"/>
<path d="M35.78 38.25H31C30.59 38.25 30.25 37.91 30.25 37.5C30.25 37.09 30.59 36.75 31 36.75H35.78C36.19 36.75 36.57 36.58 36.85 36.28C37.13 35.98 37.27 35.58 37.24 35.17L36.25 21.55C36.22 21.14 36.53 20.78 36.94 20.75C37.35 20.73 37.71 21.0299 37.74 21.4399L38.73 35.06C38.79 35.88 38.5 36.7 37.94 37.3C37.39 37.91 36.6 38.25 35.78 38.25Z" fill="#01664A"/>
<path d="M24.6798 22.63C24.6198 22.63 24.5598 22.6199 24.4998 22.6099C24.0998 22.5099 23.8498 22.1099 23.9498 21.6999L24.9898 17.38C25.0898 16.98 25.4898 16.7299 25.8998 16.8299C26.2998 16.9299 26.5498 17.3299 26.4498 17.7399L25.4098 22.06C25.3298 22.4 25.0198 22.63 24.6798 22.63Z" fill="#01664A"/>
<path d="M31.3799 22.64C31.3299 22.64 31.2699 22.64 31.2199 22.62C30.8199 22.53 30.56 22.13 30.64 21.73L31.5799 17.39C31.6699 16.98 32.0699 16.73 32.4699 16.81C32.8699 16.89 33.1299 17.2999 33.0499 17.6999L32.1099 22.04C32.0399 22.4 31.7299 22.64 31.3799 22.64Z" fill="#01664A"/>
<path d="M30.7002 28.25H22.7002C22.2902 28.25 21.9502 27.91 21.9502 27.5C21.9502 27.09 22.2902 26.75 22.7002 26.75H30.7002C31.1102 26.75 31.4502 27.09 31.4502 27.5C31.4502 27.91 31.1102 28.25 30.7002 28.25Z" fill="#01664A"/>
<path d="M29.7002 32.25H21.7002C21.2902 32.25 20.9502 31.91 20.9502 31.5C20.9502 31.09 21.2902 30.75 21.7002 30.75H29.7002C30.1102 30.75 30.4502 31.09 30.4502 31.5C30.4502 31.91 30.1102 32.25 29.7002 32.25Z" fill="#01664A"/>
</svg>
