<svg width="28" height="28" viewBox="0 0 28 28" fill="none" xmlns="http://www.w3.org/2000/svg">
<path d="M14 12.2734C13.5217 12.2734 13.125 11.8768 13.125 11.3984V7.51343C13.125 7.03509 13.5217 6.63843 14 6.63843C14.4783 6.63843 14.875 7.03509 14.875 7.51343V11.3984C14.875 11.8884 14.4783 12.2734 14 12.2734Z" fill="#01664A"/>
<path d="M14.0233 23.7418C11.0133 23.7418 8.01493 23.2634 5.15659 22.3068C4.09493 21.9568 3.28993 21.1984 2.93993 20.2418C2.58993 19.2851 2.70659 18.1884 3.27826 17.2318L4.75993 14.7584C5.08659 14.2101 5.37826 13.1834 5.37826 12.5418V10.0918C5.37826 5.32011 9.25159 1.44678 14.0233 1.44678C18.7949 1.44678 22.6683 5.32011 22.6683 10.0918V12.5418C22.6683 13.1718 22.9599 14.2101 23.2866 14.7584L24.7683 17.2318C25.3166 18.1418 25.4099 19.2268 25.0483 20.2184C24.6866 21.2101 23.8933 21.9684 22.8899 22.3068C20.0316 23.2751 17.0333 23.7418 14.0233 23.7418ZM14.0233 3.20844C10.2199 3.20844 7.12826 6.30011 7.12826 10.1034V12.5534C7.12826 13.4984 6.75493 14.8634 6.26493 15.6684L4.78326 18.1534C4.47993 18.6551 4.40993 19.1918 4.58493 19.6584C4.75993 20.1251 5.15659 20.4751 5.71659 20.6618C11.0833 22.4468 16.9866 22.4468 22.3533 20.6618C22.8549 20.4984 23.2399 20.1251 23.4149 19.6351C23.6016 19.1451 23.5433 18.6084 23.2749 18.1534L21.7933 15.6801C21.3033 14.8751 20.9299 13.5101 20.9299 12.5651V10.1151C20.9183 6.30011 17.8266 3.20844 14.0233 3.20844Z" fill="#01664A"/>
<path d="M14 26.7168C12.7517 26.7168 11.5267 26.2035 10.64 25.3168C9.75332 24.4301 9.23999 23.2051 9.23999 21.9568H10.99C10.99 22.7501 11.3167 23.5201 11.8767 24.0801C12.4367 24.6401 13.2067 24.9668 14 24.9668C15.6567 24.9668 17.01 23.6135 17.01 21.9568H18.76C18.76 24.5818 16.625 26.7168 14 26.7168Z" fill="#01664A"/>
</svg>
