<svg width="44" height="45" viewBox="0 0 44 45" fill="none" xmlns="http://www.w3.org/2000/svg">
    <rect y="0.5" width="44" height="44" rx="12" fill="#01664A" fill-opacity="0.2" />
    <path
        d="M22 21.02C21.59 21.02 21.25 20.68 21.25 20.27V16.94C21.25 16.53 21.59 16.19 22 16.19C22.41 16.19 22.75 16.53 22.75 16.94V20.27C22.75 20.69 22.41 21.02 22 21.02Z"
        fill="#01664A" />
    <path
        d="M22.0201 30.85C19.4401 30.85 16.8701 30.44 14.4201 29.62C13.5101 29.32 12.8201 28.67 12.5201 27.85C12.2201 27.03 12.3201 26.09 12.8101 25.27L14.0801 23.15C14.3601 22.68 14.6101 21.8 14.6101 21.25V19.15C14.6101 15.06 17.9301 11.74 22.0201 11.74C26.1101 11.74 29.4301 15.06 29.4301 19.15V21.25C29.4301 21.79 29.6801 22.68 29.9601 23.15L31.2301 25.27C31.7001 26.05 31.7801 26.98 31.4701 27.83C31.1601 28.68 30.4801 29.33 29.6201 29.62C27.1701 30.45 24.6001 30.85 22.0201 30.85ZM22.0201 13.25C18.7601 13.25 16.1101 15.9 16.1101 19.16V21.26C16.1101 22.07 15.7901 23.24 15.3701 23.93L14.1001 26.06C13.8401 26.49 13.7801 26.95 13.9301 27.35C14.0801 27.75 14.4201 28.05 14.9001 28.21C19.5001 29.74 24.5601 29.74 29.1601 28.21C29.5901 28.07 29.9201 27.75 30.0701 27.33C30.2301 26.91 30.1801 26.45 29.9501 26.06L28.6801 23.94C28.2601 23.25 27.9401 22.08 27.9401 21.27V19.17C27.9301 15.9 25.2801 13.25 22.0201 13.25Z"
        fill="#01664A" />
    <path
        d="M21.9999 33.4C20.9299 33.4 19.8799 32.96 19.1199 32.2C18.3599 31.44 17.9199 30.39 17.9199 29.32H19.4199C19.4199 30 19.6999 30.66 20.1799 31.14C20.6599 31.62 21.3199 31.9 21.9999 31.9C23.4199 31.9 24.5799 30.74 24.5799 29.32H26.0799C26.0799 31.57 24.2499 33.4 21.9999 33.4Z"
        fill="#01664A" />
</svg>
