<svg width="24" height="25" viewBox="0 0 24 25" fill="none" xmlns="http://www.w3.org/2000/svg">
<path d="M18.5 20.6195H14.5C14.09 20.6195 13.75 20.2795 13.75 19.8695C13.75 19.4595 14.09 19.1195 14.5 19.1195H18.5C18.91 19.1195 19.25 19.4595 19.25 19.8695C19.25 20.2795 18.91 20.6195 18.5 20.6195Z" fill="#292D32"/>
<path d="M16.5 22.6195C16.09 22.6195 15.75 22.2795 15.75 21.8695V17.8695C15.75 17.4595 16.09 17.1195 16.5 17.1195C16.91 17.1195 17.25 17.4595 17.25 17.8695V21.8695C17.25 22.2795 16.91 22.6195 16.5 22.6195Z" fill="#292D32"/>
<path d="M12.1602 11.9895C12.1302 11.9895 12.1102 11.9895 12.0802 11.9895C12.0302 11.9795 11.9602 11.9795 11.9002 11.9895C9.00019 11.8995 6.8102 9.61951 6.8102 6.80951C6.8002 5.42951 7.34019 4.12951 8.32019 3.14951C9.30019 2.16951 10.6002 1.61951 11.9902 1.61951C14.8502 1.61951 17.1802 3.94951 17.1802 6.80951C17.1802 9.61951 14.9902 11.8895 12.1902 11.9895C12.1802 11.9895 12.1702 11.9895 12.1602 11.9895ZM11.9902 3.11951C11.0002 3.11951 10.0802 3.50951 9.3802 4.19951C8.6902 4.89951 8.3102 5.81951 8.3102 6.79951C8.3102 8.79951 9.87019 10.4195 11.8602 10.4795C11.9202 10.4695 12.0502 10.4695 12.1802 10.4795C14.1502 10.3895 15.6802 8.77951 15.6802 6.79951C15.6802 4.77951 14.0202 3.11951 11.9902 3.11951Z" fill="#292D32"/>
<path d="M11.9902 22.9296C9.95016 22.9296 8.02016 22.3996 6.56016 21.4196C5.17016 20.4896 4.41016 19.2196 4.41016 17.8496C4.41016 16.4796 5.18016 15.2196 6.56016 14.2996C9.55016 12.2996 14.4102 12.2996 17.4002 14.2996C17.7402 14.5296 17.8402 14.9996 17.6102 15.3396C17.3802 15.6896 16.9102 15.7796 16.5702 15.5496C14.0802 13.8896 9.88016 13.8896 7.39016 15.5496C6.43016 16.1896 5.91016 16.9996 5.91016 17.8496C5.91016 18.6996 6.43016 19.5296 7.39016 20.1696C8.60016 20.9796 10.2302 21.4196 11.9802 21.4196C12.3902 21.4196 12.7302 21.7596 12.7302 22.1696C12.7302 22.5796 12.4002 22.9296 11.9902 22.9296Z" fill="#292D32"/>
</svg>
