<svg width="54" height="55" viewBox="0 0 54 55" fill="none" xmlns="http://www.w3.org/2000/svg">
<rect y="0.5" width="54" height="54" rx="12" fill="#01664A" fill-opacity="0.2"/>
<path d="M32 38.25H22C17.59 38.25 16.25 36.91 16.25 32.5V30.5C16.25 26.09 17.59 24.75 22 24.75H32C36.41 24.75 37.75 26.09 37.75 30.5V32.5C37.75 36.91 36.41 38.25 32 38.25ZM22 26.25C18.42 26.25 17.75 26.93 17.75 30.5V32.5C17.75 36.07 18.42 36.75 22 36.75H32C35.58 36.75 36.25 36.07 36.25 32.5V30.5C36.25 26.93 35.58 26.25 32 26.25H22Z" fill="#01664A"/>
<path d="M21 26.25C20.59 26.25 20.25 25.91 20.25 25.5V23.5C20.25 20.6 20.95 16.75 27 16.75C31.48 16.75 33.75 18.68 33.75 22.5C33.75 22.91 33.41 23.25 33 23.25C32.59 23.25 32.25 22.91 32.25 22.5C32.25 20.52 31.65 18.25 27 18.25C22.64 18.25 21.75 20.35 21.75 23.5V25.5C21.75 25.91 21.41 26.25 21 26.25Z" fill="#01664A"/>
<path d="M27 34.75C25.21 34.75 23.75 33.29 23.75 31.5C23.75 29.71 25.21 28.25 27 28.25C28.79 28.25 30.25 29.71 30.25 31.5C30.25 33.29 28.79 34.75 27 34.75ZM27 29.75C26.04 29.75 25.25 30.54 25.25 31.5C25.25 32.46 26.04 33.25 27 33.25C27.96 33.25 28.75 32.46 28.75 31.5C28.75 30.54 27.96 29.75 27 29.75Z" fill="#01664A"/>
</svg>
