<svg width="54" height="55" viewBox="0 0 54 55" fill="none" xmlns="http://www.w3.org/2000/svg">
<rect y="0.5" width="54" height="54" rx="12" fill="#01664A" fill-opacity="0.2"/>
<path d="M30 38.25H24C18.57 38.25 16.25 35.93 16.25 30.5V24.5C16.25 19.07 18.57 16.75 24 16.75H29C29.41 16.75 29.75 17.09 29.75 17.5C29.75 17.91 29.41 18.25 29 18.25H24C19.39 18.25 17.75 19.89 17.75 24.5V30.5C17.75 35.11 19.39 36.75 24 36.75H30C34.61 36.75 36.25 35.11 36.25 30.5V25.5C36.25 25.09 36.59 24.75 37 24.75C37.41 24.75 37.75 25.09 37.75 25.5V30.5C37.75 35.93 35.43 38.25 30 38.25Z" fill="#01664A"/>
<path d="M37 26.25H33C29.58 26.25 28.25 24.92 28.25 21.5V17.5C28.25 17.2 28.43 16.92 28.71 16.81C28.99 16.69 29.31 16.76 29.53 16.97L37.53 24.97C37.74 25.18 37.81 25.51 37.69 25.79C37.57 26.07 37.3 26.25 37 26.25ZM29.75 19.31V21.5C29.75 24.08 30.42 24.75 33 24.75H35.19L29.75 19.31Z" fill="#01664A"/>
<path d="M28 29.25H22C21.59 29.25 21.25 28.91 21.25 28.5C21.25 28.09 21.59 27.75 22 27.75H28C28.41 27.75 28.75 28.09 28.75 28.5C28.75 28.91 28.41 29.25 28 29.25Z" fill="#01664A"/>
<path d="M26 33.25H22C21.59 33.25 21.25 32.91 21.25 32.5C21.25 32.09 21.59 31.75 22 31.75H26C26.41 31.75 26.75 32.09 26.75 32.5C26.75 32.91 26.41 33.25 26 33.25Z" fill="#01664A"/>
</svg>
