<svg width="24" height="25" viewBox="0 0 24 25" fill="none" xmlns="http://www.w3.org/2000/svg">
<path d="M8.9101 21.17C8.7201 21.17 8.5301 21.1 8.3801 20.95C8.0901 20.66 8.0901 20.18 8.3801 19.89L14.9001 13.37C15.3801 12.89 15.3801 12.11 14.9001 11.63L8.3801 5.11002C8.0901 4.82002 8.0901 4.34002 8.3801 4.05002C8.6701 3.76002 9.1501 3.76002 9.4401 4.05002L15.9601 10.57C16.4701 11.08 16.7601 11.77 16.7601 12.5C16.7601 13.23 16.4801 13.92 15.9601 14.43L9.4401 20.95C9.2901 21.09 9.1001 21.17 8.9101 21.17Z" fill="#292D32"/>
</svg>
