<svg width="28" height="28" viewBox="0 0 28 28" fill="none" xmlns="http://www.w3.org/2000/svg">
<path d="M20.6034 26.4484C19.9851 26.4484 19.1917 26.25 18.2001 25.6667L14.7117 23.6017C14.3501 23.3917 13.6501 23.3917 13.3001 23.6017L9.80006 25.6667C7.73506 26.8917 6.52172 26.4017 5.97339 26.005C5.43672 25.6084 4.59672 24.5934 5.14506 22.26L5.97339 18.6784C6.06672 18.305 5.88006 17.6634 5.60006 17.3834L2.70672 14.49C1.26006 13.0434 1.37672 11.8067 1.57506 11.2C1.77339 10.5934 2.40339 9.52004 4.41006 9.1817L8.13172 8.56337C8.48172 8.50504 8.98339 8.13171 9.13506 7.81671L11.2001 3.69837C12.1334 1.82004 13.3584 1.54004 14.0001 1.54004C14.6417 1.54004 15.8667 1.82004 16.8001 3.69837L18.8534 7.80504C19.0167 8.12004 19.5184 8.49337 19.8684 8.55171L23.5901 9.17004C25.6084 9.50837 26.2384 10.5817 26.4251 11.1884C26.6117 11.795 26.7284 13.0317 25.2934 14.4784L22.4001 17.3834C22.1201 17.6634 21.9451 18.2934 22.0267 18.6784L22.8551 22.26C23.3917 24.5934 22.5634 25.6084 22.0267 26.005C21.7351 26.215 21.2684 26.4484 20.6034 26.4484ZM14.0001 21.6884C14.5717 21.6884 15.1434 21.8284 15.5984 22.0967L19.0867 24.1617C20.1017 24.7684 20.7434 24.7684 20.9884 24.5934C21.2334 24.4184 21.4084 23.8 21.1517 22.6567L20.3234 19.075C20.1017 18.1067 20.4634 16.8584 21.1634 16.1467L24.0567 13.2534C24.6284 12.6817 24.8851 12.1217 24.7684 11.7367C24.6401 11.3517 24.1034 11.0367 23.3101 10.9084L19.5884 10.29C18.6901 10.1384 17.7101 9.41504 17.3017 8.59837L15.2484 4.49171C14.8751 3.74504 14.4084 3.30171 14.0001 3.30171C13.5917 3.30171 13.1251 3.74504 12.7634 4.49171L10.6984 8.59837C10.2901 9.41504 9.31006 10.1384 8.41172 10.29L4.70172 10.9084C3.90839 11.0367 3.37172 11.3517 3.24339 11.7367C3.11506 12.1217 3.38339 12.6934 3.95506 13.2534L6.84839 16.1467C7.54839 16.8467 7.91006 18.1067 7.68839 19.075L6.86006 22.6567C6.59172 23.8117 6.77839 24.4184 7.02339 24.5934C7.26839 24.7684 7.89839 24.7567 8.92506 24.1617L12.4134 22.0967C12.8567 21.8284 13.4284 21.6884 14.0001 21.6884Z" fill="#01664A"/>
</svg>
