<svg width="54" height="55" viewBox="0 0 54 55" fill="none" xmlns="http://www.w3.org/2000/svg">
<rect y="0.5" width="54" height="54" rx="12" fill="#01664A" fill-opacity="0.2"/>
<path d="M25.54 37.44C25.31 37.44 25.09 37.34 24.94 37.14L23.93 35.79C23.72 35.51 23.44 35.35 23.14 35.33C22.83 35.31 22.54 35.45 22.3 35.7C20.85 37.25 19.75 37.12 19.22 36.92C18.68 36.71 17.77 36.02 17.77 33.8V22.54C17.77 18.1 19.05 16.75 23.24 16.75H30.79C34.98 16.75 36.26 18.1 36.26 22.54V26.8C36.26 27.21 35.92 27.55 35.51 27.55C35.1 27.55 34.76 27.21 34.76 26.8V22.54C34.76 18.93 34.13 18.25 30.79 18.25H23.24C19.9 18.25 19.27 18.93 19.27 22.54V33.8C19.27 34.85 19.53 35.43 19.77 35.52C19.95 35.59 20.44 35.49 21.2 34.68C21.75 34.1 22.47 33.79 23.22 33.83C23.96 33.87 24.66 34.26 25.13 34.89L26.15 36.24C26.4 36.57 26.33 37.04 26 37.29C25.85 37.4 25.69 37.44 25.54 37.44Z" fill="#01664A"/>
<path d="M31 23.25H23C22.59 23.25 22.25 22.91 22.25 22.5C22.25 22.09 22.59 21.75 23 21.75H31C31.41 21.75 31.75 22.09 31.75 22.5C31.75 22.91 31.41 23.25 31 23.25Z" fill="#01664A"/>
<path d="M30 27.25H24C23.59 27.25 23.25 26.91 23.25 26.5C23.25 26.09 23.59 25.75 24 25.75H30C30.41 25.75 30.75 26.09 30.75 26.5C30.75 26.91 30.41 27.25 30 27.25Z" fill="#01664A"/>
<path d="M29.8201 37.28C29.4401 37.28 29.0801 37.14 28.8201 36.88C28.5101 36.57 28.3701 36.12 28.4401 35.65L28.6301 34.3C28.6801 33.95 28.8901 33.53 29.1401 33.28L32.68 29.74C33.16 29.26 33.6301 29.01 34.1401 28.96C34.7601 28.9 35.38 29.16 35.96 29.74C36.54 30.32 36.8 30.93 36.74 31.56C36.69 32.06 36.43 32.54 35.96 33.02L32.4201 36.56C32.1701 36.81 31.75 37.02 31.4 37.07L30.05 37.26C29.97 37.27 29.9001 37.28 29.8201 37.28ZM34.31 30.45C34.3 30.45 34.29 30.45 34.28 30.45C34.14 30.46 33.95 30.59 33.74 30.8L30.2001 34.34C30.1701 34.37 30.12 34.47 30.12 34.51L29.9401 35.76L31.1901 35.58C31.2301 35.57 31.33 35.52 31.36 35.49L34.9 31.95C35.11 31.73 35.24 31.55 35.2501 31.41C35.2701 31.21 35.07 30.97 34.9 30.8C34.74 30.64 34.51 30.45 34.31 30.45Z" fill="#01664A"/>
<path d="M34.9201 33.7499C34.8501 33.7499 34.7801 33.7399 34.7201 33.7199C33.4001 33.3499 32.3501 32.2999 31.9801 30.9799C31.8701 30.5799 32.1001 30.1699 32.5001 30.0499C32.9001 29.9399 33.3101 30.1699 33.4201 30.5699C33.6501 31.3899 34.3001 32.0399 35.1201 32.2699C35.5201 32.3799 35.7501 32.7999 35.6401 33.1999C35.5501 33.5299 35.2501 33.7499 34.9201 33.7499Z" fill="#01664A"/>
</svg>
