<svg width="45" height="44" viewBox="0 0 45 44" fill="none" xmlns="http://www.w3.org/2000/svg">
<path d="M22 31.75C16.35 31.75 11.75 27.15 11.75 21.5C11.75 15.85 16.35 11.25 22 11.25C27.65 11.25 32.25 15.85 32.25 21.5C32.25 27.15 27.65 31.75 22 31.75ZM22 12.75C17.17 12.75 13.25 16.68 13.25 21.5C13.25 26.32 17.17 30.25 22 30.25C26.83 30.25 30.75 26.32 30.75 21.5C30.75 16.68 26.83 12.75 22 12.75Z" fill="#020202"/>
<path d="M32.4999 32.75C32.3099 32.75 32.1199 32.68 31.9699 32.53L29.9699 30.53C29.6799 30.24 29.6799 29.76 29.9699 29.47C30.2599 29.18 30.7399 29.18 31.0299 29.47L33.0299 31.47C33.3199 31.76 33.3199 32.24 33.0299 32.53C32.8799 32.68 32.6899 32.75 32.4999 32.75Z" fill="#020202"/>
</svg>
