<svg width="28" height="28" viewBox="0 0 28 28" fill="none" xmlns="http://www.w3.org/2000/svg">
<path d="M16.5899 25.235C15.2133 25.235 13.2649 24.2666 11.7249 19.635L10.8849 17.115L8.36494 16.275C3.74494 14.735 2.77661 12.7866 2.77661 11.41C2.77661 10.045 3.74494 8.08496 8.36494 6.53329L18.2699 3.23163C20.7433 2.40329 22.8083 2.64829 24.0799 3.90829C25.3516 5.16829 25.5966 7.24496 24.7683 9.71829L21.4666 19.6233C19.9149 24.2666 17.9666 25.235 16.5899 25.235ZM8.91328 8.20163C5.66994 9.28663 4.51494 10.57 4.51494 11.41C4.51494 12.25 5.66994 13.5333 8.91328 14.6066L11.8533 15.5866C12.1099 15.6683 12.3199 15.8783 12.4016 16.135L13.3816 19.075C14.4549 22.3183 15.7499 23.4733 16.5899 23.4733C17.4299 23.4733 18.7133 22.3183 19.7983 19.075L23.0999 9.16996C23.6949 7.37329 23.5899 5.90329 22.8316 5.14496C22.0733 4.38663 20.6033 4.29329 18.8183 4.88829L8.91328 8.20163Z" fill="#01664A"/>
<path d="M11.7949 16.7999C11.5733 16.7999 11.3516 16.7183 11.1766 16.5433C10.8383 16.2049 10.8383 15.6449 11.1766 15.3066L15.3533 11.1183C15.6916 10.7799 16.2516 10.7799 16.5899 11.1183C16.9283 11.4566 16.9283 12.0166 16.5899 12.3549L12.4133 16.5433C12.2499 16.7183 12.0166 16.7999 11.7949 16.7999Z" fill="#01664A"/>
</svg>
