<svg width="44" height="44" viewBox="0 0 44 44" fill="none" xmlns="http://www.w3.org/2000/svg">
<rect width="44" height="44" rx="12" fill="#01664A" fill-opacity="0.2"/>
<path d="M32.75 27.5C32.75 27.91 32.41 28.25 32 28.25H25V28.5C25 30 24.1 30.5 23 30.5H17C15.9 30.5 15 30 15 28.5V28.25H12C11.59 28.25 11.25 27.91 11.25 27.5C11.25 27.09 11.59 26.75 12 26.75H15V26.5C15 25 15.9 24.5 17 24.5H23C24.1 24.5 25 25 25 26.5V26.75H32C32.41 26.75 32.75 27.09 32.75 27.5Z" fill="#01664A"/>
<path d="M32.75 16.5C32.75 16.91 32.41 17.25 32 17.25H29V17.5C29 19 28.1 19.5 27 19.5H21C19.9 19.5 19 19 19 17.5V17.25H12C11.59 17.25 11.25 16.91 11.25 16.5C11.25 16.09 11.59 15.75 12 15.75H19V15.5C19 14 19.9 13.5 21 13.5H27C28.1 13.5 29 14 29 15.5V15.75H32C32.41 15.75 32.75 16.09 32.75 16.5Z" fill="#01664A"/>
</svg>
