<svg width="54" height="55" viewBox="0 0 54 55" fill="none" xmlns="http://www.w3.org/2000/svg">
<rect y="0.5" width="54" height="54" rx="12" fill="#01664A" fill-opacity="0.2"/>
<path d="M31 38.25H23C19.98 38.25 18.25 36.52 18.25 33.5V23.75C18.25 20.6 19.85 19 23 19C23.41 19 23.75 19.34 23.75 19.75C23.75 20.15 23.91 20.53 24.19 20.81C24.47 21.09 24.85 21.25 25.25 21.25H28.75C29.58 21.25 30.25 20.58 30.25 19.75C30.25 19.34 30.59 19 31 19C34.15 19 35.75 20.6 35.75 23.75V33.5C35.75 36.52 34.02 38.25 31 38.25ZM22.35 20.52C20.77 20.65 19.75 21.36 19.75 23.75V33.5C19.75 35.72 20.78 36.75 23 36.75H31C33.22 36.75 34.25 35.72 34.25 33.5V23.75C34.25 21.36 33.23 20.66 31.65 20.52C31.31 21.8 30.14 22.75 28.75 22.75H25.25C24.45 22.75 23.7 22.44 23.13 21.87C22.75 21.49 22.49 21.03 22.35 20.52Z" fill="#01664A"/>
<path d="M28.75 22.75H25.25C24.45 22.75 23.7 22.44 23.13 21.87C22.56 21.3 22.25 20.55 22.25 19.75C22.25 18.1 23.6 16.75 25.25 16.75H28.75C29.55 16.75 30.3 17.06 30.87 17.63C31.44 18.2 31.75 18.95 31.75 19.75C31.75 21.4 30.4 22.75 28.75 22.75ZM25.25 18.25C24.42 18.25 23.75 18.92 23.75 19.75C23.75 20.15 23.91 20.53 24.19 20.81C24.47 21.09 24.85 21.25 25.25 21.25H28.75C29.58 21.25 30.25 20.58 30.25 19.75C30.25 19.35 30.09 18.97 29.81 18.69C29.53 18.41 29.15 18.25 28.75 18.25H25.25Z" fill="#01664A"/>
<path d="M27 29.25H23C22.59 29.25 22.25 28.91 22.25 28.5C22.25 28.09 22.59 27.75 23 27.75H27C27.41 27.75 27.75 28.09 27.75 28.5C27.75 28.91 27.41 29.25 27 29.25Z" fill="#01664A"/>
<path d="M31 33.25H23C22.59 33.25 22.25 32.91 22.25 32.5C22.25 32.09 22.59 31.75 23 31.75H31C31.41 31.75 31.75 32.09 31.75 32.5C31.75 32.91 31.41 33.25 31 33.25Z" fill="#01664A"/>
</svg>
